G04*
G04 #@! TF.GenerationSoftware,Altium Limited,Altium Designer,21.2.2 (38)*
G04*
G04 Layer_Color=16711935*
%FSAX44Y44*%
%MOMM*%
G71*
G04*
G04 #@! TF.SameCoordinates,EFB995D0-04CD-4325-A83F-4C7D1CC19F90*
G04*
G04*
G04 #@! TF.FilePolarity,Negative*
G04*
G01*
G75*
%ADD47C,1.8000*%
%ADD48P,1.9483X8X112.5*%
%ADD49C,1.7500*%
%ADD50C,1.4000*%
G04:AMPARAMS|DCode=51|XSize=1.4mm|YSize=1.4mm|CornerRadius=0.375mm|HoleSize=0mm|Usage=FLASHONLY|Rotation=180.000|XOffset=0mm|YOffset=0mm|HoleType=Round|Shape=RoundedRectangle|*
%AMROUNDEDRECTD51*
21,1,1.4000,0.6500,0,0,180.0*
21,1,0.6500,1.4000,0,0,180.0*
1,1,0.7500,-0.3250,0.3250*
1,1,0.7500,0.3250,0.3250*
1,1,0.7500,0.3250,-0.3250*
1,1,0.7500,-0.3250,-0.3250*
%
%ADD51ROUNDEDRECTD51*%
G04:AMPARAMS|DCode=52|XSize=1.75mm|YSize=1.75mm|CornerRadius=0.4625mm|HoleSize=0mm|Usage=FLASHONLY|Rotation=90.000|XOffset=0mm|YOffset=0mm|HoleType=Round|Shape=RoundedRectangle|*
%AMROUNDEDRECTD52*
21,1,1.7500,0.8250,0,0,90.0*
21,1,0.8250,1.7500,0,0,90.0*
1,1,0.9250,0.4125,0.4125*
1,1,0.9250,0.4125,-0.4125*
1,1,0.9250,-0.4125,-0.4125*
1,1,0.9250,-0.4125,0.4125*
%
%ADD52ROUNDEDRECTD52*%
%ADD53C,1.7000*%
G04:AMPARAMS|DCode=54|XSize=1.7mm|YSize=1.7mm|CornerRadius=0.45mm|HoleSize=0mm|Usage=FLASHONLY|Rotation=180.000|XOffset=0mm|YOffset=0mm|HoleType=Round|Shape=RoundedRectangle|*
%AMROUNDEDRECTD54*
21,1,1.7000,0.8000,0,0,180.0*
21,1,0.8000,1.7000,0,0,180.0*
1,1,0.9000,-0.4000,0.4000*
1,1,0.9000,0.4000,0.4000*
1,1,0.9000,0.4000,-0.4000*
1,1,0.9000,-0.4000,-0.4000*
%
%ADD54ROUNDEDRECTD54*%
%ADD55R,1.1500X1.1500*%
%ADD56C,1.1500*%
G04:AMPARAMS|DCode=57|XSize=1.9mm|YSize=1.9mm|CornerRadius=0.5mm|HoleSize=0mm|Usage=FLASHONLY|Rotation=90.000|XOffset=0mm|YOffset=0mm|HoleType=Round|Shape=RoundedRectangle|*
%AMROUNDEDRECTD57*
21,1,1.9000,0.9000,0,0,90.0*
21,1,0.9000,1.9000,0,0,90.0*
1,1,1.0000,0.4500,0.4500*
1,1,1.0000,0.4500,-0.4500*
1,1,1.0000,-0.4500,-0.4500*
1,1,1.0000,-0.4500,0.4500*
%
%ADD57ROUNDEDRECTD57*%
%ADD58C,1.9000*%
D47*
X00299800Y00678300D02*
D03*
Y00627500D02*
D03*
Y00652900D02*
D03*
X00325200Y00678300D02*
D03*
Y00652900D02*
D03*
X00299800Y00576700D02*
D03*
X00325200Y00602100D02*
D03*
X00299800D02*
D03*
X00325200Y00627500D02*
D03*
X00299800Y00463300D02*
D03*
Y00412500D02*
D03*
Y00437900D02*
D03*
X00325200Y00463300D02*
D03*
Y00437900D02*
D03*
X00299800Y00361700D02*
D03*
X00325200Y00387100D02*
D03*
X00299800D02*
D03*
X00325200Y00412500D02*
D03*
D48*
Y00576700D02*
D03*
Y00361700D02*
D03*
D49*
X00944500Y00579500D02*
D03*
X00312500Y00292500D02*
D03*
X00940000Y00526200D02*
D03*
Y00488100D02*
D03*
Y00335700D02*
D03*
Y00373800D02*
D03*
Y00411900D02*
D03*
Y00450000D02*
D03*
D50*
X00645500Y00687500D02*
D03*
X00625500D02*
D03*
X00605500D02*
D03*
X00704000Y00688000D02*
D03*
X00724000D02*
D03*
X00744000D02*
D03*
X00784000D02*
D03*
X00764000D02*
D03*
D51*
X00665500Y00687500D02*
D03*
X00804000Y00688000D02*
D03*
D52*
X00940000Y00297600D02*
D03*
D53*
X00847300Y00688000D02*
D03*
X00740600Y00299000D02*
D03*
X00766000D02*
D03*
D54*
X00872700Y00688000D02*
D03*
X00791400Y00299000D02*
D03*
D55*
X00700600Y00405000D02*
D03*
D56*
X00749400D02*
D03*
D57*
X00939000Y00637500D02*
D03*
D58*
Y00672500D02*
D03*
M02*
