M48
;Layer_Color=9474304
;FILE_FORMAT=2:4
INCH,TZ
;TYPE=PLATED
T1F00S00C0.0118
T2F00S00C0.0197
T3F00S00C0.0256
T4F00S00C0.0315
T5F00S00C0.0433
T6F00S00C0.0472
;TYPE=NON_PLATED
T7F00S00C0.1024
%
T01
X2441Y3031
X4128Y4449
X4803Y4213
X906Y5079
X5942Y3780
X5984Y1752
X12283Y3976
X12835Y3780
X21773Y3740
X21772Y5074
X23110Y4567
X23031Y3228
X21772Y2362
Y6417
Y7835
X22702Y9384
X22835Y10354
X23462Y10869
X24700Y9621
X25669Y10020
X27126Y9469
X24134Y7205
X23159Y5945
X22244Y12520
X22520Y14606
X23838Y14792
X23760Y16142
X25276Y15472
X25472Y13780
X20512Y14232
X18819Y15866
X18346Y15512
X14783Y12362
X15039Y11378
X14484Y11374
X13346Y11673
Y12165
Y12613
X12461Y11358
X11870Y11752
X11240
X14094Y8733
X15236Y9154
X15784Y9152
X14685Y6804
X5709Y6024
Y7992
Y9989
X2874Y9114
X3937Y12795
X1260Y14606
X4803Y5472
T02
X8602Y3346
X23917Y2402
X25295Y7854
X25768Y9409
X24291Y12165
X21870Y12874
X18799Y10728
X17657Y10532
X18110Y8780
X16773Y12518
X16319Y14193
X11890Y15236
X10984Y12480
X9488Y10906
X6850Y11575
X6634Y12028
X6969Y16949
X5571
X11988Y8740
X13150Y7343
X14252Y5630
X15354Y6260
X10728Y6220
X4961Y7992
Y9961
T03
X17248Y5413
X19169
T04
X21319Y16555
X20531
X19744
X18957
X18169
X17382
X15866Y16535
X15079
X14291
X13504
T05
X1862Y3709
X2862
Y4709
X1862
X17740Y1260
X18740
X19740
X21902
X22902
X25661Y2114
X26661
Y3114
Y4114
X25661
Y3114
Y5114
Y6114
X26661
Y5114
X2862Y5709
X1862
Y6709
Y7709
X2862
Y6709
Y12173
X1862
Y13173
Y14173
Y15173
Y16173
X2862
Y15173
Y14173
Y13173
T06
X26693Y13602
Y14980
T07
X1575Y984
X26772Y16732
M30
