G04*
G04 #@! TF.GenerationSoftware,Altium Limited,Altium Designer,21.0.8 (223)*
G04*
G04 Layer_Color=8421504*
%FSLAX24Y24*%
%MOIN*%
G70*
G04*
G04 #@! TF.SameCoordinates,FDC07EFC-1B29-4822-A7E3-1CBBEB92D143*
G04*
G04*
G04 #@! TF.FilePolarity,Positive*
G04*
G01*
G75*
%ADD25R,0.0709X0.0878*%
%ADD26R,0.0551X0.0512*%
%ADD27R,0.0354X0.0394*%
%ADD28R,0.0846X0.0965*%
G04:AMPARAMS|DCode=29|XSize=50mil|YSize=80mil|CornerRadius=10mil|HoleSize=0mil|Usage=FLASHONLY|Rotation=0.000|XOffset=0mil|YOffset=0mil|HoleType=Round|Shape=RoundedRectangle|*
%AMROUNDEDRECTD29*
21,1,0.0500,0.0600,0,0,0.0*
21,1,0.0300,0.0800,0,0,0.0*
1,1,0.0200,0.0150,-0.0300*
1,1,0.0200,-0.0150,-0.0300*
1,1,0.0200,-0.0150,0.0300*
1,1,0.0200,0.0150,0.0300*
%
%ADD29ROUNDEDRECTD29*%
G04:AMPARAMS|DCode=30|XSize=240mil|YSize=270mil|CornerRadius=48mil|HoleSize=0mil|Usage=FLASHONLY|Rotation=0.000|XOffset=0mil|YOffset=0mil|HoleType=Round|Shape=RoundedRectangle|*
%AMROUNDEDRECTD30*
21,1,0.2400,0.1740,0,0,0.0*
21,1,0.1440,0.2700,0,0,0.0*
1,1,0.0960,0.0720,-0.0870*
1,1,0.0960,-0.0720,-0.0870*
1,1,0.0960,-0.0720,0.0870*
1,1,0.0960,0.0720,0.0870*
%
%ADD30ROUNDEDRECTD30*%
%ADD31R,0.0315X0.0315*%
%ADD32R,0.0197X0.0472*%
%ADD33R,0.0472X0.0197*%
G04:AMPARAMS|DCode=34|XSize=63mil|YSize=23.6mil|CornerRadius=11.8mil|HoleSize=0mil|Usage=FLASHONLY|Rotation=0.000|XOffset=0mil|YOffset=0mil|HoleType=Round|Shape=RoundedRectangle|*
%AMROUNDEDRECTD34*
21,1,0.0630,0.0000,0,0,0.0*
21,1,0.0394,0.0236,0,0,0.0*
1,1,0.0236,0.0197,0.0000*
1,1,0.0236,-0.0197,0.0000*
1,1,0.0236,-0.0197,0.0000*
1,1,0.0236,0.0197,0.0000*
%
%ADD34ROUNDEDRECTD34*%
%ADD35O,0.0236X0.0728*%
%ADD36R,0.0400X0.0220*%
%ADD37R,0.0531X0.0453*%
%ADD38R,0.0709X0.0484*%
%ADD39R,0.0315X0.0315*%
%ADD40O,0.0138X0.0669*%
%ADD41O,0.0394X0.0315*%
%ADD42R,0.0335X0.0374*%
%ADD43R,0.0236X0.0295*%
%ADD44R,0.0374X0.0335*%
%ADD45R,0.0484X0.0709*%
%ADD46R,0.0394X0.0354*%
%ADD47R,0.0512X0.0551*%
D25*
X8094Y13543D02*
D03*
X6945D02*
D03*
D26*
X21900Y13484D02*
D03*
Y14114D02*
D03*
X13780Y13268D02*
D03*
Y13898D02*
D03*
X19843Y7953D02*
D03*
Y7323D02*
D03*
X20669D02*
D03*
Y7953D02*
D03*
D27*
X15974Y8524D02*
D03*
X16506D02*
D03*
X17549Y3917D02*
D03*
X18081D02*
D03*
X19852D02*
D03*
X19321D02*
D03*
D28*
X5984Y16909D02*
D03*
Y15217D02*
D03*
X8110D02*
D03*
Y16909D02*
D03*
D29*
X10090Y13543D02*
D03*
X11890D02*
D03*
D30*
X10990Y15893D02*
D03*
D31*
X24921Y16486D02*
D03*
Y17136D02*
D03*
D32*
X17106Y9843D02*
D03*
X17421D02*
D03*
X17736D02*
D03*
X18051D02*
D03*
X18366D02*
D03*
X18681D02*
D03*
X18996D02*
D03*
X19311D02*
D03*
Y13189D02*
D03*
X18996D02*
D03*
X18681D02*
D03*
X18366D02*
D03*
X18051D02*
D03*
X17736D02*
D03*
X17421D02*
D03*
X17106D02*
D03*
D33*
X19882Y10413D02*
D03*
Y10728D02*
D03*
Y11043D02*
D03*
Y11358D02*
D03*
Y11673D02*
D03*
Y11988D02*
D03*
Y12303D02*
D03*
Y12618D02*
D03*
X16535D02*
D03*
Y12303D02*
D03*
Y11988D02*
D03*
Y11673D02*
D03*
Y11358D02*
D03*
Y11043D02*
D03*
Y10728D02*
D03*
Y10413D02*
D03*
D34*
X13878Y11232D02*
D03*
Y10732D02*
D03*
Y10232D02*
D03*
Y9732D02*
D03*
Y9232D02*
D03*
Y8732D02*
D03*
Y8232D02*
D03*
X11555D02*
D03*
Y8732D02*
D03*
Y9232D02*
D03*
Y9732D02*
D03*
Y10232D02*
D03*
Y10732D02*
D03*
Y11232D02*
D03*
D35*
X15233Y4872D02*
D03*
X14733D02*
D03*
X14233D02*
D03*
X13733D02*
D03*
X13233D02*
D03*
X12733D02*
D03*
X12233D02*
D03*
X11733D02*
D03*
X15233Y2589D02*
D03*
X14733D02*
D03*
X14233D02*
D03*
X13733D02*
D03*
X13233D02*
D03*
X12733D02*
D03*
X12233D02*
D03*
X11733D02*
D03*
D36*
X15120Y7264D02*
D03*
X16100Y7634D02*
D03*
Y6894D02*
D03*
D37*
X23278Y9537D02*
D03*
Y8848D02*
D03*
X25049Y9537D02*
D03*
Y8848D02*
D03*
X24163D02*
D03*
Y9537D02*
D03*
X22392Y8848D02*
D03*
Y9537D02*
D03*
D38*
X15906Y14295D02*
D03*
X14874D02*
D03*
X11984Y6181D02*
D03*
X13016D02*
D03*
X14984Y1280D02*
D03*
X13953D02*
D03*
X12425D02*
D03*
X11394D02*
D03*
D39*
X22402Y7146D02*
D03*
Y7736D02*
D03*
X24173Y7146D02*
D03*
Y7736D02*
D03*
D40*
X22746Y11850D02*
D03*
X23002D02*
D03*
X23258D02*
D03*
X23514D02*
D03*
X23770D02*
D03*
X24026D02*
D03*
X24281D02*
D03*
X24537D02*
D03*
X24793D02*
D03*
X25049D02*
D03*
X22746Y14094D02*
D03*
X23002D02*
D03*
X23258D02*
D03*
X23514D02*
D03*
X23770D02*
D03*
X24026D02*
D03*
X24281D02*
D03*
X24537D02*
D03*
X24793D02*
D03*
X25049D02*
D03*
D41*
X8465Y9126D02*
D03*
Y10126D02*
D03*
X5906Y9126D02*
D03*
Y10126D02*
D03*
X8465Y3220D02*
D03*
Y4220D02*
D03*
X5906Y3220D02*
D03*
Y4220D02*
D03*
X8465Y1252D02*
D03*
Y2252D02*
D03*
X5906Y1252D02*
D03*
Y2252D02*
D03*
X8465Y11094D02*
D03*
Y12094D02*
D03*
X5906Y11094D02*
D03*
Y12094D02*
D03*
X5906Y8157D02*
D03*
Y7157D02*
D03*
X8465Y8157D02*
D03*
Y7157D02*
D03*
X8465Y5189D02*
D03*
Y6189D02*
D03*
X5906Y5189D02*
D03*
Y6189D02*
D03*
D42*
X10138Y8425D02*
D03*
X9626D02*
D03*
X10138Y10236D02*
D03*
X9626D02*
D03*
X10138Y5709D02*
D03*
X9626D02*
D03*
X22776Y2362D02*
D03*
X23287D02*
D03*
X9626Y6614D02*
D03*
X10138D02*
D03*
X21240Y2362D02*
D03*
X21752D02*
D03*
X9626Y9331D02*
D03*
X10138D02*
D03*
Y7520D02*
D03*
X9626D02*
D03*
D43*
X4665Y9478D02*
D03*
Y9026D02*
D03*
D44*
X24134Y17106D02*
D03*
Y16594D02*
D03*
X23632Y5935D02*
D03*
Y5423D02*
D03*
X24419D02*
D03*
Y5935D02*
D03*
X25207D02*
D03*
Y5423D02*
D03*
X22844D02*
D03*
Y5935D02*
D03*
D45*
X16594Y2303D02*
D03*
Y1272D02*
D03*
X10512Y4374D02*
D03*
Y3343D02*
D03*
X19016Y7043D02*
D03*
Y8075D02*
D03*
D46*
X22844Y3533D02*
D03*
Y4065D02*
D03*
X25207Y3533D02*
D03*
Y4065D02*
D03*
X23632Y3533D02*
D03*
Y4065D02*
D03*
X24419Y3533D02*
D03*
Y4065D02*
D03*
D47*
X10197Y12283D02*
D03*
X9567D02*
D03*
X10197Y11220D02*
D03*
X9567D02*
D03*
M02*
