G04*
G04 #@! TF.GenerationSoftware,Altium Limited,Altium Designer,21.0.8 (223)*
G04*
G04 Layer_Color=16711935*
%FSLAX25Y25*%
%MOIN*%
G70*
G04*
G04 #@! TF.SameCoordinates,22837C2A-C745-47FE-8211-02B0961AEF73*
G04*
G04*
G04 #@! TF.FilePolarity,Negative*
G04*
G01*
G75*
%ADD48R,0.04528X0.04528*%
%ADD49C,0.04528*%
%ADD50C,0.07284*%
%ADD51P,0.07884X8X292.5*%
%ADD52C,0.07677*%
G04:AMPARAMS|DCode=53|XSize=76.77mil|YSize=76.77mil|CornerRadius=20.67mil|HoleSize=0mil|Usage=FLASHONLY|Rotation=90.000|XOffset=0mil|YOffset=0mil|HoleType=Round|Shape=RoundedRectangle|*
%AMROUNDEDRECTD53*
21,1,0.07677,0.03543,0,0,90.0*
21,1,0.03543,0.07677,0,0,90.0*
1,1,0.04134,0.01772,0.01772*
1,1,0.04134,0.01772,-0.01772*
1,1,0.04134,-0.01772,-0.01772*
1,1,0.04134,-0.01772,0.01772*
%
%ADD53ROUNDEDRECTD53*%
%ADD54C,0.05709*%
G04:AMPARAMS|DCode=55|XSize=57.09mil|YSize=57.09mil|CornerRadius=15.75mil|HoleSize=0mil|Usage=FLASHONLY|Rotation=180.000|XOffset=0mil|YOffset=0mil|HoleType=Round|Shape=RoundedRectangle|*
%AMROUNDEDRECTD55*
21,1,0.05709,0.02559,0,0,180.0*
21,1,0.02559,0.05709,0,0,180.0*
1,1,0.03150,-0.01280,0.01280*
1,1,0.03150,0.01280,0.01280*
1,1,0.03150,0.01280,-0.01280*
1,1,0.03150,-0.01280,-0.01280*
%
%ADD55ROUNDEDRECTD55*%
G04:AMPARAMS|DCode=56|XSize=68.9mil|YSize=68.9mil|CornerRadius=18.7mil|HoleSize=0mil|Usage=FLASHONLY|Rotation=180.000|XOffset=0mil|YOffset=0mil|HoleType=Round|Shape=RoundedRectangle|*
%AMROUNDEDRECTD56*
21,1,0.06890,0.03150,0,0,180.0*
21,1,0.03150,0.06890,0,0,180.0*
1,1,0.03740,-0.01575,0.01575*
1,1,0.03740,0.01575,0.01575*
1,1,0.03740,0.01575,-0.01575*
1,1,0.03740,-0.01575,-0.01575*
%
%ADD56ROUNDEDRECTD56*%
%ADD57C,0.06890*%
%ADD58C,0.07087*%
%ADD98R,0.05191X0.06891*%
D48*
X172480Y54134D02*
D03*
D49*
X191693D02*
D03*
D50*
X266614Y21142D02*
D03*
Y41142D02*
D03*
Y31142D02*
D03*
X256614Y21142D02*
D03*
Y31142D02*
D03*
X266614Y61142D02*
D03*
X256614Y51142D02*
D03*
X266614D02*
D03*
X256614Y41142D02*
D03*
X18622Y161732D02*
D03*
Y141732D02*
D03*
Y151732D02*
D03*
X28622Y161732D02*
D03*
Y151732D02*
D03*
X18622Y121732D02*
D03*
X28622Y131732D02*
D03*
X18622D02*
D03*
X28622Y141732D02*
D03*
X18622Y77087D02*
D03*
Y57087D02*
D03*
Y67087D02*
D03*
X28622Y77087D02*
D03*
Y67087D02*
D03*
X18622Y37087D02*
D03*
X28622Y47087D02*
D03*
X18622D02*
D03*
X28622Y57087D02*
D03*
D51*
X256614Y61142D02*
D03*
X28622Y121732D02*
D03*
Y37087D02*
D03*
D52*
X266929Y149803D02*
D03*
D53*
Y136024D02*
D03*
D54*
X135039Y165354D02*
D03*
X142913D02*
D03*
X150787D02*
D03*
X197441Y165551D02*
D03*
X205315D02*
D03*
X189567D02*
D03*
X181693D02*
D03*
X173819D02*
D03*
D55*
X158661Y165354D02*
D03*
X213189Y165551D02*
D03*
D56*
X197402Y12598D02*
D03*
X219016D02*
D03*
D57*
X187402D02*
D03*
X177402D02*
D03*
X229016D02*
D03*
D58*
X267717Y167323D02*
D03*
X15748Y9843D02*
D03*
D98*
X234157Y141339D02*
D03*
X240158D02*
D03*
X246158D02*
D03*
X234157Y154724D02*
D03*
X240158D02*
D03*
X246158D02*
D03*
M02*
