M48
;Layer_Color=9474304
;FILE_FORMAT=4:4
METRIC
;TYPE=PLATED
T1F00S00C0.3000
T2F00S00C0.5000
T3F00S00C0.6500
T4F00S00C0.8000
T5F00S00C1.1000
T6F00S00C1.2000
%
T01
X00388297Y00382703
X00572556Y00360556
X00588000Y00360000
X00838000Y00385000
X00853000Y00341000
X00855000Y00309000
X00844000Y00410000
X00852000Y00435000
X00852141Y00467141
X00842000Y00458000
X00831287Y00448287
X00814000Y00449000
X00832000Y00500557
X00834000Y00520000
X00833713Y00547713
X00884000Y00540000
X00885000Y00503000
X00884904Y00478096
X00847000Y00608000
X00821937Y00618125
X00822500Y00597000
X00789250Y00596250
X00779000Y00606000
X00760000Y00642000
X00716096Y00642904
X00735000Y00667000
X00773404Y00556596
X00774000Y00548000
X00645000Y00556688
X00632000Y00557000
X00638000Y00581500
X00609000Y00578000
X00603000Y00588000
Y00564000
X00579000Y00556000
X00564000Y00566000
X00548000
X00621000Y00493000
X00650000Y00497000
X00663416Y00500771
X00634000Y00438000
X00622000Y00421000
X00605000Y00404000
X00388000Y00426000
X00392000Y00482300
X00382300Y00532828
T02
X00454500Y00369500
X00820500Y00464500
X00722500Y00490500
X00711000Y00535000
X00740000Y00540000
X00688540Y00585460
X00677000Y00628000
X00770500Y00615500
X00545510Y00584051
X00485000Y00585000
X00503500Y00544500
X00434000Y00531000
X00571500Y00495500
X00535000Y00421000
X00635500Y00409500
X00473500Y00666500
T03
X00700600Y00405000
X00749400
T04
X00804000Y00688000
X00784000
X00764000
X00744000
X00724000
X00704000
X00665500Y00687500
X00645500
X00625500
X00605500
T05
X00299800Y00361700
X00325200
Y00387100
X00299800
X00740600Y00299000
X00766000
X00791400
X00940000Y00297600
Y00335700
Y00373800
Y00411900
Y00450000
Y00488100
Y00526200
X00872700Y00688000
X00847300
X00325200Y00678300
X00299800
Y00652900
Y00627500
Y00602100
Y00576700
X00325200
Y00602100
Y00627500
Y00652900
Y00463300
X00299800
Y00437900
Y00412500
X00325200
Y00437900
T06
X00939000Y00637500
Y00672500
M30
