G04*
G04 #@! TF.GenerationSoftware,Altium Limited,Altium Designer,21.0.8 (223)*
G04*
G04 Layer_Physical_Order=2*
G04 Layer_Color=16711680*
%FSLAX24Y24*%
%MOIN*%
G70*
G04*
G04 #@! TF.SameCoordinates,FDC07EFC-1B29-4822-A7E3-1CBBEB92D143*
G04*
G04*
G04 #@! TF.FilePolarity,Positive*
G04*
G01*
G75*
%ADD69C,0.0669*%
%ADD76R,0.0453X0.0453*%
%ADD77C,0.0453*%
%ADD80C,0.0157*%
%ADD82C,0.0315*%
%ADD83C,0.0197*%
%ADD84C,0.0118*%
%ADD85C,0.0276*%
%ADD86C,0.0260*%
%ADD87C,0.0630*%
G04:AMPARAMS|DCode=88|XSize=63mil|YSize=63mil|CornerRadius=15.7mil|HoleSize=0mil|Usage=FLASHONLY|Rotation=90.000|XOffset=0mil|YOffset=0mil|HoleType=Round|Shape=RoundedRectangle|*
%AMROUNDEDRECTD88*
21,1,0.0630,0.0315,0,0,90.0*
21,1,0.0315,0.0630,0,0,90.0*
1,1,0.0315,0.0157,0.0157*
1,1,0.0315,0.0157,-0.0157*
1,1,0.0315,-0.0157,-0.0157*
1,1,0.0315,-0.0157,0.0157*
%
%ADD88ROUNDEDRECTD88*%
%ADD89P,0.0724X8X112.5*%
G04:AMPARAMS|DCode=90|XSize=63mil|YSize=63mil|CornerRadius=15.7mil|HoleSize=0mil|Usage=FLASHONLY|Rotation=180.000|XOffset=0mil|YOffset=0mil|HoleType=Round|Shape=RoundedRectangle|*
%AMROUNDEDRECTD90*
21,1,0.0630,0.0315,0,0,180.0*
21,1,0.0315,0.0630,0,0,180.0*
1,1,0.0315,-0.0157,0.0157*
1,1,0.0315,0.0157,0.0157*
1,1,0.0315,0.0157,-0.0157*
1,1,0.0315,-0.0157,-0.0157*
%
%ADD90ROUNDEDRECTD90*%
%ADD91C,0.0512*%
G04:AMPARAMS|DCode=92|XSize=51.2mil|YSize=51.2mil|CornerRadius=12.8mil|HoleSize=0mil|Usage=FLASHONLY|Rotation=180.000|XOffset=0mil|YOffset=0mil|HoleType=Round|Shape=RoundedRectangle|*
%AMROUNDEDRECTD92*
21,1,0.0512,0.0256,0,0,180.0*
21,1,0.0256,0.0512,0,0,180.0*
1,1,0.0256,-0.0128,0.0128*
1,1,0.0256,0.0128,0.0128*
1,1,0.0256,0.0128,-0.0128*
1,1,0.0256,-0.0128,-0.0128*
%
%ADD92ROUNDEDRECTD92*%
%ADD93C,0.0650*%
G04:AMPARAMS|DCode=94|XSize=65mil|YSize=65mil|CornerRadius=16.2mil|HoleSize=0mil|Usage=FLASHONLY|Rotation=90.000|XOffset=0mil|YOffset=0mil|HoleType=Round|Shape=RoundedRectangle|*
%AMROUNDEDRECTD94*
21,1,0.0650,0.0325,0,0,90.0*
21,1,0.0325,0.0650,0,0,90.0*
1,1,0.0325,0.0162,0.0162*
1,1,0.0325,0.0162,-0.0162*
1,1,0.0325,-0.0162,-0.0162*
1,1,0.0325,-0.0162,0.0162*
%
%ADD94ROUNDEDRECTD94*%
%ADD95C,0.0236*%
%ADD96C,0.0394*%
G36*
X28543Y197D02*
X197Y197D01*
X197Y17913D01*
X28543Y17913D01*
X28543Y197D01*
D02*
G37*
%LPC*%
G36*
X14749Y17126D02*
X14736D01*
Y16772D01*
X15091D01*
Y16784D01*
X15064Y16884D01*
X15012Y16974D01*
X14939Y17047D01*
X14849Y17099D01*
X14749Y17126D01*
D02*
G37*
G36*
X22052Y17067D02*
X22047D01*
Y16772D01*
X22343D01*
Y16776D01*
X22320Y16861D01*
X22276Y16938D01*
X22213Y17000D01*
X22137Y17044D01*
X22052Y17067D01*
D02*
G37*
G36*
X21969D02*
X21964D01*
X21879Y17044D01*
X21802Y17000D01*
X21740Y16938D01*
X21696Y16861D01*
X21673Y16776D01*
Y16772D01*
X21969D01*
Y17067D01*
D02*
G37*
G36*
X14657Y17126D02*
X14645D01*
X14545Y17099D01*
X14455Y17047D01*
X14382Y16974D01*
X14330Y16884D01*
X14303Y16784D01*
Y16772D01*
X14657D01*
Y17126D01*
D02*
G37*
G36*
X27225Y17736D02*
X27105D01*
X26987Y17713D01*
X26876Y17667D01*
X26776Y17600D01*
X26691Y17515D01*
X26625Y17415D01*
X26579Y17304D01*
X26555Y17186D01*
Y17066D01*
X26579Y16948D01*
X26625Y16837D01*
X26691Y16737D01*
X26776Y16652D01*
X26876Y16585D01*
X26987Y16539D01*
X27105Y16516D01*
X27225D01*
X27343Y16539D01*
X27454Y16585D01*
X27554Y16652D01*
X27639Y16737D01*
X27706Y16837D01*
X27752Y16948D01*
X27776Y17066D01*
Y17186D01*
X27752Y17304D01*
X27706Y17415D01*
X27639Y17515D01*
X27554Y17600D01*
X27454Y17667D01*
X27343Y17713D01*
X27225Y17736D01*
D02*
G37*
G36*
X22343Y16693D02*
X22047D01*
Y16398D01*
X22052D01*
X22137Y16420D01*
X22213Y16465D01*
X22276Y16527D01*
X22320Y16603D01*
X22343Y16688D01*
Y16693D01*
D02*
G37*
G36*
X21969D02*
X21673D01*
Y16688D01*
X21696Y16603D01*
X21740Y16527D01*
X21802Y16465D01*
X21879Y16420D01*
X21964Y16398D01*
X21969D01*
Y16693D01*
D02*
G37*
G36*
X20477Y17067D02*
X20389D01*
X20304Y17044D01*
X20228Y17000D01*
X20165Y16938D01*
X20121Y16861D01*
X20098Y16776D01*
Y16688D01*
X20121Y16603D01*
X20165Y16527D01*
X20228Y16465D01*
X20304Y16420D01*
X20389Y16398D01*
X20477D01*
X20562Y16420D01*
X20639Y16465D01*
X20701Y16527D01*
X20745Y16603D01*
X20768Y16688D01*
Y16776D01*
X20745Y16861D01*
X20701Y16938D01*
X20639Y17000D01*
X20562Y17044D01*
X20477Y17067D01*
D02*
G37*
G36*
X19690D02*
X19602D01*
X19517Y17044D01*
X19440Y17000D01*
X19378Y16938D01*
X19334Y16861D01*
X19311Y16776D01*
Y16688D01*
X19334Y16603D01*
X19378Y16527D01*
X19440Y16465D01*
X19517Y16420D01*
X19602Y16398D01*
X19690D01*
X19775Y16420D01*
X19851Y16465D01*
X19913Y16527D01*
X19958Y16603D01*
X19980Y16688D01*
Y16776D01*
X19958Y16861D01*
X19913Y16938D01*
X19851Y17000D01*
X19775Y17044D01*
X19690Y17067D01*
D02*
G37*
G36*
X18902D02*
X18814D01*
X18729Y17044D01*
X18653Y17000D01*
X18590Y16938D01*
X18546Y16861D01*
X18524Y16776D01*
Y16688D01*
X18546Y16603D01*
X18590Y16527D01*
X18653Y16465D01*
X18729Y16420D01*
X18814Y16398D01*
X18902D01*
X18987Y16420D01*
X19064Y16465D01*
X19126Y16527D01*
X19170Y16603D01*
X19193Y16688D01*
Y16776D01*
X19170Y16861D01*
X19126Y16938D01*
X19064Y17000D01*
X18987Y17044D01*
X18902Y17067D01*
D02*
G37*
G36*
X22923Y17071D02*
X22667D01*
X22587Y17055D01*
X22518Y17009D01*
X22473Y16941D01*
X22457Y16860D01*
Y16604D01*
X22473Y16524D01*
X22518Y16455D01*
X22587Y16410D01*
X22667Y16394D01*
X22923D01*
X23004Y16410D01*
X23072Y16455D01*
X23118Y16524D01*
X23134Y16604D01*
Y16860D01*
X23118Y16941D01*
X23072Y17009D01*
X23004Y17055D01*
X22923Y17071D01*
D02*
G37*
G36*
X15749Y17126D02*
X15645D01*
X15545Y17099D01*
X15455Y17047D01*
X15382Y16974D01*
X15330Y16884D01*
X15303Y16784D01*
Y16680D01*
X15330Y16580D01*
X15382Y16491D01*
X15455Y16417D01*
X15545Y16365D01*
X15645Y16339D01*
X15749D01*
X15849Y16365D01*
X15939Y16417D01*
X16012Y16491D01*
X16064Y16580D01*
X16091Y16680D01*
Y16784D01*
X16064Y16884D01*
X16012Y16974D01*
X15939Y17047D01*
X15849Y17099D01*
X15749Y17126D01*
D02*
G37*
G36*
X15091Y16693D02*
X14736D01*
Y16339D01*
X14749D01*
X14849Y16365D01*
X14939Y16417D01*
X15012Y16491D01*
X15064Y16580D01*
X15091Y16680D01*
Y16693D01*
D02*
G37*
G36*
X14657D02*
X14303D01*
Y16680D01*
X14330Y16580D01*
X14382Y16491D01*
X14455Y16417D01*
X14545Y16365D01*
X14645Y16339D01*
X14657D01*
Y16693D01*
D02*
G37*
G36*
X16854Y17131D02*
X16539D01*
X16447Y17112D01*
X16369Y17060D01*
X16317Y16982D01*
X16299Y16890D01*
Y16575D01*
X16317Y16483D01*
X16369Y16405D01*
X16447Y16352D01*
X16539Y16334D01*
X16854D01*
X16947Y16352D01*
X17025Y16405D01*
X17077Y16483D01*
X17095Y16575D01*
Y16890D01*
X17077Y16982D01*
X17025Y17060D01*
X16947Y17112D01*
X16854Y17131D01*
D02*
G37*
G36*
X3310Y16587D02*
X3295D01*
Y16213D01*
X3669D01*
Y16228D01*
X3641Y16333D01*
X3587Y16427D01*
X3510Y16504D01*
X3415Y16558D01*
X3310Y16587D01*
D02*
G37*
G36*
X3217D02*
X3201D01*
X3096Y16558D01*
X3002Y16504D01*
X2925Y16427D01*
X2871Y16333D01*
X2843Y16228D01*
Y16213D01*
X3217D01*
Y16587D01*
D02*
G37*
G36*
X3669Y16134D02*
X3295D01*
Y15760D01*
X3310D01*
X3415Y15788D01*
X3510Y15842D01*
X3587Y15919D01*
X3641Y16014D01*
X3669Y16119D01*
Y16134D01*
D02*
G37*
G36*
X3217D02*
X2843D01*
Y16119D01*
X2871Y16014D01*
X2925Y15919D01*
X3002Y15842D01*
X3096Y15788D01*
X3201Y15760D01*
X3217D01*
Y16134D01*
D02*
G37*
G36*
X2310Y16587D02*
X2201D01*
X2096Y16558D01*
X2002Y16504D01*
X1925Y16427D01*
X1871Y16333D01*
X1843Y16228D01*
Y16119D01*
X1871Y16014D01*
X1925Y15919D01*
X2002Y15842D01*
X2096Y15788D01*
X2201Y15760D01*
X2310D01*
X2415Y15788D01*
X2510Y15842D01*
X2587Y15919D01*
X2641Y16014D01*
X2669Y16119D01*
Y16228D01*
X2641Y16333D01*
X2587Y16427D01*
X2510Y16504D01*
X2415Y16558D01*
X2310Y16587D01*
D02*
G37*
G36*
X3310Y15587D02*
X3295D01*
Y15213D01*
X3669D01*
Y15228D01*
X3641Y15333D01*
X3587Y15427D01*
X3510Y15504D01*
X3415Y15558D01*
X3310Y15587D01*
D02*
G37*
G36*
X3217D02*
X3201D01*
X3096Y15558D01*
X3002Y15504D01*
X2925Y15427D01*
X2871Y15333D01*
X2843Y15228D01*
Y15213D01*
X3217D01*
Y15587D01*
D02*
G37*
G36*
X27327Y15659D02*
X27220D01*
X27118Y15632D01*
X27026Y15579D01*
X26951Y15504D01*
X26898Y15412D01*
X26870Y15309D01*
Y15203D01*
X26898Y15100D01*
X26951Y15008D01*
X27026Y14933D01*
X27118Y14880D01*
X27220Y14852D01*
X27327D01*
X27429Y14880D01*
X27521Y14933D01*
X27597Y15008D01*
X27650Y15100D01*
X27677Y15203D01*
Y15309D01*
X27650Y15412D01*
X27597Y15504D01*
X27521Y15579D01*
X27429Y15632D01*
X27327Y15659D01*
D02*
G37*
G36*
X3669Y15134D02*
X3295D01*
Y14760D01*
X3310D01*
X3415Y14788D01*
X3510Y14842D01*
X3587Y14919D01*
X3641Y15014D01*
X3669Y15119D01*
Y15134D01*
D02*
G37*
G36*
X3217D02*
X2843D01*
Y15119D01*
X2871Y15014D01*
X2925Y14919D01*
X3002Y14842D01*
X3096Y14788D01*
X3201Y14760D01*
X3217D01*
Y15134D01*
D02*
G37*
G36*
X2310Y15587D02*
X2201D01*
X2096Y15558D01*
X2002Y15504D01*
X1925Y15427D01*
X1871Y15334D01*
X1394D01*
X1332Y15322D01*
X1280Y15287D01*
X1280Y15287D01*
X949Y14956D01*
X915Y14904D01*
X902Y14843D01*
X902Y14843D01*
Y7902D01*
X902Y7902D01*
X915Y7840D01*
X949Y7788D01*
X1882Y6855D01*
X1881Y6853D01*
X1854Y6753D01*
Y6649D01*
X1879Y6558D01*
X949Y5629D01*
X915Y5577D01*
X902Y5516D01*
X902Y5516D01*
Y5236D01*
X896Y5230D01*
X866Y5157D01*
Y5079D01*
X896Y5007D01*
X951Y4951D01*
X1024Y4921D01*
X1102D01*
X1174Y4951D01*
X1230Y5007D01*
X1260Y5079D01*
Y5157D01*
X1230Y5230D01*
X1224Y5236D01*
Y5449D01*
X2106Y6331D01*
X2196Y6307D01*
X2300D01*
X2400Y6334D01*
X2490Y6386D01*
X2563Y6459D01*
X2615Y6549D01*
X2642Y6649D01*
Y6753D01*
X2615Y6853D01*
X2563Y6943D01*
X2490Y7016D01*
X2400Y7068D01*
X2300Y7094D01*
X2196D01*
X2118Y7074D01*
X1224Y7968D01*
Y14776D01*
X1460Y15013D01*
X1871D01*
X1925Y14919D01*
X2002Y14842D01*
X2096Y14788D01*
X2201Y14760D01*
X2310D01*
X2415Y14788D01*
X2510Y14842D01*
X2587Y14919D01*
X2641Y15014D01*
X2669Y15119D01*
Y15228D01*
X2641Y15333D01*
X2587Y15427D01*
X2510Y15504D01*
X2415Y15558D01*
X2310Y15587D01*
D02*
G37*
G36*
X21265Y17067D02*
X21176D01*
X21091Y17044D01*
X21015Y17000D01*
X20953Y16938D01*
X20909Y16861D01*
X20886Y16776D01*
Y16688D01*
X20909Y16603D01*
X20953Y16527D01*
X21015Y16465D01*
X21080Y16427D01*
Y15403D01*
X20264Y14587D01*
X20227D01*
X20154Y14557D01*
X20099Y14501D01*
X20069Y14429D01*
Y14351D01*
X20099Y14278D01*
X20154Y14223D01*
X20227Y14193D01*
X20305D01*
X20377Y14223D01*
X20433Y14278D01*
X20463Y14351D01*
Y14388D01*
X21320Y15245D01*
X21350Y15291D01*
X21361Y15344D01*
Y16427D01*
X21426Y16465D01*
X21488Y16527D01*
X21532Y16603D01*
X21555Y16688D01*
Y16776D01*
X21532Y16861D01*
X21488Y16938D01*
X21426Y17000D01*
X21350Y17044D01*
X21265Y17067D01*
D02*
G37*
G36*
X2310Y14587D02*
X2201D01*
X2096Y14558D01*
X2002Y14504D01*
X1925Y14427D01*
X1871Y14333D01*
X1843Y14228D01*
Y14119D01*
X1871Y14014D01*
X1925Y13919D01*
X2002Y13842D01*
X2096Y13788D01*
X2201Y13760D01*
X2310D01*
X2415Y13788D01*
X2510Y13842D01*
X2587Y13919D01*
X2641Y14014D01*
X2669Y14119D01*
Y14228D01*
X2641Y14333D01*
X2587Y14427D01*
X2510Y14504D01*
X2415Y14558D01*
X2310Y14587D01*
D02*
G37*
G36*
X27327Y14282D02*
X27220D01*
X27118Y14254D01*
X27026Y14201D01*
X26951Y14126D01*
X26898Y14034D01*
X26870Y13931D01*
Y13825D01*
X26898Y13722D01*
X26951Y13630D01*
X27026Y13555D01*
X27118Y13502D01*
X27220Y13474D01*
X27327D01*
X27429Y13502D01*
X27521Y13555D01*
X27597Y13630D01*
X27650Y13722D01*
X27677Y13825D01*
Y13931D01*
X27650Y14034D01*
X27597Y14126D01*
X27521Y14201D01*
X27429Y14254D01*
X27327Y14282D01*
D02*
G37*
G36*
X24252Y13553D02*
X24173D01*
X24101Y13523D01*
X24046Y13468D01*
X24044Y13464D01*
X23994D01*
X23992Y13468D01*
X23937Y13523D01*
X23865Y13553D01*
X23786D01*
X23714Y13523D01*
X23659Y13468D01*
X23657Y13464D01*
X23607D01*
X23605Y13468D01*
X23550Y13523D01*
X23477Y13553D01*
X23399D01*
X23327Y13523D01*
X23286Y13482D01*
X23255Y13473D01*
X23223Y13482D01*
X23182Y13523D01*
X23110Y13553D01*
X23032D01*
X22959Y13523D01*
X22904Y13468D01*
X22874Y13395D01*
Y13358D01*
X22745Y13229D01*
X22715Y13184D01*
X22704Y13130D01*
Y4931D01*
X22678Y4905D01*
X22648Y4832D01*
Y4754D01*
X22678Y4682D01*
X22733Y4626D01*
X22805Y4596D01*
X22843D01*
X23956Y3483D01*
X24001Y3453D01*
X24055Y3442D01*
X27677D01*
X27731Y3453D01*
X27777Y3483D01*
X28091Y3798D01*
X28122Y3844D01*
X28133Y3898D01*
Y4892D01*
X28122Y4945D01*
X28091Y4991D01*
X27642Y5441D01*
X27650Y5454D01*
X27677Y5557D01*
Y5663D01*
X27650Y5766D01*
X27597Y5858D01*
X27521Y5933D01*
X27429Y5986D01*
X27327Y6014D01*
X27220D01*
X27118Y5986D01*
X27026Y5933D01*
X26951Y5858D01*
X26898Y5766D01*
X26870Y5663D01*
Y5557D01*
X26898Y5454D01*
X26951Y5362D01*
X27026Y5287D01*
X27118Y5234D01*
X27220Y5207D01*
X27327D01*
X27429Y5234D01*
X27443Y5242D01*
X27852Y4834D01*
Y3956D01*
X27619Y3723D01*
X24113D01*
X23041Y4795D01*
Y4832D01*
X23011Y4905D01*
X22985Y4931D01*
Y13072D01*
X23073Y13159D01*
X23110D01*
X23182Y13189D01*
X23223Y13230D01*
X23255Y13240D01*
X23286Y13230D01*
X23298Y13218D01*
Y5017D01*
X23309Y4964D01*
X23339Y4918D01*
X23435Y4822D01*
Y4754D01*
X23465Y4682D01*
X23520Y4626D01*
X23593Y4596D01*
X23630D01*
X24310Y3916D01*
X24356Y3886D01*
X24409Y3875D01*
X26860D01*
X26914Y3886D01*
X26959Y3916D01*
X26989Y3946D01*
X27026Y3909D01*
X27118Y3856D01*
X27220Y3829D01*
X27327D01*
X27429Y3856D01*
X27521Y3909D01*
X27597Y3984D01*
X27650Y4077D01*
X27677Y4179D01*
Y4285D01*
X27650Y4388D01*
X27597Y4480D01*
X27521Y4555D01*
X27429Y4608D01*
X27327Y4636D01*
X27220D01*
X27118Y4608D01*
X27026Y4555D01*
X26951Y4480D01*
X26898Y4388D01*
X26870Y4285D01*
Y4225D01*
X26802Y4156D01*
X24468D01*
X23829Y4795D01*
Y4832D01*
X23799Y4905D01*
X23743Y4960D01*
X23671Y4990D01*
X23664D01*
X23579Y5076D01*
Y13218D01*
X23601Y13241D01*
X23654Y13242D01*
X23685Y13210D01*
Y5387D01*
X23696Y5333D01*
X23726Y5288D01*
X24222Y4791D01*
Y4754D01*
X24252Y4682D01*
X24308Y4626D01*
X24380Y4596D01*
X24417D01*
X24704Y4310D01*
X24749Y4280D01*
X24803Y4269D01*
X25827D01*
X25881Y4280D01*
X25926Y4310D01*
X26438Y4822D01*
X26468Y4868D01*
X26479Y4921D01*
Y5729D01*
X26909Y6159D01*
X27677D01*
X27731Y6169D01*
X27777Y6200D01*
X28091Y6515D01*
X28122Y6560D01*
X28133Y6614D01*
Y7756D01*
X28122Y7810D01*
X28091Y7855D01*
X27668Y8279D01*
X27677Y8313D01*
Y8419D01*
X27650Y8522D01*
X27597Y8614D01*
X27521Y8689D01*
X27429Y8742D01*
X27327Y8770D01*
X27220D01*
X27118Y8742D01*
X27026Y8689D01*
X26951Y8614D01*
X26898Y8522D01*
X26870Y8419D01*
Y8313D01*
X26898Y8210D01*
X26951Y8118D01*
X27026Y8043D01*
X27118Y7990D01*
X27220Y7963D01*
X27327D01*
X27429Y7990D01*
X27512Y8038D01*
X27852Y7698D01*
Y6672D01*
X27619Y6440D01*
X26850D01*
X26797Y6429D01*
X26751Y6399D01*
X26239Y5887D01*
X26209Y5841D01*
X26198Y5787D01*
Y4979D01*
X25769Y4550D01*
X25254D01*
X25246Y4596D01*
X25318Y4626D01*
X25347Y4655D01*
X25457D01*
X25510Y4666D01*
X25556Y4696D01*
X25887Y5027D01*
X25917Y5072D01*
X25928Y5126D01*
Y6202D01*
X26574Y6848D01*
X26893D01*
X26898Y6832D01*
X26951Y6740D01*
X27026Y6665D01*
X27118Y6612D01*
X27220Y6585D01*
X27327D01*
X27429Y6612D01*
X27521Y6665D01*
X27597Y6740D01*
X27650Y6832D01*
X27677Y6935D01*
Y7041D01*
X27650Y7144D01*
X27597Y7236D01*
X27521Y7311D01*
X27429Y7364D01*
X27327Y7392D01*
X27220D01*
X27118Y7364D01*
X27026Y7311D01*
X26951Y7236D01*
X26898Y7144D01*
X26893Y7129D01*
X26516D01*
X26462Y7118D01*
X26416Y7088D01*
X25688Y6359D01*
X25658Y6314D01*
X25647Y6260D01*
Y5184D01*
X25398Y4936D01*
X25342D01*
X25318Y4960D01*
X25246Y4990D01*
X25168D01*
X25095Y4960D01*
X25088Y4953D01*
X24353Y5688D01*
Y13218D01*
X24379Y13245D01*
X24409Y13317D01*
Y13395D01*
X24379Y13468D01*
X24324Y13523D01*
X24252Y13553D01*
D02*
G37*
G36*
X3310Y13587D02*
X3201D01*
X3096Y13558D01*
X3002Y13504D01*
X2925Y13427D01*
X2871Y13333D01*
X2843Y13228D01*
Y13119D01*
X2871Y13014D01*
X2925Y12919D01*
X3002Y12842D01*
X3096Y12788D01*
X3201Y12760D01*
X3310D01*
X3415Y12788D01*
X3510Y12842D01*
X3587Y12919D01*
X3641Y13014D01*
X3669Y13119D01*
Y13228D01*
X3641Y13333D01*
X3587Y13427D01*
X3510Y13504D01*
X3415Y13558D01*
X3310Y13587D01*
D02*
G37*
G36*
X2310D02*
X2201D01*
X2096Y13558D01*
X2002Y13504D01*
X1925Y13427D01*
X1871Y13333D01*
X1843Y13228D01*
Y13119D01*
X1871Y13014D01*
X1925Y12919D01*
X2002Y12842D01*
X2096Y12788D01*
X2201Y12760D01*
X2310D01*
X2415Y12788D01*
X2510Y12842D01*
X2587Y12919D01*
X2641Y13014D01*
X2669Y13119D01*
Y13228D01*
X2641Y13333D01*
X2587Y13427D01*
X2510Y13504D01*
X2415Y13558D01*
X2310Y13587D01*
D02*
G37*
G36*
X16611Y14606D02*
X16539D01*
X16468Y14588D01*
X16406Y14551D01*
X16354Y14500D01*
X16318Y14437D01*
X16299Y14367D01*
Y14294D01*
X16318Y14224D01*
X16354Y14162D01*
Y13169D01*
X16371Y13085D01*
X16419Y13013D01*
X16870Y12562D01*
X16889Y12492D01*
X16925Y12429D01*
X16976Y12378D01*
X17039Y12342D01*
X17109Y12323D01*
X17182D01*
X17252Y12342D01*
X17315Y12378D01*
X17366Y12429D01*
X17402Y12492D01*
X17421Y12562D01*
Y12635D01*
X17402Y12705D01*
X17366Y12768D01*
X17315Y12819D01*
X17252Y12855D01*
X17182Y12874D01*
X16796Y13261D01*
Y14162D01*
X16832Y14224D01*
X16850Y14294D01*
Y14367D01*
X16832Y14437D01*
X16795Y14500D01*
X16744Y14551D01*
X16681Y14588D01*
X16611Y14606D01*
D02*
G37*
G36*
X14370Y15945D02*
X14292D01*
X14219Y15915D01*
X14164Y15860D01*
X14134Y15787D01*
Y15709D01*
X14134Y15709D01*
X14122Y15691D01*
X14111Y15637D01*
Y14528D01*
X14122Y14474D01*
X14153Y14428D01*
X15017Y13564D01*
Y12598D01*
X15028Y12545D01*
X15058Y12499D01*
X15341Y12216D01*
X15387Y12185D01*
X15441Y12175D01*
X15441D01*
X15489Y12127D01*
X15561Y12097D01*
X15640D01*
X15712Y12127D01*
X15767Y12182D01*
X15797Y12254D01*
Y12333D01*
X15767Y12405D01*
X15712Y12460D01*
X15640Y12490D01*
X15561D01*
X15493Y12462D01*
X15298Y12657D01*
Y13622D01*
X15287Y13676D01*
X15257Y13721D01*
X14392Y14586D01*
Y15561D01*
X14442Y15581D01*
X14498Y15637D01*
X14528Y15709D01*
Y15787D01*
X14498Y15860D01*
X14442Y15915D01*
X14370Y15945D01*
D02*
G37*
G36*
X27327Y12904D02*
X27220D01*
X27118Y12876D01*
X27026Y12823D01*
X26951Y12748D01*
X26898Y12656D01*
X26870Y12553D01*
Y12447D01*
X26898Y12344D01*
X26951Y12252D01*
X27026Y12177D01*
X27118Y12124D01*
X27220Y12096D01*
X27327D01*
X27429Y12124D01*
X27521Y12177D01*
X27597Y12252D01*
X27650Y12344D01*
X27677Y12447D01*
Y12553D01*
X27650Y12656D01*
X27597Y12748D01*
X27521Y12823D01*
X27429Y12876D01*
X27327Y12904D01*
D02*
G37*
G36*
X2310Y12587D02*
X2201D01*
X2096Y12558D01*
X2002Y12504D01*
X1925Y12427D01*
X1871Y12333D01*
X1843Y12228D01*
Y12119D01*
X1871Y12014D01*
X1925Y11919D01*
X2002Y11842D01*
X2096Y11788D01*
X2201Y11760D01*
X2310D01*
X2415Y11788D01*
X2510Y11842D01*
X2587Y11919D01*
X2641Y12014D01*
X2669Y12119D01*
Y12228D01*
X2641Y12333D01*
X2587Y12427D01*
X2510Y12504D01*
X2415Y12558D01*
X2310Y12587D01*
D02*
G37*
G36*
X14370Y13425D02*
X14292D01*
X14219Y13395D01*
X14164Y13340D01*
X14134Y13268D01*
Y13189D01*
X14164Y13117D01*
X14219Y13061D01*
X14229Y13057D01*
Y11496D01*
X14213Y11456D01*
Y11378D01*
X14243Y11306D01*
X14298Y11250D01*
X14370Y11220D01*
X14449D01*
X14521Y11250D01*
X14576Y11306D01*
X14606Y11378D01*
Y11456D01*
X14590Y11496D01*
Y13139D01*
X14576Y13208D01*
X14537Y13267D01*
X14521Y13283D01*
X14498Y13340D01*
X14442Y13395D01*
X14370Y13425D01*
D02*
G37*
G36*
X27327Y11526D02*
X27220D01*
X27118Y11498D01*
X27026Y11445D01*
X26951Y11370D01*
X26898Y11278D01*
X26870Y11175D01*
Y11069D01*
X26898Y10966D01*
X26951Y10874D01*
X27026Y10799D01*
X27118Y10746D01*
X27220Y10718D01*
X27327D01*
X27429Y10746D01*
X27521Y10799D01*
X27597Y10874D01*
X27650Y10966D01*
X27677Y11069D01*
Y11175D01*
X27650Y11278D01*
X27597Y11370D01*
X27521Y11445D01*
X27429Y11498D01*
X27327Y11526D01*
D02*
G37*
G36*
Y10148D02*
X27220D01*
X27118Y10120D01*
X27026Y10067D01*
X26951Y9992D01*
X26898Y9900D01*
X26870Y9797D01*
Y9691D01*
X26898Y9588D01*
X26951Y9496D01*
X27026Y9421D01*
X27118Y9368D01*
X27220Y9341D01*
X27327D01*
X27429Y9368D01*
X27521Y9421D01*
X27597Y9496D01*
X27650Y9588D01*
X27677Y9691D01*
Y9797D01*
X27650Y9900D01*
X27597Y9992D01*
X27521Y10067D01*
X27429Y10120D01*
X27327Y10148D01*
D02*
G37*
G36*
X3463Y12587D02*
X3049D01*
X2843Y12380D01*
Y11967D01*
X3049Y11760D01*
X3101D01*
Y9332D01*
X3101Y9332D01*
X3071Y9259D01*
Y9181D01*
X3101Y9108D01*
X3156Y9053D01*
X3229Y9023D01*
X3307D01*
X3379Y9053D01*
X3435Y9108D01*
X3465Y9181D01*
Y9259D01*
X3435Y9332D01*
X3422Y9344D01*
Y11760D01*
X3463D01*
X3669Y11967D01*
Y12380D01*
X3463Y12587D01*
D02*
G37*
G36*
X13749Y17126D02*
X13645D01*
X13545Y17099D01*
X13455Y17047D01*
X13382Y16974D01*
X13330Y16884D01*
X13303Y16784D01*
Y16680D01*
X13330Y16580D01*
X13382Y16491D01*
X13455Y16417D01*
X13545Y16365D01*
X13645Y16339D01*
X13678D01*
Y14488D01*
X13689Y14434D01*
X13720Y14389D01*
X14663Y13446D01*
Y10454D01*
X14673Y10400D01*
X14704Y10355D01*
X15658Y9400D01*
X15637Y9350D01*
X15591D01*
X15518Y9320D01*
X15463Y9265D01*
X15433Y9193D01*
Y9114D01*
X15463Y9042D01*
X15470Y9035D01*
X15308Y8873D01*
X14626D01*
X14600Y8900D01*
X14527Y8930D01*
X14449D01*
X14377Y8900D01*
X14321Y8844D01*
X14291Y8772D01*
Y8694D01*
X14321Y8621D01*
X14377Y8566D01*
X14449Y8536D01*
X14527D01*
X14600Y8566D01*
X14626Y8592D01*
X15367D01*
X15420Y8603D01*
X15466Y8633D01*
X15717Y8885D01*
X15748Y8930D01*
X15758Y8984D01*
Y9004D01*
X15797Y9042D01*
X15827Y9114D01*
Y9152D01*
X15872Y9171D01*
X15906Y9145D01*
Y9116D01*
X15935Y9043D01*
X15991Y8988D01*
X16063Y8958D01*
X16142D01*
X16214Y8988D01*
X16269Y9043D01*
X16299Y9116D01*
Y9194D01*
X16269Y9266D01*
X16214Y9322D01*
X16142Y9352D01*
X16104D01*
X14944Y10512D01*
Y13504D01*
X14933Y13558D01*
X14902Y13603D01*
X13959Y14546D01*
Y16407D01*
X13954Y16433D01*
X14012Y16491D01*
X14064Y16580D01*
X14091Y16680D01*
Y16784D01*
X14064Y16884D01*
X14012Y16974D01*
X13939Y17047D01*
X13849Y17099D01*
X13749Y17126D01*
D02*
G37*
G36*
X3300Y8094D02*
X3287D01*
Y7740D01*
X3642D01*
Y7753D01*
X3615Y7853D01*
X3563Y7943D01*
X3490Y8016D01*
X3400Y8068D01*
X3300Y8094D01*
D02*
G37*
G36*
X3209D02*
X3196D01*
X3096Y8068D01*
X3006Y8016D01*
X2933Y7943D01*
X2881Y7853D01*
X2854Y7753D01*
Y7740D01*
X3209D01*
Y8094D01*
D02*
G37*
G36*
X3642Y7661D02*
X3287D01*
Y7307D01*
X3300D01*
X3400Y7334D01*
X3490Y7386D01*
X3563Y7459D01*
X3615Y7549D01*
X3642Y7649D01*
Y7661D01*
D02*
G37*
G36*
X3209D02*
X2854D01*
Y7649D01*
X2881Y7549D01*
X2933Y7459D01*
X3006Y7386D01*
X3096Y7334D01*
X3196Y7307D01*
X3209D01*
Y7661D01*
D02*
G37*
G36*
X1535Y14803D02*
X1457D01*
X1385Y14773D01*
X1329Y14718D01*
X1299Y14645D01*
Y14567D01*
X1329Y14495D01*
X1336Y14488D01*
Y8469D01*
X1336Y8468D01*
X1348Y8407D01*
X1383Y8355D01*
X1882Y7855D01*
X1881Y7853D01*
X1854Y7753D01*
Y7649D01*
X1881Y7549D01*
X1933Y7459D01*
X2006Y7386D01*
X2096Y7334D01*
X2196Y7307D01*
X2300D01*
X2400Y7334D01*
X2490Y7386D01*
X2563Y7459D01*
X2615Y7549D01*
X2642Y7649D01*
Y7753D01*
X2615Y7853D01*
X2563Y7943D01*
X2490Y8016D01*
X2400Y8068D01*
X2300Y8094D01*
X2196D01*
X2118Y8074D01*
X1657Y8535D01*
Y14488D01*
X1663Y14495D01*
X1693Y14567D01*
Y14645D01*
X1663Y14718D01*
X1608Y14773D01*
X1535Y14803D01*
D02*
G37*
G36*
X3300Y7094D02*
X3287D01*
Y6740D01*
X3642D01*
Y6753D01*
X3615Y6853D01*
X3563Y6943D01*
X3490Y7016D01*
X3400Y7068D01*
X3300Y7094D01*
D02*
G37*
G36*
X3209D02*
X3196D01*
X3096Y7068D01*
X3006Y7016D01*
X2933Y6943D01*
X2881Y6853D01*
X2854Y6753D01*
Y6740D01*
X3209D01*
Y7094D01*
D02*
G37*
G36*
X3642Y6661D02*
X3287D01*
Y6307D01*
X3300D01*
X3400Y6334D01*
X3490Y6386D01*
X3563Y6459D01*
X3615Y6549D01*
X3642Y6649D01*
Y6661D01*
D02*
G37*
G36*
X3209D02*
X2854D01*
Y6649D01*
X2881Y6549D01*
X2933Y6459D01*
X3006Y6386D01*
X3096Y6334D01*
X3196Y6307D01*
X3209D01*
Y6661D01*
D02*
G37*
G36*
X3310Y14587D02*
X3201D01*
X3096Y14558D01*
X3002Y14504D01*
X2925Y14427D01*
X2871Y14333D01*
X2843Y14228D01*
Y14119D01*
X2871Y14014D01*
X2925Y13919D01*
X3002Y13842D01*
X3096Y13788D01*
X3201Y13760D01*
X3310D01*
X3415Y13788D01*
X3510Y13842D01*
X3559Y13891D01*
X3737Y13713D01*
Y6417D01*
X3390Y6070D01*
X3300Y6094D01*
X3196D01*
X3096Y6068D01*
X3006Y6016D01*
X2933Y5943D01*
X2881Y5853D01*
X2854Y5753D01*
Y5649D01*
X2881Y5549D01*
X2933Y5459D01*
X3006Y5386D01*
X3096Y5334D01*
X3196Y5307D01*
X3300D01*
X3400Y5334D01*
X3490Y5386D01*
X3563Y5459D01*
X3615Y5549D01*
X3642Y5649D01*
Y5753D01*
X3617Y5843D01*
X4011Y6237D01*
X4046Y6289D01*
X4058Y6350D01*
Y13780D01*
X4058Y13780D01*
X4046Y13841D01*
X4011Y13893D01*
X3715Y14189D01*
X3669Y14220D01*
Y14228D01*
X3641Y14333D01*
X3587Y14427D01*
X3510Y14504D01*
X3415Y14558D01*
X3310Y14587D01*
D02*
G37*
G36*
X12635Y14173D02*
X12562D01*
X12492Y14154D01*
X12429Y14118D01*
X12378Y14067D01*
X12342Y14004D01*
X12323Y13934D01*
Y13861D01*
X12342Y13791D01*
X12358Y13764D01*
Y13323D01*
X12342Y13295D01*
X12323Y13225D01*
Y13153D01*
X12342Y13083D01*
X12358Y13055D01*
Y12895D01*
X12262Y12800D01*
X11457D01*
X11365Y12782D01*
X11286Y12729D01*
X10744Y12187D01*
X10692Y12109D01*
X10673Y12016D01*
Y11255D01*
X10665Y11212D01*
Y7047D01*
X10683Y6955D01*
X10735Y6877D01*
X11043Y6569D01*
Y6328D01*
X11042Y6327D01*
X11024Y6257D01*
Y6184D01*
X11042Y6114D01*
X11079Y6051D01*
X11130Y6000D01*
X11193Y5964D01*
X11263Y5945D01*
X11336D01*
X11406Y5964D01*
X11468Y6000D01*
X11520Y6051D01*
X11556Y6114D01*
X11575Y6184D01*
Y6257D01*
X11556Y6327D01*
X11525Y6381D01*
Y6552D01*
X14950D01*
X15004Y6563D01*
X15050Y6594D01*
X15063Y6607D01*
X15118D01*
X15190Y6637D01*
X15246Y6692D01*
X15276Y6764D01*
Y6843D01*
X15246Y6915D01*
X15190Y6970D01*
X15118Y7000D01*
X15040D01*
X14967Y6970D01*
X14912Y6915D01*
X14882Y6843D01*
Y6833D01*
X11458D01*
X11454Y6839D01*
X11146Y7147D01*
Y11177D01*
X11155Y11220D01*
Y11917D01*
X11556Y12318D01*
X12362D01*
X12454Y12337D01*
X12533Y12389D01*
X12769Y12625D01*
X12821Y12703D01*
X12839Y12795D01*
Y13055D01*
X12855Y13083D01*
X12874Y13153D01*
Y13225D01*
X12855Y13295D01*
X12839Y13323D01*
Y13764D01*
X12855Y13791D01*
X12874Y13861D01*
Y13934D01*
X12855Y14004D01*
X12819Y14067D01*
X12768Y14118D01*
X12705Y14154D01*
X12635Y14173D01*
D02*
G37*
G36*
X2300Y6094D02*
X2196D01*
X2096Y6068D01*
X2006Y6016D01*
X1933Y5943D01*
X1881Y5853D01*
X1854Y5753D01*
Y5649D01*
X1881Y5549D01*
X1933Y5459D01*
X2006Y5386D01*
X2096Y5334D01*
X2196Y5307D01*
X2300D01*
X2400Y5334D01*
X2490Y5386D01*
X2563Y5459D01*
X2615Y5549D01*
X2642Y5649D01*
Y5753D01*
X2615Y5853D01*
X2563Y5943D01*
X2490Y6016D01*
X2400Y6068D01*
X2300Y6094D01*
D02*
G37*
G36*
X19603Y5719D02*
X19523D01*
X19445Y5698D01*
X19376Y5658D01*
X19319Y5601D01*
X19279Y5531D01*
X19258Y5454D01*
Y5373D01*
X19279Y5296D01*
X19319Y5226D01*
X19376Y5169D01*
X19445Y5129D01*
X19523Y5108D01*
X19603D01*
X19681Y5129D01*
X19750Y5169D01*
X19807Y5226D01*
X19847Y5296D01*
X19868Y5373D01*
Y5454D01*
X19847Y5531D01*
X19807Y5601D01*
X19750Y5658D01*
X19681Y5698D01*
X19603Y5719D01*
D02*
G37*
G36*
X17947D02*
X17337D01*
Y5108D01*
X17947D01*
Y5719D01*
D02*
G37*
G36*
X4370Y12717D02*
X4292D01*
X4219Y12687D01*
X4164Y12631D01*
X4134Y12559D01*
Y12481D01*
X4164Y12408D01*
X4170Y12402D01*
Y5775D01*
X3440Y5045D01*
X3400Y5068D01*
X3300Y5094D01*
X3196D01*
X3096Y5068D01*
X3006Y5016D01*
X2933Y4943D01*
X2881Y4853D01*
X2854Y4753D01*
Y4649D01*
X2881Y4549D01*
X2933Y4459D01*
X3006Y4386D01*
X3096Y4334D01*
X3196Y4307D01*
X3300D01*
X3400Y4334D01*
X3445Y4360D01*
X3973Y3831D01*
Y1153D01*
X3973Y1153D01*
X3986Y1091D01*
X4020Y1039D01*
X4622Y438D01*
X4674Y403D01*
X4735Y391D01*
X4735Y391D01*
X10197D01*
X10197Y391D01*
X10258Y403D01*
X10310Y438D01*
X11334Y1461D01*
X11369Y1513D01*
X11381Y1575D01*
Y2611D01*
X11956Y3186D01*
X12795D01*
X12795Y3186D01*
X12857Y3198D01*
X12909Y3233D01*
X13259Y3583D01*
X13268D01*
X13340Y3613D01*
X13395Y3668D01*
X13425Y3740D01*
Y3819D01*
X13395Y3891D01*
X13340Y3946D01*
X13268Y3976D01*
X13189D01*
X13117Y3946D01*
X13061Y3891D01*
X13032Y3819D01*
Y3810D01*
X12729Y3507D01*
X11890D01*
X11828Y3495D01*
X11776Y3460D01*
X11776Y3460D01*
X11107Y2791D01*
X11072Y2739D01*
X11060Y2677D01*
X11060Y2677D01*
Y1641D01*
X10130Y712D01*
X4802D01*
X4294Y1219D01*
Y3898D01*
X4294Y3898D01*
X4282Y3959D01*
X4247Y4011D01*
X4247Y4011D01*
X3635Y4624D01*
X3642Y4649D01*
Y4753D01*
X3633Y4784D01*
X4444Y5595D01*
X4479Y5647D01*
X4491Y5709D01*
X4491Y5709D01*
Y12402D01*
X4498Y12408D01*
X4528Y12481D01*
Y12559D01*
X4498Y12631D01*
X4442Y12687D01*
X4370Y12717D01*
D02*
G37*
G36*
X2300Y5094D02*
X2196D01*
X2096Y5068D01*
X2006Y5016D01*
X1933Y4943D01*
X1881Y4853D01*
X1854Y4753D01*
Y4649D01*
X1881Y4549D01*
X1933Y4459D01*
X2006Y4386D01*
X2096Y4334D01*
X2196Y4307D01*
X2300D01*
X2400Y4334D01*
X2490Y4386D01*
X2563Y4459D01*
X2615Y4549D01*
X2642Y4649D01*
Y4753D01*
X2615Y4853D01*
X2563Y4943D01*
X2490Y5016D01*
X2400Y5068D01*
X2300Y5094D01*
D02*
G37*
G36*
X5236Y5669D02*
X5158D01*
X5085Y5639D01*
X5030Y5584D01*
X5000Y5512D01*
Y5433D01*
X5030Y5361D01*
X5036Y5355D01*
Y4330D01*
X5030Y4324D01*
X5000Y4252D01*
Y4173D01*
X5030Y4101D01*
X5085Y4046D01*
X5158Y4016D01*
X5236D01*
X5308Y4046D01*
X5364Y4101D01*
X5394Y4173D01*
Y4252D01*
X5364Y4324D01*
X5357Y4330D01*
Y5355D01*
X5364Y5361D01*
X5394Y5433D01*
Y5512D01*
X5364Y5584D01*
X5308Y5639D01*
X5236Y5669D01*
D02*
G37*
G36*
X4561Y4646D02*
X4482D01*
X4410Y4616D01*
X4355Y4560D01*
X4325Y4488D01*
Y4410D01*
X4355Y4337D01*
X4361Y4331D01*
Y1344D01*
X4361Y1344D01*
X4373Y1283D01*
X4408Y1231D01*
X4808Y831D01*
X4808Y831D01*
X4860Y797D01*
X4921Y784D01*
X4921Y784D01*
X10039D01*
X10039Y784D01*
X10101Y797D01*
X10153Y831D01*
X10901Y1579D01*
X10901Y1579D01*
X10936Y1631D01*
X10948Y1693D01*
X10948Y1693D01*
Y2768D01*
X11759Y3580D01*
X12441D01*
X12441Y3580D01*
X12502Y3592D01*
X12554Y3627D01*
X12707Y3780D01*
X12716D01*
X12789Y3810D01*
X12844Y3865D01*
X12874Y3937D01*
Y4016D01*
X12844Y4088D01*
X12789Y4143D01*
X12716Y4173D01*
X12638D01*
X12566Y4143D01*
X12510Y4088D01*
X12480Y4016D01*
Y4007D01*
X12374Y3901D01*
X11693D01*
X11693Y3901D01*
X11631Y3889D01*
X11579Y3854D01*
X10674Y2948D01*
X10639Y2896D01*
X10627Y2835D01*
X10627Y2835D01*
Y1759D01*
X9973Y1105D01*
X4988D01*
X4682Y1411D01*
Y4331D01*
X4689Y4337D01*
X4719Y4410D01*
Y4488D01*
X4689Y4560D01*
X4633Y4616D01*
X4561Y4646D01*
D02*
G37*
G36*
X3406Y4099D02*
X3091D01*
X2998Y4081D01*
X2920Y4029D01*
X2868Y3950D01*
X2850Y3858D01*
Y3543D01*
X2868Y3451D01*
X2920Y3373D01*
X2998Y3321D01*
X3091Y3302D01*
X3406D01*
X3498Y3321D01*
X3576Y3373D01*
X3628Y3451D01*
X3646Y3543D01*
Y3858D01*
X3628Y3950D01*
X3576Y4029D01*
X3498Y4081D01*
X3406Y4099D01*
D02*
G37*
G36*
X27436Y3263D02*
X27313D01*
Y2894D01*
X27682D01*
Y3017D01*
X27663Y3111D01*
X27610Y3191D01*
X27530Y3244D01*
X27436Y3263D01*
D02*
G37*
G36*
X27234D02*
X27111D01*
X27017Y3244D01*
X26937Y3191D01*
X26884Y3111D01*
X26865Y3017D01*
Y2894D01*
X27234D01*
Y3263D01*
D02*
G37*
G36*
X27682Y2815D02*
X27313D01*
Y2446D01*
X27436D01*
X27530Y2465D01*
X27610Y2518D01*
X27663Y2598D01*
X27682Y2692D01*
Y2815D01*
D02*
G37*
G36*
X27234D02*
X26865D01*
Y2692D01*
X26884Y2598D01*
X26937Y2518D01*
X27017Y2465D01*
X27111Y2446D01*
X27234D01*
Y2815D01*
D02*
G37*
G36*
X2300Y4094D02*
X2196D01*
X2096Y4068D01*
X2006Y4016D01*
X1933Y3943D01*
X1881Y3853D01*
X1854Y3753D01*
Y3649D01*
X1881Y3549D01*
X1933Y3459D01*
X2006Y3386D01*
X2095Y3334D01*
Y2862D01*
X2095Y2862D01*
X2108Y2801D01*
X2142Y2749D01*
X2446Y2446D01*
X2446Y2446D01*
X2498Y2411D01*
X2559Y2398D01*
X2914D01*
X2920Y2392D01*
X2992Y2362D01*
X3071D01*
X3143Y2392D01*
X3198Y2448D01*
X3228Y2520D01*
Y2598D01*
X3198Y2671D01*
X3143Y2726D01*
X3071Y2756D01*
X2992D01*
X2920Y2726D01*
X2914Y2720D01*
X2626D01*
X2416Y2929D01*
Y3343D01*
X2490Y3386D01*
X2563Y3459D01*
X2615Y3549D01*
X2642Y3649D01*
Y3753D01*
X2615Y3853D01*
X2563Y3943D01*
X2490Y4016D01*
X2400Y4068D01*
X2300Y4094D01*
D02*
G37*
G36*
X17477Y15472D02*
X17405D01*
X17335Y15454D01*
X17272Y15417D01*
X17220Y15366D01*
X17184Y15303D01*
X17165Y15233D01*
Y15161D01*
X17184Y15090D01*
X17220Y15028D01*
X17272Y14976D01*
X17335Y14940D01*
X17405Y14921D01*
X17477D01*
X17547Y14940D01*
X17575Y14956D01*
X18463D01*
X19790Y13629D01*
X19868Y13577D01*
X19961Y13558D01*
X20953D01*
X21216Y13296D01*
Y7146D01*
X21234Y7053D01*
X21286Y6975D01*
X22043Y6219D01*
Y5797D01*
X21641Y5396D01*
X21589Y5317D01*
X21570Y5225D01*
Y4089D01*
X21589Y3997D01*
X21641Y3919D01*
X21925Y3635D01*
Y2462D01*
X20963Y1501D01*
X20516D01*
X20514Y1509D01*
X20462Y1588D01*
X20384Y1640D01*
X20291Y1658D01*
X19976D01*
X19884Y1640D01*
X19806Y1588D01*
X19754Y1509D01*
X19736Y1417D01*
Y1102D01*
X19754Y1010D01*
X19806Y932D01*
X19884Y880D01*
X19976Y862D01*
X20291D01*
X20384Y880D01*
X20462Y932D01*
X20514Y1010D01*
X20516Y1019D01*
X21063D01*
X21155Y1037D01*
X21233Y1090D01*
X22336Y2192D01*
X22336Y2192D01*
X22388Y2270D01*
X22406Y2362D01*
Y3735D01*
X22388Y3827D01*
X22336Y3905D01*
X22052Y4189D01*
Y5126D01*
X22454Y5527D01*
X22506Y5606D01*
X22524Y5698D01*
Y6339D01*
X22506Y6431D01*
X22454Y6509D01*
X22394Y6549D01*
X21698Y7245D01*
Y13396D01*
X21679Y13488D01*
X21627Y13566D01*
X21263Y13930D01*
X21263Y13930D01*
X21223Y13970D01*
X21145Y14022D01*
X21053Y14040D01*
X20060D01*
X18733Y15367D01*
X18655Y15419D01*
X18563Y15438D01*
X17575D01*
X17547Y15454D01*
X17477Y15472D01*
D02*
G37*
G36*
X18186Y1654D02*
X18173D01*
Y1299D01*
X18528D01*
Y1312D01*
X18501Y1412D01*
X18449Y1502D01*
X18376Y1575D01*
X18286Y1627D01*
X18186Y1654D01*
D02*
G37*
G36*
X18094D02*
X18082D01*
X17982Y1627D01*
X17892Y1575D01*
X17819Y1502D01*
X17767Y1412D01*
X17740Y1312D01*
Y1299D01*
X18094D01*
Y1654D01*
D02*
G37*
G36*
X9091Y14449D02*
X9019D01*
X8949Y14430D01*
X8886Y14394D01*
X8835Y14342D01*
X8798Y14280D01*
X8780Y14210D01*
Y14137D01*
X8798Y14067D01*
X8814Y14039D01*
Y13717D01*
X8798Y13689D01*
X8780Y13619D01*
Y13546D01*
X8783Y13533D01*
X8286Y13036D01*
X7165D01*
X7073Y13018D01*
X6995Y12966D01*
X6286Y12257D01*
X6234Y12179D01*
X6216Y12087D01*
Y11102D01*
Y9134D01*
Y5197D01*
Y3228D01*
Y1535D01*
X6234Y1443D01*
X6286Y1365D01*
X6365Y1313D01*
X6457Y1295D01*
X6549Y1313D01*
X6627Y1365D01*
X6679Y1443D01*
X6698Y1535D01*
Y3228D01*
Y5197D01*
Y9134D01*
Y11102D01*
Y11987D01*
X7265Y12554D01*
X8386D01*
X8478Y12573D01*
X8556Y12625D01*
X9210Y13279D01*
X9263Y13357D01*
X9273Y13411D01*
X9276Y13413D01*
X9312Y13476D01*
X9331Y13546D01*
Y13619D01*
X9312Y13689D01*
X9296Y13717D01*
Y14039D01*
X9312Y14067D01*
X9331Y14137D01*
Y14210D01*
X9312Y14280D01*
X9276Y14342D01*
X9224Y14394D01*
X9161Y14430D01*
X9091Y14449D01*
D02*
G37*
G36*
X23347Y1654D02*
X23243D01*
X23143Y1627D01*
X23054Y1575D01*
X22980Y1502D01*
X22928Y1412D01*
X22902Y1312D01*
Y1208D01*
X22928Y1108D01*
X22980Y1018D01*
X23054Y945D01*
X23143Y893D01*
X23243Y866D01*
X23347D01*
X23447Y893D01*
X23537Y945D01*
X23610Y1018D01*
X23662Y1108D01*
X23689Y1208D01*
Y1312D01*
X23662Y1412D01*
X23610Y1502D01*
X23537Y1575D01*
X23447Y1627D01*
X23347Y1654D01*
D02*
G37*
G36*
X19186D02*
X19082D01*
X18982Y1627D01*
X18892Y1575D01*
X18819Y1502D01*
X18767Y1412D01*
X18740Y1312D01*
Y1208D01*
X18767Y1108D01*
X18819Y1018D01*
X18892Y945D01*
X18982Y893D01*
X19082Y866D01*
X19186D01*
X19286Y893D01*
X19376Y945D01*
X19449Y1018D01*
X19501Y1108D01*
X19528Y1208D01*
Y1312D01*
X19501Y1412D01*
X19449Y1502D01*
X19376Y1575D01*
X19286Y1627D01*
X19186Y1654D01*
D02*
G37*
G36*
X18528Y1220D02*
X18173D01*
Y866D01*
X18186D01*
X18286Y893D01*
X18376Y945D01*
X18449Y1018D01*
X18501Y1108D01*
X18528Y1208D01*
Y1220D01*
D02*
G37*
G36*
X18094D02*
X17740D01*
Y1208D01*
X17767Y1108D01*
X17819Y1018D01*
X17892Y945D01*
X17982Y893D01*
X18082Y866D01*
X18094D01*
Y1220D01*
D02*
G37*
G36*
X22453Y1658D02*
X22138D01*
X22046Y1640D01*
X21967Y1588D01*
X21915Y1509D01*
X21897Y1417D01*
Y1102D01*
X21915Y1010D01*
X21967Y932D01*
X22046Y880D01*
X22138Y862D01*
X22453D01*
X22545Y880D01*
X22623Y932D01*
X22675Y1010D01*
X22694Y1102D01*
Y1417D01*
X22675Y1509D01*
X22623Y1588D01*
X22545Y1640D01*
X22453Y1658D01*
D02*
G37*
G36*
X27225Y1594D02*
X27105D01*
X26987Y1571D01*
X26876Y1525D01*
X26776Y1458D01*
X26691Y1373D01*
X26625Y1273D01*
X26579Y1162D01*
X26555Y1044D01*
Y924D01*
X26579Y806D01*
X26625Y695D01*
X26691Y595D01*
X26776Y510D01*
X26876Y443D01*
X26987Y397D01*
X27105Y374D01*
X27225D01*
X27343Y397D01*
X27454Y443D01*
X27554Y510D01*
X27639Y595D01*
X27706Y695D01*
X27752Y806D01*
X27776Y924D01*
Y1044D01*
X27752Y1162D01*
X27706Y1273D01*
X27639Y1373D01*
X27554Y1458D01*
X27454Y1525D01*
X27343Y1571D01*
X27225Y1594D01*
D02*
G37*
G36*
X2816D02*
X2696D01*
X2578Y1571D01*
X2467Y1525D01*
X2367Y1458D01*
X2282Y1373D01*
X2215Y1273D01*
X2169Y1162D01*
X2146Y1044D01*
Y924D01*
X2169Y806D01*
X2215Y695D01*
X2282Y595D01*
X2367Y510D01*
X2467Y443D01*
X2578Y397D01*
X2696Y374D01*
X2816D01*
X2934Y397D01*
X3045Y443D01*
X3145Y510D01*
X3230Y595D01*
X3297Y695D01*
X3343Y806D01*
X3366Y924D01*
Y1044D01*
X3343Y1162D01*
X3297Y1273D01*
X3230Y1373D01*
X3145Y1458D01*
X3045Y1525D01*
X2934Y1571D01*
X2816Y1594D01*
D02*
G37*
%LPD*%
G36*
X24072Y13210D02*
Y5630D01*
X24083Y5576D01*
X24113Y5531D01*
X24938Y4706D01*
X24984Y4675D01*
X25037Y4665D01*
X25057D01*
X25095Y4626D01*
X25168Y4596D01*
X25159Y4550D01*
X24861D01*
X24616Y4795D01*
Y4832D01*
X24586Y4905D01*
X24531Y4960D01*
X24458Y4990D01*
X24421D01*
X23966Y5445D01*
Y13218D01*
X23988Y13241D01*
X24041Y13242D01*
X24072Y13210D01*
D02*
G37*
D69*
X2256Y16173D02*
D03*
Y14173D02*
D03*
Y15173D02*
D03*
X3256Y16173D02*
D03*
Y15173D02*
D03*
X2256Y12173D02*
D03*
X3256Y13173D02*
D03*
X2256D02*
D03*
X3256Y14173D02*
D03*
D76*
X17642Y5413D02*
D03*
D77*
X19563D02*
D03*
D80*
X3331Y4709D02*
X4331Y5709D01*
X3256Y4709D02*
X3323D01*
X4134Y3898D01*
X2256Y2862D02*
Y3709D01*
X3256Y5709D02*
X3898Y6350D01*
X1496Y8468D02*
X2250Y7715D01*
X1063Y5516D02*
X2256Y6709D01*
X1063Y7902D02*
X2256Y6709D01*
X3256Y4709D02*
X3331D01*
X1394Y15173D02*
X2256D01*
X1063Y14843D02*
X1394Y15173D01*
X1063Y7902D02*
Y14843D01*
Y5118D02*
Y5516D01*
X1496Y8468D02*
Y14606D01*
X3256Y14173D02*
X3354Y14075D01*
X3602D01*
X3898Y13780D01*
Y6350D02*
Y13780D01*
X2256Y2862D02*
X2559Y2559D01*
X3031D01*
X12795Y3346D02*
X13228Y3780D01*
X11890Y3346D02*
X12795D01*
X11220Y2677D02*
X11890Y3346D01*
X11220Y1575D02*
Y2677D01*
X10197Y551D02*
X11220Y1575D01*
X4735Y551D02*
X10197D01*
X4134Y1153D02*
X4735Y551D01*
X4134Y1153D02*
Y3898D01*
X4331Y5709D02*
Y12520D01*
X10039Y945D02*
X10787Y1693D01*
X4522Y1344D02*
X4921Y945D01*
X10039D01*
X3262Y9226D02*
Y12167D01*
Y9226D02*
X3268Y9220D01*
X3256Y12173D02*
X3262Y12167D01*
X10787Y2835D02*
X11693Y3740D01*
X10787Y1693D02*
Y2835D01*
X4522Y1344D02*
Y4449D01*
X11693Y3740D02*
X12441D01*
X12677Y3976D01*
X3256Y13173D02*
X3280Y13150D01*
X5197Y4213D02*
Y5472D01*
X5197Y5472D02*
X5197Y5472D01*
X2256Y16173D02*
X2370D01*
D82*
X7165Y12795D02*
X8386D01*
X9040Y13568D02*
X9055Y13583D01*
X9040Y13449D02*
Y13568D01*
X8386Y12795D02*
X9040Y13449D01*
X6457Y5197D02*
Y9134D01*
Y11102D01*
Y12087D02*
X7165Y12795D01*
X6457Y11102D02*
Y12087D01*
Y3228D02*
Y5197D01*
Y1535D02*
Y3228D01*
X9055Y13583D02*
Y14173D01*
X21457Y7146D02*
X22264Y6339D01*
X22283Y5698D02*
Y6339D01*
X22264D02*
X22283D01*
X21811Y5225D02*
X22283Y5698D01*
X21457Y7146D02*
Y13396D01*
X21093Y13760D02*
X21457Y13396D01*
X21053Y13799D02*
X21093Y13760D01*
X21811Y4089D02*
X22165Y3735D01*
X21811Y4089D02*
Y5225D01*
X22165Y2362D02*
Y3735D01*
X21063Y1260D02*
X22165Y2362D01*
X10906Y7047D02*
Y11212D01*
Y7047D02*
X11284Y6669D01*
X10906Y11212D02*
X10914Y11220D01*
X12598Y13168D02*
Y13898D01*
Y12795D02*
Y13189D01*
X11457Y12559D02*
X12362D01*
X12598Y12795D01*
X10914Y11220D02*
Y12016D01*
X17441Y15197D02*
X18563D01*
X19961Y13799D01*
X10914Y12016D02*
X11457Y12559D01*
X17135Y12598D02*
X17146D01*
X19961Y13799D02*
X21053D01*
X20134Y1260D02*
X21063D01*
X11284Y6236D02*
X11299Y6220D01*
X11284Y6236D02*
Y6669D01*
D83*
X14409Y11417D02*
Y13139D01*
X14331Y13218D02*
X14409Y13139D01*
X14331Y13218D02*
Y13228D01*
D84*
X13819Y14488D02*
X14803Y13504D01*
Y10454D02*
X16102Y9155D01*
X14803Y10454D02*
Y13504D01*
X15157Y12598D02*
Y13622D01*
Y12598D02*
X15441Y12315D01*
X14252Y14528D02*
X15157Y13622D01*
X14252Y14528D02*
Y15637D01*
X14331Y15716D02*
Y15748D01*
X14252Y15637D02*
X14331Y15716D01*
X13819Y14488D02*
Y16407D01*
X26860Y4016D02*
X26975Y4131D01*
X24409Y4016D02*
X26860D01*
X23632Y4793D02*
X24409Y4016D01*
X13697Y16732D02*
X13795Y16634D01*
Y16431D02*
X13819Y16407D01*
X13795Y16431D02*
Y16634D01*
X26850Y6299D02*
X27677D01*
X26339Y5787D02*
X26850Y6299D01*
X26339Y4921D02*
Y5787D01*
X27677Y6299D02*
X27992Y6614D01*
Y7756D01*
X27382Y8366D02*
X27992Y7756D01*
X27274Y8366D02*
X27382D01*
X24803Y4409D02*
X25827D01*
X24419Y4793D02*
X24803Y4409D01*
X25827D02*
X26339Y4921D01*
X23825Y5387D02*
X24419Y4793D01*
X26975Y4131D02*
X27172D01*
X27274Y4232D01*
X25209Y4795D02*
X25457D01*
X25787Y5126D01*
Y6260D02*
X26516Y6988D01*
X25787Y5126D02*
Y6260D01*
X25207Y4793D02*
X25209Y4795D01*
X26516Y6988D02*
X27274D01*
X24213Y5630D02*
Y13356D01*
X25195Y4805D02*
X25207Y4793D01*
X25037Y4805D02*
X25195D01*
X24213Y5630D02*
X25037Y4805D01*
X27992Y3898D02*
Y4892D01*
X24055Y3583D02*
X27677D01*
X27992Y3898D01*
X27274Y5610D02*
X27992Y4892D01*
X22844Y4793D02*
X24055Y3583D01*
X23438Y5017D02*
Y13356D01*
X22844Y4793D02*
Y13130D01*
X23071Y13356D01*
X23825Y5387D02*
Y13356D01*
X20266Y14390D02*
X21220Y15344D01*
Y16732D01*
X15579Y12315D02*
X15601Y12293D01*
X15441Y12315D02*
X15579D01*
X23632Y4793D02*
Y4824D01*
X23438Y5017D02*
X23632Y4824D01*
X14488Y8733D02*
X15367D01*
X15618Y8984D02*
Y9142D01*
X15630Y9154D01*
X15367Y8733D02*
X15618Y8984D01*
X14950Y6693D02*
X15061Y6804D01*
X15079D01*
X11299Y6693D02*
X14950D01*
D85*
X16575Y13169D02*
Y14331D01*
Y13169D02*
X17135Y12609D01*
Y12598D02*
Y12609D01*
D86*
X19167Y10703D02*
X19193Y10728D01*
D87*
X3248Y7701D02*
D03*
Y6701D02*
D03*
X2248Y7701D02*
D03*
Y6701D02*
D03*
X3248Y5701D02*
D03*
X2248D02*
D03*
Y4701D02*
D03*
X3248D02*
D03*
X2248Y3701D02*
D03*
X13697Y16732D02*
D03*
X14697D02*
D03*
X15697D02*
D03*
X19134Y1260D02*
D03*
X18134D02*
D03*
X23295D02*
D03*
D88*
X3248Y3701D02*
D03*
D89*
X3256Y12173D02*
D03*
D90*
X16697Y16732D02*
D03*
X20134Y1260D02*
D03*
X22295D02*
D03*
D91*
X21220Y16732D02*
D03*
X22008D02*
D03*
X20433D02*
D03*
X19646D02*
D03*
X18858D02*
D03*
D92*
X22795D02*
D03*
D93*
X27274Y15256D02*
D03*
Y13878D02*
D03*
Y12500D02*
D03*
Y8366D02*
D03*
Y4232D02*
D03*
Y5610D02*
D03*
Y6988D02*
D03*
Y9744D02*
D03*
Y11122D02*
D03*
X2756Y984D02*
D03*
X27165D02*
D03*
Y17126D02*
D03*
D94*
X27274Y2854D02*
D03*
D95*
X6457Y11102D02*
D03*
Y9134D02*
D03*
Y5197D02*
D03*
Y1535D02*
D03*
Y3228D02*
D03*
X14409Y11417D02*
D03*
X14331Y15748D02*
D03*
X22283Y6339D02*
D03*
X10906Y8661D02*
D03*
Y11220D02*
D03*
X4331Y12520D02*
D03*
X3268Y9220D02*
D03*
X1496Y14606D02*
D03*
X3031Y2559D02*
D03*
X1063Y5118D02*
D03*
X15601Y12293D02*
D03*
X14331Y13228D02*
D03*
X4522Y4449D02*
D03*
X12677Y3976D02*
D03*
X20266Y14390D02*
D03*
X13228Y3780D02*
D03*
X16102Y9155D02*
D03*
X5197Y4213D02*
D03*
X5197Y5472D02*
D03*
X23438Y13356D02*
D03*
X23632Y4793D02*
D03*
X14488Y8733D02*
D03*
X15630Y9154D02*
D03*
X23071Y13356D02*
D03*
X22844Y4793D02*
D03*
X24213Y13356D02*
D03*
X25207Y4793D02*
D03*
X23825Y13356D02*
D03*
X24419Y4793D02*
D03*
X21093Y13760D02*
D03*
X22165Y2362D02*
D03*
X15079Y6804D02*
D03*
D96*
X25748Y16811D02*
D03*
X22362Y4764D02*
D03*
X9055Y7874D02*
D03*
X12874Y15945D02*
D03*
X12598Y13898D02*
D03*
Y13189D02*
D03*
X17441Y15197D02*
D03*
X16575Y14331D02*
D03*
X9055Y13583D02*
D03*
X13346Y14567D02*
D03*
X9252Y15945D02*
D03*
X9055Y14173D02*
D03*
X10984Y13465D02*
D03*
X15512Y13386D02*
D03*
X11811Y12008D02*
D03*
X17146Y12598D02*
D03*
X12677Y10157D02*
D03*
X21978Y12008D02*
D03*
X17589Y15866D02*
D03*
X25394Y15354D02*
D03*
X21969Y10039D02*
D03*
X9252Y17126D02*
D03*
X5512Y13583D02*
D03*
X25315Y10827D02*
D03*
X25197Y7283D02*
D03*
X9055Y2756D02*
D03*
X13543Y7343D02*
D03*
X15748Y6260D02*
D03*
X5118Y10630D02*
D03*
X18504Y8780D02*
D03*
X19193Y10728D02*
D03*
X18051Y10532D02*
D03*
X5118Y7677D02*
D03*
X14646Y5630D02*
D03*
X11299Y6220D02*
D03*
M02*
