M48
;Layer_Color=9474304
;FILE_FORMAT=2:4
INCH,LZ
;TYPE=PLATED
T1F00S00C0.0118
T2F00S00C0.0197
T3F00S00C0.0256
T4F00S00C0.0315
T5F00S00C0.0433
%
T01
X003031Y002559
X004522Y004449
X005197Y004213
X006457Y003228
Y001535
X012677Y003976
X013228Y00378
X022165Y002362
X022844Y004793
X023632
X024419
X025207
X022283Y006339
X023071Y013356
X023438
X023825
X024213
X021093Y01376
X020266Y01439
X015601Y012293
X014409Y011417
X014331Y013228
Y015748
X014488Y008733
X01563Y009154
X016102Y009155
X015079Y006804
X010906Y008661
Y01122
X006457Y011102
Y009134
Y005197
X005197Y005472
X001063Y005118
X003268Y00922
X004331Y01252
X001496Y014606
T02
X009055Y002756
X022362Y004764
X025197Y007283
X025315Y010827
X021969Y010039
X021978Y012008
X025394Y015354
X025748Y016811
X017589Y015866
X017441Y015197
X016575Y014331
X015512Y013386
X017146Y012598
X018051Y010532
X019193Y010728
X018504Y00878
X015748Y00626
X014646Y00563
X013543Y007343
X011299Y00622
X009055Y007874
Y013583
Y014173
X009252Y015945
Y017126
X012874Y015945
X013346Y014567
X012598Y013898
Y013189
X010984Y013465
X011811Y012008
X012677Y010157
X005118Y01063
Y007677
X005512Y013583
T03
X017642Y005413
X019563
T04
X022008Y016732
X022795
X02122
X020433
X019646
X018858
T05
X002248Y003701
Y004701
X003248
Y003701
X018134Y00126
X019134
X020134
X022295
X023295
X027274Y002854
Y004232
Y00561
Y006988
Y008366
Y009744
Y011122
Y0125
Y013878
Y015256
X016697Y016732
X015697
X014697
X013697
X003256Y016173
X002256
Y015173
Y014173
Y013173
Y012173
X003256
Y013173
Y014173
Y015173
X003248Y007701
Y006701
X002248
Y007701
Y005701
X003248
M30
