G04*
G04 #@! TF.GenerationSoftware,Altium Limited,Altium Designer,21.0.8 (223)*
G04*
G04 Layer_Physical_Order=1*
G04 Layer_Color=255*
%FSLAX24Y24*%
%MOIN*%
G70*
G04*
G04 #@! TF.SameCoordinates,FDC07EFC-1B29-4822-A7E3-1CBBEB92D143*
G04*
G04*
G04 #@! TF.FilePolarity,Positive*
G04*
G01*
G75*
%ADD10C,0.0098*%
%ADD13C,0.0079*%
%ADD17C,0.0100*%
%ADD25R,0.0709X0.0878*%
%ADD26R,0.0551X0.0512*%
%ADD27R,0.0354X0.0394*%
%ADD28R,0.0846X0.0965*%
G04:AMPARAMS|DCode=29|XSize=50mil|YSize=80mil|CornerRadius=10mil|HoleSize=0mil|Usage=FLASHONLY|Rotation=0.000|XOffset=0mil|YOffset=0mil|HoleType=Round|Shape=RoundedRectangle|*
%AMROUNDEDRECTD29*
21,1,0.0500,0.0600,0,0,0.0*
21,1,0.0300,0.0800,0,0,0.0*
1,1,0.0200,0.0150,-0.0300*
1,1,0.0200,-0.0150,-0.0300*
1,1,0.0200,-0.0150,0.0300*
1,1,0.0200,0.0150,0.0300*
%
%ADD29ROUNDEDRECTD29*%
G04:AMPARAMS|DCode=30|XSize=240mil|YSize=270mil|CornerRadius=48mil|HoleSize=0mil|Usage=FLASHONLY|Rotation=0.000|XOffset=0mil|YOffset=0mil|HoleType=Round|Shape=RoundedRectangle|*
%AMROUNDEDRECTD30*
21,1,0.2400,0.1740,0,0,0.0*
21,1,0.1440,0.2700,0,0,0.0*
1,1,0.0960,0.0720,-0.0870*
1,1,0.0960,-0.0720,-0.0870*
1,1,0.0960,-0.0720,0.0870*
1,1,0.0960,0.0720,0.0870*
%
%ADD30ROUNDEDRECTD30*%
%ADD31R,0.0315X0.0315*%
%ADD32R,0.0197X0.0472*%
%ADD33R,0.0472X0.0197*%
G04:AMPARAMS|DCode=34|XSize=63mil|YSize=23.6mil|CornerRadius=11.8mil|HoleSize=0mil|Usage=FLASHONLY|Rotation=0.000|XOffset=0mil|YOffset=0mil|HoleType=Round|Shape=RoundedRectangle|*
%AMROUNDEDRECTD34*
21,1,0.0630,0.0000,0,0,0.0*
21,1,0.0394,0.0236,0,0,0.0*
1,1,0.0236,0.0197,0.0000*
1,1,0.0236,-0.0197,0.0000*
1,1,0.0236,-0.0197,0.0000*
1,1,0.0236,0.0197,0.0000*
%
%ADD34ROUNDEDRECTD34*%
%ADD35O,0.0236X0.0728*%
%ADD36R,0.0400X0.0220*%
%ADD37R,0.0531X0.0453*%
%ADD38R,0.0709X0.0484*%
%ADD39R,0.0315X0.0315*%
%ADD40O,0.0138X0.0669*%
%ADD41O,0.0394X0.0315*%
%ADD42R,0.0335X0.0374*%
%ADD43R,0.0236X0.0295*%
%ADD44R,0.0374X0.0335*%
%ADD45R,0.0484X0.0709*%
%ADD46R,0.0394X0.0354*%
%ADD47R,0.0512X0.0551*%
%ADD69C,0.0669*%
%ADD76R,0.0453X0.0453*%
%ADD77C,0.0453*%
%ADD80C,0.0157*%
%ADD81C,0.0394*%
%ADD82C,0.0315*%
%ADD83C,0.0197*%
%ADD84C,0.0118*%
%ADD85C,0.0276*%
%ADD86C,0.0260*%
%ADD87C,0.0630*%
G04:AMPARAMS|DCode=88|XSize=63mil|YSize=63mil|CornerRadius=15.7mil|HoleSize=0mil|Usage=FLASHONLY|Rotation=90.000|XOffset=0mil|YOffset=0mil|HoleType=Round|Shape=RoundedRectangle|*
%AMROUNDEDRECTD88*
21,1,0.0630,0.0315,0,0,90.0*
21,1,0.0315,0.0630,0,0,90.0*
1,1,0.0315,0.0157,0.0157*
1,1,0.0315,0.0157,-0.0157*
1,1,0.0315,-0.0157,-0.0157*
1,1,0.0315,-0.0157,0.0157*
%
%ADD88ROUNDEDRECTD88*%
%ADD89P,0.0724X8X112.5*%
G04:AMPARAMS|DCode=90|XSize=63mil|YSize=63mil|CornerRadius=15.7mil|HoleSize=0mil|Usage=FLASHONLY|Rotation=180.000|XOffset=0mil|YOffset=0mil|HoleType=Round|Shape=RoundedRectangle|*
%AMROUNDEDRECTD90*
21,1,0.0630,0.0315,0,0,180.0*
21,1,0.0315,0.0630,0,0,180.0*
1,1,0.0315,-0.0157,0.0157*
1,1,0.0315,0.0157,0.0157*
1,1,0.0315,0.0157,-0.0157*
1,1,0.0315,-0.0157,-0.0157*
%
%ADD90ROUNDEDRECTD90*%
%ADD91C,0.0512*%
G04:AMPARAMS|DCode=92|XSize=51.2mil|YSize=51.2mil|CornerRadius=12.8mil|HoleSize=0mil|Usage=FLASHONLY|Rotation=180.000|XOffset=0mil|YOffset=0mil|HoleType=Round|Shape=RoundedRectangle|*
%AMROUNDEDRECTD92*
21,1,0.0512,0.0256,0,0,180.0*
21,1,0.0256,0.0512,0,0,180.0*
1,1,0.0256,-0.0128,0.0128*
1,1,0.0256,0.0128,0.0128*
1,1,0.0256,0.0128,-0.0128*
1,1,0.0256,-0.0128,-0.0128*
%
%ADD92ROUNDEDRECTD92*%
%ADD93C,0.0650*%
G04:AMPARAMS|DCode=94|XSize=65mil|YSize=65mil|CornerRadius=16.2mil|HoleSize=0mil|Usage=FLASHONLY|Rotation=90.000|XOffset=0mil|YOffset=0mil|HoleType=Round|Shape=RoundedRectangle|*
%AMROUNDEDRECTD94*
21,1,0.0650,0.0325,0,0,90.0*
21,1,0.0325,0.0650,0,0,90.0*
1,1,0.0325,0.0162,0.0162*
1,1,0.0325,0.0162,-0.0162*
1,1,0.0325,-0.0162,-0.0162*
1,1,0.0325,-0.0162,0.0162*
%
%ADD94ROUNDEDRECTD94*%
%ADD95C,0.0236*%
%ADD96C,0.0394*%
G36*
X28549Y193D02*
X197D01*
X197Y17913D01*
X28549Y17913D01*
X28549Y193D01*
D02*
G37*
%LPC*%
G36*
X25157Y17372D02*
X24685D01*
Y17262D01*
X24400D01*
Y17352D01*
X23868D01*
Y16891D01*
X23868Y16860D01*
X23868Y16810D01*
Y16634D01*
X24134D01*
X24400D01*
Y16810D01*
X24400Y16841D01*
X24400Y16891D01*
Y16981D01*
X24685D01*
Y16900D01*
X25157D01*
Y17372D01*
D02*
G37*
G36*
X8612Y17470D02*
X8150D01*
Y16949D01*
X8612D01*
Y17470D01*
D02*
G37*
G36*
X8071D02*
X7608D01*
Y16949D01*
X8071D01*
Y17470D01*
D02*
G37*
G36*
X14749Y17126D02*
X14736D01*
Y16772D01*
X15091D01*
Y16784D01*
X15064Y16884D01*
X15012Y16974D01*
X14939Y17047D01*
X14849Y17099D01*
X14749Y17126D01*
D02*
G37*
G36*
X14657D02*
X14645D01*
X14545Y17099D01*
X14455Y17047D01*
X14382Y16974D01*
X14330Y16884D01*
X14303Y16784D01*
Y16772D01*
X14657D01*
Y17126D01*
D02*
G37*
G36*
X27225Y17736D02*
X27105D01*
X26987Y17713D01*
X26876Y17667D01*
X26776Y17600D01*
X26691Y17515D01*
X26625Y17415D01*
X26579Y17304D01*
X26555Y17186D01*
Y17066D01*
X26579Y16948D01*
X26625Y16837D01*
X26691Y16737D01*
X26776Y16652D01*
X26876Y16585D01*
X26987Y16539D01*
X27105Y16516D01*
X27225D01*
X27343Y16539D01*
X27454Y16585D01*
X27554Y16652D01*
X27639Y16737D01*
X27706Y16837D01*
X27752Y16948D01*
X27776Y17066D01*
Y17186D01*
X27752Y17304D01*
X27706Y17415D01*
X27639Y17515D01*
X27554Y17600D01*
X27454Y17667D01*
X27343Y17713D01*
X27225Y17736D01*
D02*
G37*
G36*
X8612Y16870D02*
X8150D01*
Y16348D01*
X8612D01*
Y16870D01*
D02*
G37*
G36*
X8071D02*
X7608D01*
Y16348D01*
X8071D01*
Y16870D01*
D02*
G37*
G36*
X6486Y17470D02*
X5482D01*
Y17286D01*
X1339D01*
X1267Y17276D01*
X1200Y17249D01*
X1142Y17204D01*
X433Y16496D01*
X389Y16438D01*
X361Y16371D01*
X352Y16299D01*
Y14331D01*
X361Y14259D01*
X389Y14192D01*
X433Y14134D01*
X552Y14016D01*
X433Y13897D01*
X389Y13840D01*
X361Y13773D01*
X352Y13701D01*
Y7126D01*
X361Y7054D01*
X389Y6987D01*
X433Y6929D01*
X1798Y5565D01*
X1856Y5521D01*
X1911Y5498D01*
X1933Y5459D01*
X2006Y5386D01*
X2096Y5334D01*
X2196Y5307D01*
X2300D01*
X2400Y5334D01*
X2490Y5386D01*
X2563Y5459D01*
X2615Y5549D01*
X2642Y5649D01*
Y5753D01*
X2615Y5853D01*
X2563Y5943D01*
X2490Y6016D01*
X2400Y6068D01*
X2300Y6094D01*
X2196D01*
X2096Y6068D01*
X2087Y6062D01*
X908Y7241D01*
Y13586D01*
X942Y13620D01*
X1906D01*
X1978Y13629D01*
X2045Y13657D01*
X2102Y13701D01*
X2170Y13768D01*
X2201Y13760D01*
X2310D01*
X2415Y13788D01*
X2510Y13842D01*
X2587Y13919D01*
X2641Y14014D01*
X2669Y14119D01*
Y14228D01*
X2641Y14333D01*
X2587Y14427D01*
X2510Y14504D01*
X2415Y14558D01*
X2310Y14587D01*
X2201D01*
X2096Y14558D01*
X2002Y14504D01*
X1925Y14427D01*
X1871Y14333D01*
X1843Y14228D01*
Y14228D01*
X1791Y14176D01*
X1170D01*
X1141Y14212D01*
X908Y14446D01*
Y16184D01*
X1454Y16730D01*
X5482D01*
Y16348D01*
X6486D01*
Y17470D01*
D02*
G37*
G36*
X24400Y16555D02*
X24173D01*
Y16348D01*
X24400D01*
Y16555D01*
D02*
G37*
G36*
X24094D02*
X23868D01*
Y16348D01*
X24094D01*
Y16555D01*
D02*
G37*
G36*
X15749Y17126D02*
X15645D01*
X15545Y17099D01*
X15455Y17047D01*
X15382Y16974D01*
X15330Y16884D01*
X15303Y16784D01*
Y16680D01*
X15330Y16580D01*
X15382Y16491D01*
X15384Y16488D01*
X14784Y15889D01*
X14469D01*
X14442Y15915D01*
X14370Y15945D01*
X14292D01*
X14219Y15915D01*
X14164Y15860D01*
X14134Y15787D01*
Y15709D01*
X14164Y15637D01*
X14219Y15581D01*
X14292Y15551D01*
X14370D01*
X14442Y15581D01*
X14469Y15608D01*
X14843D01*
X14896Y15618D01*
X14942Y15649D01*
X15635Y16341D01*
X15645Y16339D01*
X15749D01*
X15849Y16365D01*
X15939Y16417D01*
X16012Y16491D01*
X16064Y16580D01*
X16091Y16680D01*
Y16784D01*
X16064Y16884D01*
X16012Y16974D01*
X15939Y17047D01*
X15849Y17099D01*
X15749Y17126D01*
D02*
G37*
G36*
X15091Y16693D02*
X14736D01*
Y16339D01*
X14749D01*
X14849Y16365D01*
X14939Y16417D01*
X15012Y16491D01*
X15064Y16580D01*
X15091Y16680D01*
Y16693D01*
D02*
G37*
G36*
X14657D02*
X14303D01*
Y16680D01*
X14330Y16580D01*
X14382Y16491D01*
X14455Y16417D01*
X14545Y16365D01*
X14645Y16339D01*
X14657D01*
Y16693D01*
D02*
G37*
G36*
X13749Y17126D02*
X13645D01*
X13545Y17099D01*
X13455Y17047D01*
X13382Y16974D01*
X13330Y16884D01*
X13303Y16784D01*
Y16680D01*
X13330Y16580D01*
X13382Y16491D01*
X13455Y16417D01*
X13545Y16365D01*
X13645Y16339D01*
X13749D01*
X13849Y16365D01*
X13939Y16417D01*
X14012Y16491D01*
X14064Y16580D01*
X14091Y16680D01*
Y16784D01*
X14064Y16884D01*
X14012Y16974D01*
X13939Y17047D01*
X13849Y17099D01*
X13749Y17126D01*
D02*
G37*
G36*
X2310Y16587D02*
X2201D01*
X2096Y16558D01*
X2002Y16504D01*
X1925Y16427D01*
X1871Y16333D01*
X1855Y16275D01*
X1823D01*
X1823Y16275D01*
X1761Y16262D01*
X1709Y16228D01*
X1709Y16228D01*
X1383Y15901D01*
X1348Y15849D01*
X1336Y15787D01*
X1336Y15787D01*
Y14724D01*
X1329Y14718D01*
X1299Y14645D01*
Y14567D01*
X1329Y14495D01*
X1385Y14439D01*
X1457Y14409D01*
X1535D01*
X1608Y14439D01*
X1663Y14495D01*
X1693Y14567D01*
Y14645D01*
X1663Y14718D01*
X1657Y14724D01*
Y15721D01*
X1863Y15927D01*
X1925Y15919D01*
X1925Y15919D01*
X2002Y15842D01*
X2096Y15788D01*
X2201Y15760D01*
X2310D01*
X2415Y15788D01*
X2510Y15842D01*
X2587Y15919D01*
X2641Y16014D01*
X2669Y16119D01*
Y16228D01*
X2641Y16333D01*
X2587Y16427D01*
X2510Y16504D01*
X2415Y16558D01*
X2310Y16587D01*
D02*
G37*
G36*
X3310D02*
X3295D01*
Y16213D01*
X3669D01*
Y16228D01*
X3641Y16333D01*
X3587Y16427D01*
X3510Y16504D01*
X3415Y16558D01*
X3310Y16587D01*
D02*
G37*
G36*
X3217D02*
X3201D01*
X3096Y16558D01*
X3002Y16504D01*
X2925Y16427D01*
X2871Y16333D01*
X2843Y16228D01*
Y16213D01*
X3217D01*
Y16587D01*
D02*
G37*
G36*
X11710Y17327D02*
X11029D01*
Y15933D01*
X12273D01*
Y16763D01*
X12254Y16909D01*
X12198Y17045D01*
X12108Y17162D01*
X11992Y17251D01*
X11856Y17308D01*
X11710Y17327D01*
D02*
G37*
G36*
X10950D02*
X10270D01*
X10124Y17308D01*
X9988Y17251D01*
X9871Y17162D01*
X9782Y17045D01*
X9725Y16909D01*
X9706Y16763D01*
Y15933D01*
X10950D01*
Y17327D01*
D02*
G37*
G36*
X3669Y16134D02*
X3295D01*
Y15760D01*
X3310D01*
X3415Y15788D01*
X3510Y15842D01*
X3587Y15919D01*
X3641Y16014D01*
X3669Y16119D01*
Y16134D01*
D02*
G37*
G36*
X3217D02*
X2843D01*
Y16119D01*
X2871Y16014D01*
X2925Y15919D01*
X3002Y15842D01*
X3096Y15788D01*
X3201Y15760D01*
X3217D01*
Y16134D01*
D02*
G37*
G36*
X3310Y15587D02*
X3295D01*
Y15213D01*
X3669D01*
Y15228D01*
X3641Y15333D01*
X3587Y15427D01*
X3510Y15504D01*
X3415Y15558D01*
X3310Y15587D01*
D02*
G37*
G36*
X3217D02*
X3201D01*
X3096Y15558D01*
X3002Y15504D01*
X2925Y15427D01*
X2871Y15333D01*
X2843Y15228D01*
Y15213D01*
X3217D01*
Y15587D01*
D02*
G37*
G36*
X22520Y17582D02*
X17008D01*
X16939Y17568D01*
X16880Y17529D01*
X16565Y17214D01*
X16526Y17156D01*
X16520Y17127D01*
X16447Y17112D01*
X16369Y17060D01*
X16317Y16982D01*
X16299Y16890D01*
Y16575D01*
X16317Y16483D01*
X16369Y16405D01*
X16447Y16352D01*
X16539Y16334D01*
X16574D01*
Y16159D01*
X16588Y16089D01*
X16627Y16031D01*
X16788Y15870D01*
Y15438D01*
X13010D01*
X12917Y15419D01*
X12839Y15367D01*
X12428Y14956D01*
X12376Y14878D01*
X12358Y14786D01*
Y14254D01*
X11417D01*
X11387Y14247D01*
X11361Y14230D01*
X11343Y14204D01*
X11337Y14173D01*
Y12874D01*
X11343Y12843D01*
X11361Y12817D01*
X11387Y12800D01*
X11417Y12794D01*
X12992D01*
X13023Y12800D01*
X13049Y12817D01*
X13066Y12843D01*
X13072Y12874D01*
Y13087D01*
X13425D01*
Y12933D01*
X14134D01*
Y13087D01*
X14194D01*
X14219Y13061D01*
X14292Y13032D01*
X14370D01*
X14442Y13061D01*
X14498Y13117D01*
X14528Y13189D01*
Y13268D01*
X14498Y13340D01*
X14442Y13395D01*
X14370Y13425D01*
X14364D01*
X14350Y13435D01*
X14281Y13448D01*
X14134D01*
Y13563D01*
Y13858D01*
X13425D01*
Y13563D01*
Y13448D01*
X13072D01*
Y14173D01*
X13066Y14204D01*
X13049Y14230D01*
X13023Y14247D01*
X12992Y14254D01*
X12839D01*
Y14686D01*
X13109Y14956D01*
X16354D01*
Y14660D01*
X16339Y14616D01*
X15472D01*
Y13974D01*
X15747D01*
X15791Y13959D01*
Y12759D01*
X15453D01*
X15399Y12748D01*
X15353Y12717D01*
X14784Y12148D01*
X12677D01*
X12623Y12138D01*
X12578Y12107D01*
X11927Y11457D01*
X10531D01*
Y11575D01*
X9606D01*
Y11220D01*
Y10866D01*
X9878D01*
X9913Y10831D01*
X9910Y10532D01*
X9872Y10502D01*
X9842Y10502D01*
X9380D01*
Y10377D01*
X9192D01*
X9078Y10491D01*
Y10866D01*
X9067Y10920D01*
X9036Y10965D01*
X8824Y11178D01*
X8779Y11208D01*
X8725Y11219D01*
X8705D01*
X8674Y11265D01*
X8596Y11317D01*
X8504Y11335D01*
X8425D01*
X8333Y11317D01*
X8255Y11265D01*
X8203Y11187D01*
X8184Y11094D01*
X8203Y11002D01*
X8255Y10924D01*
X8333Y10872D01*
X8425Y10854D01*
X8504D01*
X8596Y10872D01*
X8674Y10924D01*
X8680Y10925D01*
X8797Y10808D01*
Y10433D01*
X8807Y10379D01*
X8838Y10334D01*
X9035Y10137D01*
X9080Y10106D01*
X9134Y10096D01*
X9380D01*
Y9970D01*
X9833Y9970D01*
X9869Y9927D01*
X9861Y9902D01*
X8707D01*
X8683Y9902D01*
X8671Y9942D01*
D01*
Y9942D01*
X8692Y9983D01*
X8726Y10034D01*
X8737Y10087D01*
X8504D01*
Y9885D01*
X8583Y9901D01*
X8596Y9903D01*
X8628Y9911D01*
X8661Y9887D01*
X8661Y9861D01*
Y9358D01*
X8617Y9334D01*
X8596Y9348D01*
X8504Y9367D01*
X8425D01*
X8333Y9348D01*
X8255Y9296D01*
X8203Y9218D01*
X8184Y9126D01*
X8203Y9034D01*
X8255Y8956D01*
X8333Y8903D01*
X8425Y8885D01*
X8504D01*
X8596Y8903D01*
X8617Y8918D01*
X8661Y8894D01*
Y8701D01*
X9334D01*
X9380Y8691D01*
Y8566D01*
X8976D01*
X8923Y8555D01*
X8877Y8525D01*
X8680Y8327D01*
X8674Y8328D01*
X8596Y8380D01*
X8504Y8398D01*
X8425D01*
X8333Y8380D01*
X8255Y8328D01*
X8203Y8250D01*
X8184Y8157D01*
X8203Y8065D01*
X8255Y7987D01*
X8333Y7935D01*
X8425Y7917D01*
X8504D01*
X8596Y7935D01*
X8674Y7987D01*
X8705Y8033D01*
X8725D01*
X8779Y8044D01*
X8824Y8074D01*
X9035Y8285D01*
X9380D01*
Y8159D01*
X9872D01*
Y8159D01*
X9892D01*
Y8159D01*
X10384D01*
Y8265D01*
X10648D01*
X10648Y8265D01*
X10709Y8277D01*
X10762Y8312D01*
X10914Y8465D01*
X10945D01*
X11017Y8495D01*
X11072Y8550D01*
X11102Y8622D01*
Y8701D01*
X11103Y8701D01*
X11164D01*
X11173Y8655D01*
X11216Y8590D01*
X11281Y8547D01*
X11358Y8532D01*
X11752D01*
X11829Y8547D01*
X11894Y8590D01*
X11895Y8592D01*
X12000D01*
X12054Y8602D01*
X12099Y8633D01*
X12304Y8838D01*
X12335Y8883D01*
X12345Y8937D01*
Y10031D01*
X12335Y10085D01*
X12304Y10131D01*
X12203Y10232D01*
X12304Y10334D01*
X12335Y10379D01*
X12345Y10433D01*
Y11005D01*
X12784Y11443D01*
X13429Y11450D01*
X13465Y11415D01*
Y10366D01*
X13446Y10362D01*
X13401Y10332D01*
X13050Y9981D01*
X13050Y9981D01*
X12814Y9745D01*
X12784Y9699D01*
X12773Y9646D01*
Y8680D01*
X11910Y7818D01*
X10827D01*
X10773Y7807D01*
X10727Y7777D01*
X10611Y7660D01*
X10384D01*
Y7785D01*
X9922D01*
X9892Y7785D01*
X9842Y7785D01*
X9380D01*
Y7682D01*
X9366Y7679D01*
X9320Y7649D01*
X9059Y7388D01*
X9059Y7388D01*
X8798Y7127D01*
X8786Y7109D01*
X8763Y7118D01*
X8504D01*
Y6917D01*
X8504D01*
X8596Y6935D01*
X8674Y6987D01*
X8697Y7021D01*
X8707Y7021D01*
X8757Y6975D01*
Y6325D01*
X8707Y6310D01*
X8674Y6359D01*
X8596Y6411D01*
X8504Y6430D01*
D01*
Y6189D01*
Y5948D01*
X8596Y5966D01*
X8674Y6019D01*
X8707Y6068D01*
X8757Y6053D01*
Y5413D01*
X8701Y5357D01*
X8674Y5359D01*
X8596Y5411D01*
X8504Y5430D01*
X8425D01*
X8333Y5411D01*
X8255Y5359D01*
X8203Y5281D01*
X8184Y5189D01*
X8203Y5097D01*
X8255Y5019D01*
X8333Y4966D01*
X8425Y4948D01*
X8504D01*
X8596Y4966D01*
X8674Y5019D01*
X8699Y5056D01*
X8740D01*
X8794Y5067D01*
X8839Y5098D01*
X8997Y5255D01*
X9022Y5293D01*
X9058Y5290D01*
X9072Y5284D01*
Y3641D01*
X8792Y3361D01*
X8694D01*
X8674Y3391D01*
X8596Y3443D01*
X8504Y3461D01*
X8425D01*
X8333Y3443D01*
X8255Y3391D01*
X8203Y3313D01*
X8184Y3220D01*
X8203Y3128D01*
X8255Y3050D01*
X8333Y2998D01*
X8425Y2980D01*
X8504D01*
X8596Y2998D01*
X8674Y3050D01*
X8694Y3080D01*
X8850D01*
X8904Y3091D01*
X8950Y3121D01*
X9312Y3483D01*
X9342Y3529D01*
X9353Y3583D01*
Y5404D01*
X9380Y5443D01*
X9403Y5443D01*
X9485D01*
Y1771D01*
X9115Y1400D01*
X8689D01*
X8674Y1422D01*
X8596Y1474D01*
X8504Y1493D01*
X8425D01*
X8333Y1474D01*
X8255Y1422D01*
X8203Y1344D01*
X8184Y1252D01*
X8203Y1160D01*
X8255Y1082D01*
X8333Y1029D01*
X8425Y1011D01*
X8504D01*
X8596Y1029D01*
X8674Y1082D01*
X8699Y1119D01*
X9173D01*
X9227Y1130D01*
X9273Y1160D01*
X9725Y1613D01*
X9756Y1659D01*
X9766Y1713D01*
Y5408D01*
X9802Y5443D01*
X9872Y5443D01*
X9922Y5443D01*
X10384D01*
Y5568D01*
X10433D01*
X10487Y5579D01*
X10532Y5609D01*
X10769Y5846D01*
X10799Y5891D01*
X10810Y5945D01*
Y6320D01*
X11279Y6789D01*
X12205D01*
X12258Y6799D01*
X12304Y6830D01*
X13554Y8080D01*
X13604Y8047D01*
X13681Y8032D01*
X14075D01*
X14152Y8047D01*
X14199Y8078D01*
X14389D01*
X14408Y8032D01*
X14133Y7757D01*
X14102Y7711D01*
X14092Y7657D01*
Y5260D01*
X14091Y5260D01*
X14048Y5195D01*
X14032Y5118D01*
Y4626D01*
X14048Y4549D01*
X14091Y4484D01*
X14156Y4441D01*
X14233Y4425D01*
X14310Y4441D01*
X14375Y4484D01*
X14418Y4549D01*
X14434Y4626D01*
Y5118D01*
X14418Y5195D01*
X14375Y5260D01*
X14373Y5262D01*
Y6288D01*
X14387Y6294D01*
X14423Y6297D01*
X14448Y6259D01*
X14979Y5727D01*
X15025Y5697D01*
X15079Y5686D01*
X15454D01*
X15647Y5493D01*
Y4369D01*
X15454Y4176D01*
X14054D01*
X13874Y4357D01*
Y4483D01*
X13875Y4484D01*
X13918Y4549D01*
X13934Y4626D01*
Y5118D01*
X13918Y5195D01*
X13875Y5260D01*
X13842Y5282D01*
X13832Y5297D01*
X13787Y5327D01*
X13733Y5338D01*
X13679Y5327D01*
X13634Y5297D01*
X13624Y5282D01*
X13591Y5260D01*
X13548Y5195D01*
X13532Y5118D01*
Y4626D01*
X13548Y4549D01*
X13591Y4484D01*
X13593Y4483D01*
Y4298D01*
X13603Y4245D01*
X13634Y4199D01*
X13897Y3936D01*
X13942Y3906D01*
X13996Y3895D01*
X15512D01*
X15566Y3906D01*
X15611Y3936D01*
X15887Y4212D01*
X15917Y4257D01*
X15928Y4311D01*
Y5551D01*
X15917Y5605D01*
X15887Y5651D01*
X15611Y5926D01*
X15566Y5957D01*
X15512Y5967D01*
X15137D01*
X14688Y6416D01*
Y7481D01*
X15316Y8109D01*
X15346Y8155D01*
X15357Y8209D01*
Y8945D01*
X15407Y8955D01*
X15843Y8955D01*
Y8799D01*
X15718D01*
Y8248D01*
X15843D01*
Y7823D01*
X15821D01*
Y7684D01*
X15821Y7684D01*
X15811Y7634D01*
X15821Y7584D01*
X15821Y7584D01*
Y7445D01*
X16379D01*
Y7823D01*
X16106D01*
Y8213D01*
X16141Y8248D01*
X16230Y8248D01*
X16280Y8248D01*
X16467D01*
Y8524D01*
Y8799D01*
X16280D01*
X16250Y8799D01*
X16200Y8799D01*
X16106D01*
Y8914D01*
X16147Y8955D01*
X17028Y8955D01*
Y3322D01*
X17180Y3169D01*
X20222D01*
X20374Y3322D01*
Y5689D01*
X19783Y6280D01*
X18681D01*
X18287Y6674D01*
X18305Y9200D01*
X18351Y9219D01*
X18865Y8705D01*
Y8508D01*
X18695D01*
Y7642D01*
X19337D01*
X19337Y7642D01*
X19370Y7638D01*
Y7638D01*
X19488D01*
Y7362D01*
X19843D01*
X20197D01*
Y7588D01*
X20239Y7638D01*
X20315D01*
Y7362D01*
X20669D01*
X21024D01*
Y7607D01*
X21049Y7657D01*
X21119D01*
Y3365D01*
X19994Y2240D01*
X19462D01*
X19408Y2230D01*
X19363Y2199D01*
X19035Y1871D01*
X19004Y1825D01*
X18993Y1772D01*
Y1630D01*
X18982Y1627D01*
X18892Y1575D01*
X18819Y1502D01*
X18767Y1412D01*
X18740Y1312D01*
Y1208D01*
X18767Y1108D01*
X18819Y1018D01*
X18892Y945D01*
X18982Y893D01*
X19082Y866D01*
X19186D01*
X19286Y893D01*
X19376Y945D01*
X19449Y1018D01*
X19501Y1108D01*
X19528Y1208D01*
Y1312D01*
X19501Y1412D01*
X19449Y1502D01*
X19376Y1575D01*
X19286Y1627D01*
X19274Y1630D01*
Y1713D01*
X19520Y1959D01*
X20052D01*
X20106Y1970D01*
X20152Y2000D01*
X21104Y2953D01*
X21246D01*
X21265Y2907D01*
X21148Y2789D01*
X21120Y2747D01*
X21110Y2697D01*
Y2628D01*
X20994D01*
Y2096D01*
X21110D01*
Y1831D01*
X21120Y1781D01*
X21148Y1738D01*
X21719Y1168D01*
X21761Y1139D01*
X21811Y1129D01*
X21897D01*
Y1102D01*
X21915Y1010D01*
X21967Y932D01*
X22046Y880D01*
X22138Y862D01*
X22453D01*
X22545Y880D01*
X22623Y932D01*
X22675Y1010D01*
X22694Y1102D01*
Y1417D01*
X22675Y1509D01*
X22623Y1588D01*
X22545Y1640D01*
X22453Y1658D01*
X22138D01*
X22046Y1640D01*
X21967Y1588D01*
X21915Y1509D01*
X21899Y1427D01*
X21872Y1413D01*
X21847Y1408D01*
X21371Y1885D01*
Y2096D01*
X21486D01*
Y2096D01*
X21506D01*
Y2096D01*
X21998D01*
Y2180D01*
X22048Y2201D01*
X22054Y2195D01*
X22126Y2165D01*
X22205D01*
X22277Y2195D01*
X22303Y2222D01*
X22530D01*
Y2096D01*
X23022D01*
Y2096D01*
X23041D01*
Y2096D01*
X23165D01*
Y1632D01*
X23143Y1627D01*
X23054Y1575D01*
X22980Y1502D01*
X22928Y1412D01*
X22902Y1312D01*
Y1208D01*
X22928Y1108D01*
X22980Y1018D01*
X23054Y945D01*
X23143Y893D01*
X23243Y866D01*
X23347D01*
X23447Y893D01*
X23537Y945D01*
X23610Y1018D01*
X23662Y1108D01*
X23689Y1208D01*
Y1312D01*
X23662Y1412D01*
X23610Y1502D01*
X23537Y1575D01*
X23447Y1627D01*
X23426Y1632D01*
Y2096D01*
X23533D01*
Y2628D01*
X23416D01*
X23408Y2668D01*
X23380Y2710D01*
X23242Y2848D01*
X23200Y2876D01*
X23150Y2886D01*
X22259D01*
X21873Y3273D01*
Y8652D01*
X21863Y8702D01*
X21834Y8744D01*
X21540Y9038D01*
Y10381D01*
X21586Y10400D01*
X21682Y10304D01*
X21728Y10274D01*
X21781Y10263D01*
X22497D01*
X22512Y10213D01*
X22489Y10198D01*
X22302Y10011D01*
X22272Y9965D01*
X22261Y9911D01*
Y9843D01*
X22047D01*
Y9232D01*
X22736D01*
Y9843D01*
X22602D01*
X22581Y9893D01*
X22647Y9958D01*
X23327D01*
X23381Y9969D01*
X23426Y9999D01*
X24090Y10663D01*
X24133Y10646D01*
X24139Y10597D01*
X23385Y9843D01*
X23384Y9843D01*
X22933D01*
Y9232D01*
X23622D01*
Y9683D01*
X23769Y9830D01*
X23819Y9809D01*
Y9232D01*
X24508D01*
Y9843D01*
X24395D01*
X24376Y9889D01*
X24626Y10139D01*
X24668Y10141D01*
X24688Y10136D01*
X24694Y10127D01*
X24928Y9893D01*
X24928Y9843D01*
X24705D01*
Y9232D01*
X25394D01*
Y9843D01*
X25210D01*
Y9950D01*
X25199Y10004D01*
X25169Y10050D01*
X24934Y10285D01*
Y11424D01*
X24984Y11451D01*
X24992Y11446D01*
X25010Y11442D01*
Y11850D01*
Y12259D01*
X24992Y12255D01*
X24955Y12230D01*
X24921Y12226D01*
X24888Y12230D01*
X24851Y12255D01*
X24793Y12267D01*
X24736Y12255D01*
X24687Y12223D01*
X24644D01*
X24595Y12255D01*
X24537Y12267D01*
X24480Y12255D01*
X24443Y12230D01*
X24409Y12226D01*
X24376Y12230D01*
X24339Y12255D01*
X24281Y12267D01*
X24224Y12255D01*
X24175Y12223D01*
X24132D01*
X24083Y12255D01*
X24026Y12267D01*
X23968Y12255D01*
X23931Y12230D01*
X23898Y12226D01*
X23864Y12230D01*
X23827Y12255D01*
X23770Y12267D01*
X23712Y12255D01*
X23663Y12223D01*
X23620D01*
X23571Y12255D01*
X23514Y12267D01*
X23456Y12255D01*
X23419Y12230D01*
X23386Y12226D01*
X23352Y12230D01*
X23315Y12255D01*
X23258Y12267D01*
X23200Y12255D01*
X23151Y12223D01*
X23108D01*
X23060Y12255D01*
X23002Y12267D01*
X22944Y12255D01*
X22907Y12230D01*
X22874Y12226D01*
X22841Y12230D01*
X22804Y12255D01*
X22785Y12259D01*
Y11850D01*
X22746D01*
Y11811D01*
X22596D01*
Y11585D01*
X22607Y11527D01*
X22640Y11478D01*
X22688Y11446D01*
X22714Y11441D01*
X22709Y11391D01*
X22214D01*
X21540Y12064D01*
Y13102D01*
X21545Y13150D01*
X21860D01*
Y13484D01*
X21900D01*
Y13524D01*
X22254D01*
Y13780D01*
Y13944D01*
X22596D01*
Y13829D01*
X22607Y13771D01*
X22640Y13722D01*
X22688Y13690D01*
X22746Y13678D01*
X22804Y13690D01*
X22841Y13714D01*
X22874Y13719D01*
X22907Y13714D01*
X22944Y13690D01*
X22963Y13686D01*
Y14094D01*
X23041D01*
Y13686D01*
X23055Y13689D01*
X23058Y13687D01*
X23069Y13632D01*
X22994Y13557D01*
X22976Y13530D01*
X22959Y13523D01*
X22904Y13468D01*
X22874Y13395D01*
Y13317D01*
X22904Y13245D01*
X22959Y13189D01*
X23032Y13159D01*
X23110D01*
X23182Y13189D01*
X23223Y13230D01*
X23255Y13240D01*
X23286Y13230D01*
X23327Y13189D01*
X23399Y13159D01*
X23477D01*
X23550Y13189D01*
X23605Y13245D01*
X23607Y13249D01*
X23657D01*
X23659Y13245D01*
X23714Y13189D01*
X23786Y13159D01*
X23865D01*
X23937Y13189D01*
X23992Y13245D01*
X23994Y13249D01*
X24044D01*
X24046Y13245D01*
X24101Y13189D01*
X24173Y13159D01*
X24252D01*
X24324Y13189D01*
X24379Y13245D01*
X24409Y13317D01*
Y13395D01*
X24379Y13468D01*
X24324Y13523D01*
X24252Y13553D01*
X24219D01*
X24166Y13606D01*
Y13668D01*
X24216Y13695D01*
X24224Y13690D01*
X24281Y13678D01*
X24339Y13690D01*
X24376Y13714D01*
X24409Y13719D01*
X24443Y13714D01*
X24480Y13690D01*
X24537Y13678D01*
X24595Y13690D01*
X24644Y13722D01*
X24687D01*
X24736Y13690D01*
X24793Y13678D01*
X24851Y13690D01*
X24888Y13714D01*
X24921Y13719D01*
X24955Y13714D01*
X24992Y13690D01*
X25049Y13678D01*
X25107Y13690D01*
X25156Y13722D01*
X25188Y13771D01*
X25200Y13829D01*
Y14360D01*
X25190Y14411D01*
Y14951D01*
X25179Y15005D01*
X25149Y15050D01*
X24391Y15808D01*
X24354Y15832D01*
X24360Y15877D01*
X24363Y15882D01*
X26269D01*
X26843Y15309D01*
X26843Y15309D01*
X26870Y15281D01*
Y15203D01*
X26898Y15100D01*
X26951Y15008D01*
X27026Y14933D01*
X27118Y14880D01*
X27220Y14852D01*
X27327D01*
X27429Y14880D01*
X27521Y14933D01*
X27597Y15008D01*
X27650Y15100D01*
X27677Y15203D01*
Y15309D01*
X27650Y15412D01*
X27597Y15504D01*
X27521Y15579D01*
X27429Y15632D01*
X27327Y15659D01*
X27220D01*
X27118Y15632D01*
X27062Y15600D01*
X26472Y16191D01*
X26413Y16230D01*
X26344Y16244D01*
X25205D01*
X25157Y16250D01*
Y16722D01*
X24685D01*
Y16250D01*
X24638Y16244D01*
X23146D01*
X23021Y16369D01*
X23025Y16424D01*
X23072Y16455D01*
X23118Y16524D01*
X23134Y16604D01*
Y16860D01*
X23118Y16941D01*
X23072Y17009D01*
X23004Y17055D01*
X22942Y17067D01*
Y17160D01*
X22929Y17229D01*
X22889Y17287D01*
X22647Y17529D01*
X22589Y17568D01*
X22520Y17582D01*
D02*
G37*
G36*
X3669Y15134D02*
X3295D01*
Y14760D01*
X3310D01*
X3415Y14788D01*
X3510Y14842D01*
X3587Y14919D01*
X3641Y15014D01*
X3669Y15119D01*
Y15134D01*
D02*
G37*
G36*
X3217D02*
X2843D01*
Y15119D01*
X2871Y15014D01*
X2925Y14919D01*
X3002Y14842D01*
X3096Y14788D01*
X3201Y14760D01*
X3217D01*
Y15134D01*
D02*
G37*
G36*
X2310Y15587D02*
X2201D01*
X2096Y15558D01*
X2002Y15504D01*
X1925Y15427D01*
X1871Y15333D01*
X1843Y15228D01*
Y15119D01*
X1871Y15014D01*
X1925Y14919D01*
X2002Y14842D01*
X2096Y14788D01*
X2201Y14760D01*
X2310D01*
X2415Y14788D01*
X2510Y14842D01*
X2587Y14919D01*
X2641Y15014D01*
X2669Y15119D01*
Y15228D01*
X2641Y15333D01*
X2587Y15427D01*
X2510Y15504D01*
X2415Y15558D01*
X2310Y15587D01*
D02*
G37*
G36*
X12273Y15854D02*
X11029D01*
Y14460D01*
X11710D01*
X11856Y14479D01*
X11992Y14535D01*
X12108Y14625D01*
X12198Y14742D01*
X12254Y14877D01*
X12273Y15023D01*
Y15854D01*
D02*
G37*
G36*
X10950D02*
X9706D01*
Y15023D01*
X9725Y14877D01*
X9782Y14742D01*
X9871Y14625D01*
X9988Y14535D01*
X10124Y14479D01*
X10270Y14460D01*
X10950D01*
Y15854D01*
D02*
G37*
G36*
X15307Y14616D02*
X14913D01*
Y14335D01*
X15307D01*
Y14616D01*
D02*
G37*
G36*
X14835D02*
X14441D01*
Y14335D01*
X14835D01*
Y14616D01*
D02*
G37*
G36*
X15307Y14256D02*
X14913D01*
Y13974D01*
X15307D01*
Y14256D01*
D02*
G37*
G36*
X14835D02*
X14441D01*
Y13974D01*
X14835D01*
Y14256D01*
D02*
G37*
G36*
X14134Y14232D02*
X13819D01*
Y13937D01*
X14134D01*
Y14232D01*
D02*
G37*
G36*
X13740D02*
X13425D01*
Y13937D01*
X13740D01*
Y14232D01*
D02*
G37*
G36*
X3310Y14587D02*
X3201D01*
X3096Y14558D01*
X3002Y14504D01*
X2925Y14427D01*
X2871Y14333D01*
X2843Y14228D01*
Y14119D01*
X2871Y14014D01*
X2925Y13919D01*
X3002Y13842D01*
X3096Y13788D01*
X3201Y13760D01*
X3310D01*
X3415Y13788D01*
X3510Y13842D01*
X3587Y13919D01*
X3641Y14014D01*
X3669Y14119D01*
Y14228D01*
X3641Y14333D01*
X3587Y14427D01*
X3510Y14504D01*
X3415Y14558D01*
X3310Y14587D01*
D02*
G37*
G36*
X7378Y14061D02*
X6984D01*
Y13583D01*
X7378D01*
Y14061D01*
D02*
G37*
G36*
X6906D02*
X6512D01*
Y13583D01*
X6906D01*
Y14061D01*
D02*
G37*
G36*
X22254Y13445D02*
X21939D01*
Y13150D01*
X22254D01*
Y13445D01*
D02*
G37*
G36*
X7378Y13504D02*
X6984D01*
Y13026D01*
X7378D01*
Y13504D01*
D02*
G37*
G36*
X6906D02*
X6512D01*
Y13026D01*
X6906D01*
Y13504D01*
D02*
G37*
G36*
X8858Y16065D02*
X5206Y16065D01*
X5191Y16062D01*
X5175Y16059D01*
X5175Y16058D01*
X5175Y16058D01*
X5162Y16050D01*
X5149Y16041D01*
X5149Y16041D01*
X5149Y16041D01*
X5140Y16028D01*
X5132Y16015D01*
X5132Y16015D01*
X5132Y16015D01*
X5129Y16000D01*
X5125Y15985D01*
X5118Y14563D01*
X5118Y14563D01*
X5118Y14563D01*
X5121Y14548D01*
X5124Y14533D01*
X5124Y14533D01*
X5124Y14533D01*
X5132Y14520D01*
X5141Y14507D01*
X5141Y14506D01*
X5141Y14506D01*
X5176Y14471D01*
X5176Y14471D01*
X5176Y14471D01*
X5189Y14462D01*
X5202Y14453D01*
X5202Y14453D01*
X5202Y14453D01*
X5218Y14450D01*
X5233Y14447D01*
X5233Y14447D01*
X5233Y14447D01*
X7479Y14447D01*
X7479Y12874D01*
X7485Y12843D01*
X7502Y12817D01*
X7528Y12800D01*
X7559Y12794D01*
X9386Y12794D01*
Y12638D01*
X9232D01*
Y11929D01*
X10157D01*
Y12283D01*
Y12638D01*
X9748D01*
Y12794D01*
X10551Y12794D01*
X10582Y12800D01*
X10608Y12817D01*
X10625Y12843D01*
X10631Y12874D01*
X10631Y14173D01*
X10625Y14204D01*
X10608Y14230D01*
X10582Y14247D01*
X10551Y14254D01*
X9450D01*
Y14528D01*
X9444Y14558D01*
X9427Y14584D01*
X9401Y14602D01*
X9370Y14608D01*
X8939D01*
X8939Y15984D01*
X8932Y16015D01*
X8915Y16041D01*
X8889Y16058D01*
X8858Y16065D01*
D02*
G37*
G36*
X2310Y13587D02*
X2201D01*
X2096Y13558D01*
X2002Y13504D01*
X1925Y13427D01*
X1871Y13333D01*
X1847Y13243D01*
X1792Y13232D01*
X1740Y13197D01*
X1740Y13197D01*
X1215Y12673D01*
X1180Y12621D01*
X1168Y12559D01*
X1168Y12559D01*
Y11339D01*
X1168Y11339D01*
X1180Y11277D01*
X1215Y11225D01*
X2170Y10270D01*
X2222Y10236D01*
X2283Y10223D01*
X2283Y10223D01*
X4028D01*
X4497Y9755D01*
X4476Y9705D01*
X4469D01*
Y9252D01*
Y8799D01*
X4515D01*
Y8711D01*
X4515Y8711D01*
X4527Y8649D01*
X4562Y8597D01*
X5115Y8044D01*
X5115Y8044D01*
X5167Y8009D01*
X5228Y7997D01*
X5689D01*
X5696Y7987D01*
X5774Y7935D01*
X5866Y7917D01*
X5945D01*
X6037Y7935D01*
X6115Y7987D01*
X6122Y7997D01*
X6461D01*
X6729Y7729D01*
Y4397D01*
X6193Y3861D01*
X5354D01*
X5354Y3861D01*
X5293Y3849D01*
X5241Y3814D01*
X4579Y3153D01*
X1996D01*
X1696Y3452D01*
Y4225D01*
X1925Y4453D01*
X1939D01*
X2006Y4386D01*
X2096Y4334D01*
X2196Y4307D01*
X2300D01*
X2400Y4334D01*
X2490Y4386D01*
X2563Y4459D01*
X2615Y4549D01*
X2642Y4649D01*
Y4753D01*
X2615Y4853D01*
X2563Y4943D01*
X2490Y5016D01*
X2400Y5068D01*
X2300Y5094D01*
X2196D01*
X2096Y5068D01*
X2006Y5016D01*
X1933Y4943D01*
X1881Y4853D01*
X1860Y4775D01*
X1858D01*
X1858Y4775D01*
X1797Y4762D01*
X1745Y4728D01*
X1422Y4405D01*
X1387Y4353D01*
X1375Y4291D01*
X1375Y4291D01*
Y3386D01*
X1375Y3386D01*
X1387Y3324D01*
X1422Y3272D01*
X1816Y2879D01*
X1816Y2879D01*
X1868Y2844D01*
X1929Y2832D01*
X4646D01*
X4646Y2832D01*
X4707Y2844D01*
X4759Y2879D01*
X5421Y3540D01*
X6260D01*
X6260Y3540D01*
X6321Y3552D01*
X6373Y3587D01*
X7003Y4217D01*
X7003Y4217D01*
X7038Y4269D01*
X7050Y4331D01*
Y7795D01*
X7038Y7857D01*
X7003Y7909D01*
X7003Y7909D01*
X6755Y8157D01*
X7003Y8406D01*
X7038Y8458D01*
X7050Y8520D01*
X7050Y8520D01*
Y9843D01*
X7050Y9843D01*
X7038Y9904D01*
X7003Y9956D01*
X7003Y9956D01*
X6728Y10232D01*
X6676Y10266D01*
X6614Y10279D01*
X6614Y10279D01*
X6127D01*
X6115Y10296D01*
X6037Y10349D01*
X5945Y10367D01*
X5866D01*
X5774Y10349D01*
X5696Y10296D01*
X5644Y10218D01*
X5625Y10126D01*
X5644Y10034D01*
X5696Y9956D01*
X5774Y9903D01*
X5866Y9885D01*
X5945D01*
X6037Y9903D01*
X6115Y9956D01*
X6116Y9958D01*
X6548D01*
X6729Y9776D01*
Y8586D01*
X6461Y8318D01*
X6122D01*
X6115Y8328D01*
X6037Y8380D01*
X5945Y8398D01*
X5866D01*
X5774Y8380D01*
X5696Y8328D01*
X5689Y8318D01*
X5295D01*
X4863Y8750D01*
X4862Y8799D01*
X4862D01*
Y9252D01*
Y9705D01*
X4836D01*
Y9803D01*
X4836Y9803D01*
X4824Y9865D01*
X4789Y9917D01*
X4789Y9917D01*
X4208Y10497D01*
X4156Y10532D01*
X4094Y10544D01*
X4094Y10544D01*
X2350D01*
X1489Y11405D01*
Y12493D01*
X1887Y12890D01*
X1887Y12890D01*
X1956Y12889D01*
X2002Y12842D01*
X2096Y12788D01*
X2201Y12760D01*
X2310D01*
X2415Y12788D01*
X2510Y12842D01*
X2587Y12919D01*
X2641Y13014D01*
X2669Y13119D01*
Y13228D01*
X2641Y13333D01*
X2587Y13427D01*
X2510Y13504D01*
X2415Y13558D01*
X2310Y13587D01*
D02*
G37*
G36*
X3310D02*
X3201D01*
X3096Y13558D01*
X3002Y13504D01*
X2925Y13427D01*
X2871Y13333D01*
X2843Y13228D01*
Y13119D01*
X2871Y13014D01*
X2925Y12919D01*
X3002Y12842D01*
X3096Y12788D01*
X3201Y12760D01*
X3310D01*
X3415Y12788D01*
X3510Y12842D01*
X3587Y12919D01*
X3627Y12989D01*
X4028D01*
X4155Y12862D01*
Y12610D01*
X4134Y12559D01*
Y12481D01*
X4164Y12408D01*
X4219Y12353D01*
X4292Y12323D01*
X4370D01*
X4442Y12353D01*
X4498Y12408D01*
X4528Y12481D01*
Y12559D01*
X4498Y12631D01*
X4476Y12653D01*
Y12928D01*
X4476Y12928D01*
X4464Y12990D01*
X4429Y13042D01*
X4208Y13263D01*
X4156Y13298D01*
X4094Y13310D01*
X4094Y13310D01*
X3647D01*
X3641Y13333D01*
X3587Y13427D01*
X3510Y13504D01*
X3415Y13558D01*
X3310Y13587D01*
D02*
G37*
G36*
X10532Y12638D02*
X10236D01*
Y12323D01*
X10532D01*
Y12638D01*
D02*
G37*
G36*
X8504Y12335D02*
D01*
Y12134D01*
X8737D01*
X8726Y12187D01*
X8674Y12265D01*
X8596Y12317D01*
X8504Y12335D01*
D02*
G37*
G36*
X8425D02*
X8333Y12317D01*
X8255Y12265D01*
X8203Y12187D01*
X8192Y12134D01*
X8425D01*
Y12335D01*
D02*
G37*
G36*
X27327Y12904D02*
X27220D01*
X27118Y12876D01*
X27026Y12823D01*
X26951Y12748D01*
X26898Y12656D01*
X26888Y12621D01*
X26673D01*
X26619Y12610D01*
X26574Y12580D01*
X25649Y11654D01*
X25618Y11609D01*
X25608Y11555D01*
Y9153D01*
X25463Y9008D01*
X25394D01*
Y9154D01*
X24705D01*
Y8543D01*
X25394D01*
Y8727D01*
X25521D01*
X25575Y8738D01*
X25621Y8768D01*
X25847Y8995D01*
X25878Y9041D01*
X25889Y9094D01*
Y11497D01*
X26731Y12340D01*
X26900D01*
X26951Y12252D01*
X27026Y12177D01*
X27118Y12124D01*
X27220Y12096D01*
X27327D01*
X27429Y12124D01*
X27521Y12177D01*
X27597Y12252D01*
X27650Y12344D01*
X27677Y12447D01*
Y12553D01*
X27650Y12656D01*
X27597Y12748D01*
X27521Y12823D01*
X27429Y12876D01*
X27327Y12904D01*
D02*
G37*
G36*
X10532Y12244D02*
X10236D01*
Y11929D01*
X10532D01*
Y12244D01*
D02*
G37*
G36*
X25089Y12259D02*
Y11890D01*
X25200D01*
Y12116D01*
X25188Y12174D01*
X25156Y12223D01*
X25107Y12255D01*
X25089Y12259D01*
D02*
G37*
G36*
X22707Y12259D02*
X22688Y12255D01*
X22640Y12223D01*
X22607Y12174D01*
X22596Y12116D01*
Y11890D01*
X22707D01*
Y12259D01*
D02*
G37*
G36*
X8737Y12055D02*
X8504D01*
Y11854D01*
X8596Y11872D01*
X8674Y11924D01*
X8726Y12002D01*
X8737Y12055D01*
D02*
G37*
G36*
X8425D02*
X8192D01*
X8203Y12002D01*
X8255Y11924D01*
X8333Y11872D01*
X8425Y11854D01*
D01*
Y12055D01*
D02*
G37*
G36*
X3463Y12587D02*
X3049D01*
X2843Y12380D01*
Y11967D01*
X3049Y11760D01*
X3463D01*
X3669Y11967D01*
Y12380D01*
X3463Y12587D01*
D02*
G37*
G36*
X25200Y11811D02*
X25089D01*
Y11442D01*
X25107Y11446D01*
X25156Y11478D01*
X25188Y11527D01*
X25200Y11585D01*
Y11811D01*
D02*
G37*
G36*
X9528Y11575D02*
X9232D01*
Y11260D01*
X9528D01*
Y11575D01*
D02*
G37*
G36*
X5945Y11335D02*
X5866D01*
X5774Y11317D01*
X5696Y11265D01*
X5644Y11187D01*
X5625Y11094D01*
X5644Y11002D01*
X5696Y10924D01*
X5774Y10872D01*
X5866Y10854D01*
X5945D01*
X6037Y10872D01*
X6115Y10924D01*
X6124Y10938D01*
X6343D01*
X6345Y10935D01*
X6418Y10906D01*
X6496D01*
X6568Y10935D01*
X6624Y10991D01*
X6654Y11063D01*
Y11142D01*
X6624Y11214D01*
X6568Y11269D01*
X6496Y11299D01*
X6418D01*
X6345Y11269D01*
X6335Y11259D01*
X6119D01*
X6115Y11265D01*
X6037Y11317D01*
X5945Y11335D01*
D02*
G37*
G36*
X9528Y11181D02*
X9232D01*
Y10866D01*
X9528D01*
Y11181D01*
D02*
G37*
G36*
X27327Y11526D02*
X27220D01*
X27118Y11498D01*
X27026Y11445D01*
X26951Y11370D01*
X26898Y11278D01*
X26870Y11175D01*
Y11069D01*
X26898Y10966D01*
X26905Y10953D01*
X26357Y10404D01*
X26327Y10359D01*
X26316Y10305D01*
Y8916D01*
X25296Y7896D01*
X24409D01*
Y7972D01*
X23937D01*
Y7896D01*
X23759D01*
X23408Y8247D01*
Y8543D01*
X23622D01*
Y9154D01*
X22933D01*
Y8543D01*
X23127D01*
Y8189D01*
X23138Y8135D01*
X23168Y8090D01*
X23601Y7657D01*
X23647Y7626D01*
X23701Y7615D01*
X23937D01*
Y7500D01*
X24409D01*
Y7615D01*
X25354D01*
X25408Y7626D01*
X25454Y7657D01*
X26158Y8361D01*
X26204Y8336D01*
X26198Y8307D01*
Y7539D01*
X25572Y6912D01*
X24409D01*
Y7106D01*
X23937D01*
Y6912D01*
X23326D01*
X23246Y6992D01*
Y7524D01*
X23235Y7578D01*
X23205Y7624D01*
X23003Y7826D01*
X22957Y7856D01*
X22903Y7867D01*
X22638D01*
Y7972D01*
X22532D01*
Y8543D01*
X22736D01*
Y9154D01*
X22047D01*
Y8543D01*
X22251D01*
Y7972D01*
X22165D01*
Y7500D01*
X22638D01*
Y7586D01*
X22845D01*
X22965Y7466D01*
Y6934D01*
X22976Y6880D01*
X23006Y6835D01*
X23168Y6672D01*
X23214Y6642D01*
X23268Y6631D01*
X25630D01*
X25684Y6642D01*
X25729Y6672D01*
X26438Y7381D01*
X26468Y7427D01*
X26479Y7480D01*
Y8249D01*
X26910Y8680D01*
X26941Y8726D01*
X26952Y8780D01*
Y9391D01*
X27004Y9443D01*
X27026Y9421D01*
X27118Y9368D01*
X27220Y9341D01*
X27327D01*
X27429Y9368D01*
X27521Y9421D01*
X27597Y9496D01*
X27650Y9588D01*
X27677Y9691D01*
Y9797D01*
X27650Y9900D01*
X27597Y9992D01*
X27521Y10067D01*
X27429Y10120D01*
X27327Y10148D01*
X27220D01*
X27118Y10120D01*
X27026Y10067D01*
X26951Y9992D01*
X26898Y9900D01*
X26870Y9797D01*
Y9701D01*
X26854Y9690D01*
X26712Y9548D01*
X26681Y9503D01*
X26671Y9449D01*
Y8838D01*
X26638Y8805D01*
X26591Y8829D01*
X26597Y8858D01*
Y10247D01*
X27104Y10754D01*
X27118Y10746D01*
X27220Y10718D01*
X27327D01*
X27429Y10746D01*
X27521Y10799D01*
X27597Y10874D01*
X27650Y10966D01*
X27677Y11069D01*
Y11175D01*
X27650Y11278D01*
X27597Y11370D01*
X27521Y11445D01*
X27429Y11498D01*
X27327Y11526D01*
D02*
G37*
G36*
X8504Y10367D02*
D01*
Y10165D01*
X8737D01*
X8726Y10218D01*
X8674Y10296D01*
X8596Y10349D01*
X8504Y10367D01*
D02*
G37*
G36*
X8425D02*
X8333Y10349D01*
X8255Y10296D01*
X8203Y10218D01*
X8192Y10165D01*
X8425D01*
Y10367D01*
D02*
G37*
G36*
Y10087D02*
X8192D01*
X8203Y10034D01*
X8255Y9956D01*
X8333Y9903D01*
X8425Y9885D01*
D01*
Y10087D01*
D02*
G37*
G36*
X5945Y9367D02*
X5866D01*
X5774Y9348D01*
X5696Y9296D01*
X5644Y9218D01*
X5625Y9126D01*
X5644Y9034D01*
X5696Y8956D01*
X5774Y8903D01*
X5866Y8885D01*
X5945D01*
X6037Y8903D01*
X6115Y8956D01*
X6124Y8969D01*
X6343D01*
X6345Y8967D01*
X6418Y8937D01*
X6496D01*
X6568Y8967D01*
X6624Y9022D01*
X6654Y9095D01*
Y9173D01*
X6624Y9245D01*
X6568Y9301D01*
X6496Y9331D01*
X6418D01*
X6345Y9301D01*
X6335Y9290D01*
X6119D01*
X6115Y9296D01*
X6037Y9348D01*
X5945Y9367D01*
D02*
G37*
G36*
X16545Y8799D02*
Y8563D01*
X16762D01*
Y8799D01*
X16545D01*
D02*
G37*
G36*
X27327Y14282D02*
X27220D01*
X27118Y14254D01*
X27026Y14201D01*
X26951Y14126D01*
X26898Y14034D01*
X26870Y13931D01*
Y13825D01*
X26898Y13722D01*
X26951Y13630D01*
X27026Y13555D01*
X27118Y13502D01*
X27220Y13474D01*
X27327D01*
X27429Y13502D01*
X27512Y13549D01*
X27773Y13288D01*
Y12105D01*
X27619Y11952D01*
X26880D01*
X26826Y11941D01*
X26781Y11910D01*
X26003Y11133D01*
X25973Y11087D01*
X25962Y11033D01*
Y9035D01*
X25385Y8457D01*
X24418D01*
X24379Y8497D01*
X24398Y8543D01*
X24508D01*
Y9154D01*
X23819D01*
Y8543D01*
X24023D01*
Y8514D01*
X24034Y8460D01*
X24064Y8414D01*
X24266Y8212D01*
X24312Y8182D01*
X24366Y8171D01*
X24392Y8176D01*
X25443D01*
X25497Y8187D01*
X25542Y8218D01*
X26202Y8877D01*
X26232Y8923D01*
X26243Y8976D01*
Y10975D01*
X26938Y11671D01*
X27677D01*
X27731Y11681D01*
X27777Y11712D01*
X28013Y11948D01*
X28043Y11993D01*
X28054Y12047D01*
Y13346D01*
X28043Y13400D01*
X28013Y13446D01*
X27668Y13791D01*
X27677Y13825D01*
Y13931D01*
X27650Y14034D01*
X27597Y14126D01*
X27521Y14201D01*
X27429Y14254D01*
X27327Y14282D01*
D02*
G37*
G36*
X11752Y8433D02*
X11594D01*
Y8272D01*
X11945D01*
X11937Y8309D01*
X11894Y8374D01*
X11829Y8418D01*
X11752Y8433D01*
D02*
G37*
G36*
X11516D02*
X11358D01*
X11281Y8418D01*
X11216Y8374D01*
X11173Y8309D01*
X11165Y8272D01*
X11516D01*
Y8433D01*
D02*
G37*
G36*
X16762Y8484D02*
X16545D01*
Y8248D01*
X16762D01*
Y8484D01*
D02*
G37*
G36*
X11945Y8193D02*
X11594D01*
Y8032D01*
X11752D01*
X11829Y8047D01*
X11894Y8090D01*
X11937Y8155D01*
X11945Y8193D01*
D02*
G37*
G36*
X11516D02*
X11165D01*
X11173Y8155D01*
X11216Y8090D01*
X11281Y8047D01*
X11358Y8032D01*
X11516D01*
Y8193D01*
D02*
G37*
G36*
X27327Y8770D02*
X27220D01*
X27118Y8742D01*
X27026Y8689D01*
X26951Y8614D01*
X26898Y8522D01*
X26870Y8419D01*
Y8313D01*
X26898Y8210D01*
X26951Y8118D01*
X27026Y8043D01*
X27118Y7990D01*
X27220Y7963D01*
X27327D01*
X27429Y7990D01*
X27521Y8043D01*
X27597Y8118D01*
X27650Y8210D01*
X27677Y8313D01*
Y8419D01*
X27650Y8522D01*
X27597Y8614D01*
X27521Y8689D01*
X27429Y8742D01*
X27327Y8770D01*
D02*
G37*
G36*
X3300Y8094D02*
X3287D01*
Y7740D01*
X3642D01*
Y7753D01*
X3615Y7853D01*
X3563Y7943D01*
X3490Y8016D01*
X3400Y8068D01*
X3300Y8094D01*
D02*
G37*
G36*
X3209D02*
X3196D01*
X3096Y8068D01*
X3006Y8016D01*
X2933Y7943D01*
X2881Y7853D01*
X2854Y7753D01*
Y7740D01*
X3209D01*
Y8094D01*
D02*
G37*
G36*
X8504Y7398D02*
X8504D01*
Y7197D01*
X8737D01*
X8726Y7250D01*
X8674Y7328D01*
X8596Y7380D01*
X8504Y7398D01*
D02*
G37*
G36*
X8425D02*
X8333Y7380D01*
X8255Y7328D01*
X8203Y7250D01*
X8192Y7197D01*
X8425D01*
Y7398D01*
D02*
G37*
G36*
X5945D02*
D01*
Y7197D01*
X6178D01*
X6167Y7250D01*
X6115Y7328D01*
X6037Y7380D01*
X5945Y7398D01*
D02*
G37*
G36*
X5866D02*
X5774Y7380D01*
X5696Y7328D01*
X5644Y7250D01*
X5633Y7197D01*
X5866D01*
Y7398D01*
D02*
G37*
G36*
X24409Y7382D02*
X24213D01*
Y7185D01*
X24409D01*
Y7382D01*
D02*
G37*
G36*
X24134D02*
X23937D01*
Y7185D01*
X24134D01*
Y7382D01*
D02*
G37*
G36*
X22638D02*
X22441D01*
Y7185D01*
X22638D01*
Y7382D01*
D02*
G37*
G36*
X22362D02*
X22165D01*
Y7185D01*
X22362D01*
Y7382D01*
D02*
G37*
G36*
X19337Y7476D02*
X19055D01*
Y7083D01*
X19337D01*
Y7476D01*
D02*
G37*
G36*
X18976D02*
X18695D01*
Y7083D01*
X18976D01*
Y7476D01*
D02*
G37*
G36*
X21024Y7283D02*
X20709D01*
Y6988D01*
X21024D01*
Y7283D01*
D02*
G37*
G36*
X20630D02*
X20315D01*
Y6988D01*
X20630D01*
Y7283D01*
D02*
G37*
G36*
X20197D02*
X19882D01*
Y6988D01*
X20197D01*
Y7283D01*
D02*
G37*
G36*
X19803D02*
X19488D01*
Y6988D01*
X19803D01*
Y7283D01*
D02*
G37*
G36*
X16379Y7083D02*
X16140D01*
Y6933D01*
X16379D01*
Y7083D01*
D02*
G37*
G36*
X16061D02*
X15821D01*
Y6933D01*
X16061D01*
Y7083D01*
D02*
G37*
G36*
X8425Y7118D02*
X8192D01*
X8203Y7065D01*
X8255Y6987D01*
X8333Y6935D01*
X8425Y6917D01*
Y7118D01*
D02*
G37*
G36*
X6178Y7118D02*
X5945D01*
Y6917D01*
X6037Y6935D01*
X6115Y6987D01*
X6167Y7065D01*
X6178Y7118D01*
D02*
G37*
G36*
X5866D02*
X5633D01*
X5644Y7065D01*
X5696Y6987D01*
X5774Y6935D01*
X5866Y6917D01*
D01*
Y7118D01*
D02*
G37*
G36*
X22638Y7106D02*
X22441D01*
Y6909D01*
X22638D01*
Y7106D01*
D02*
G37*
G36*
X22362D02*
X22165D01*
Y6909D01*
X22362D01*
Y7106D01*
D02*
G37*
G36*
X16379Y6854D02*
X16140D01*
Y6705D01*
X16379D01*
Y6854D01*
D02*
G37*
G36*
X16061D02*
X15821D01*
Y6705D01*
X16061D01*
Y6854D01*
D02*
G37*
G36*
X19337Y7004D02*
X19055D01*
Y6610D01*
X19337D01*
Y7004D01*
D02*
G37*
G36*
X18976D02*
X18695D01*
Y6610D01*
X18976D01*
Y7004D01*
D02*
G37*
G36*
X15399Y7453D02*
X14842D01*
Y7075D01*
X14997D01*
Y6983D01*
X14967Y6970D01*
X14912Y6915D01*
X14882Y6843D01*
Y6764D01*
X14912Y6692D01*
X14967Y6637D01*
X15040Y6607D01*
X15118D01*
X15190Y6637D01*
X15246Y6692D01*
X15276Y6764D01*
Y6843D01*
X15270Y6855D01*
X15278Y6895D01*
Y7075D01*
X15399D01*
Y7453D01*
D02*
G37*
G36*
X27327Y7392D02*
X27220D01*
X27118Y7364D01*
X27026Y7311D01*
X26951Y7236D01*
X26898Y7144D01*
X26870Y7041D01*
Y6935D01*
X26898Y6832D01*
X26951Y6740D01*
X27026Y6665D01*
X27118Y6612D01*
X27220Y6585D01*
X27327D01*
X27429Y6612D01*
X27521Y6665D01*
X27597Y6740D01*
X27650Y6832D01*
X27677Y6935D01*
Y7041D01*
X27650Y7144D01*
X27597Y7236D01*
X27521Y7311D01*
X27429Y7364D01*
X27327Y7392D01*
D02*
G37*
G36*
X12417Y6502D02*
X11551D01*
Y6429D01*
X11501Y6408D01*
X11468Y6441D01*
X11406Y6477D01*
X11336Y6496D01*
X11263D01*
X11193Y6477D01*
X11130Y6441D01*
X11079Y6390D01*
X11042Y6327D01*
X11024Y6257D01*
Y6184D01*
X11042Y6114D01*
X11079Y6051D01*
X11130Y6000D01*
X11193Y5964D01*
X11263Y5945D01*
X11336D01*
X11406Y5964D01*
X11468Y6000D01*
X11489Y6020D01*
X11551D01*
Y5860D01*
X11749D01*
Y5769D01*
X11649Y5669D01*
X11001D01*
X10947Y5658D01*
X10901Y5628D01*
X10485Y5211D01*
X10455Y5166D01*
X10444Y5112D01*
Y4807D01*
X10191D01*
Y3941D01*
X10833D01*
Y4807D01*
X10725D01*
Y5054D01*
X11059Y5388D01*
X11573D01*
Y5232D01*
X11548Y5195D01*
X11532Y5118D01*
Y4626D01*
X11548Y4549D01*
X11591Y4484D01*
X11656Y4441D01*
X11733Y4425D01*
X11810Y4441D01*
X11875Y4484D01*
X11918Y4549D01*
X11934Y4626D01*
Y5118D01*
X11918Y5195D01*
X11894Y5232D01*
Y5460D01*
X12023Y5589D01*
X12023Y5589D01*
X12058Y5641D01*
X12070Y5703D01*
X12070Y5703D01*
Y5860D01*
X12417D01*
Y6502D01*
D02*
G37*
G36*
X3642Y6661D02*
X3287D01*
Y6307D01*
X3300D01*
X3400Y6334D01*
X3490Y6386D01*
X3563Y6459D01*
X3615Y6549D01*
X3642Y6649D01*
Y6661D01*
D02*
G37*
G36*
X3209D02*
X2854D01*
Y6649D01*
X2881Y6549D01*
X2933Y6459D01*
X3006Y6386D01*
X3096Y6334D01*
X3196Y6307D01*
X3209D01*
Y6661D01*
D02*
G37*
G36*
X2300Y7094D02*
X2196D01*
X2096Y7068D01*
X2006Y7016D01*
X1933Y6943D01*
X1881Y6853D01*
X1854Y6753D01*
Y6649D01*
X1881Y6549D01*
X1933Y6459D01*
X2006Y6386D01*
X2096Y6334D01*
X2196Y6307D01*
X2300D01*
X2400Y6334D01*
X2490Y6386D01*
X2563Y6459D01*
X2615Y6549D01*
X2642Y6649D01*
Y6753D01*
X2615Y6853D01*
X2563Y6943D01*
X2490Y7016D01*
X2400Y7068D01*
X2300Y7094D01*
D02*
G37*
G36*
X8425Y6430D02*
X8333Y6411D01*
X8255Y6359D01*
X8203Y6281D01*
X8192Y6228D01*
X8425D01*
Y6430D01*
D02*
G37*
G36*
X13449Y6502D02*
X13055D01*
Y6220D01*
X13449D01*
Y6502D01*
D02*
G37*
G36*
X12976D02*
X12583D01*
Y6220D01*
X12976D01*
Y6502D01*
D02*
G37*
G36*
X8425Y6150D02*
X8192D01*
X8203Y6097D01*
X8255Y6019D01*
X8333Y5966D01*
X8425Y5948D01*
D01*
Y6150D01*
D02*
G37*
G36*
X3307Y9417D02*
X3229D01*
X3156Y9387D01*
X3101Y9332D01*
X3071Y9259D01*
Y9181D01*
X3101Y9108D01*
X3107Y9102D01*
Y8583D01*
X3107Y8583D01*
X3119Y8521D01*
X3154Y8469D01*
X5442Y6181D01*
X5083Y5822D01*
X5049Y5770D01*
X5036Y5709D01*
X5036Y5709D01*
Y5590D01*
X5030Y5584D01*
X5000Y5512D01*
Y5433D01*
X5030Y5361D01*
X5085Y5306D01*
X5158Y5276D01*
X5236D01*
X5308Y5306D01*
X5364Y5361D01*
X5394Y5433D01*
Y5512D01*
X5364Y5584D01*
X5357Y5590D01*
Y5642D01*
X5719Y6003D01*
X5774Y5966D01*
X5866Y5948D01*
X5945D01*
X6037Y5966D01*
X6115Y6019D01*
X6167Y6097D01*
X6186Y6189D01*
X6167Y6281D01*
X6115Y6359D01*
X6101Y6369D01*
X6098Y6373D01*
X6046Y6408D01*
X6040Y6409D01*
X6037Y6411D01*
X5945Y6430D01*
X5866D01*
X5774Y6411D01*
X5709Y6368D01*
X3428Y8649D01*
Y9102D01*
X3435Y9108D01*
X3465Y9181D01*
Y9259D01*
X3435Y9332D01*
X3379Y9387D01*
X3307Y9417D01*
D02*
G37*
G36*
X13449Y6142D02*
X13055D01*
Y5860D01*
X13449D01*
Y6142D01*
D02*
G37*
G36*
X12976D02*
X12583D01*
Y5860D01*
X12976D01*
Y6142D01*
D02*
G37*
G36*
X27327Y6014D02*
X27220D01*
X27118Y5986D01*
X27026Y5933D01*
X26951Y5858D01*
X26898Y5766D01*
X26870Y5663D01*
Y5557D01*
X26898Y5454D01*
X26951Y5362D01*
X27026Y5287D01*
X27118Y5234D01*
X27220Y5207D01*
X27327D01*
X27429Y5234D01*
X27521Y5287D01*
X27597Y5362D01*
X27650Y5454D01*
X27677Y5557D01*
Y5663D01*
X27650Y5766D01*
X27597Y5858D01*
X27521Y5933D01*
X27429Y5986D01*
X27327Y6014D01*
D02*
G37*
G36*
X2300Y8094D02*
X2196D01*
X2096Y8068D01*
X2006Y8016D01*
X1933Y7943D01*
X1881Y7853D01*
X1854Y7753D01*
Y7649D01*
X1881Y7549D01*
X1933Y7459D01*
X2006Y7386D01*
X2096Y7334D01*
X2196Y7307D01*
X2300D01*
X2400Y7334D01*
X2402Y7335D01*
X2634Y7103D01*
X2634Y7103D01*
X2687Y7068D01*
X2748Y7056D01*
X2982D01*
X2996Y7006D01*
X2933Y6943D01*
X2881Y6853D01*
X2854Y6753D01*
Y6740D01*
X3248D01*
X3642D01*
Y6753D01*
X3615Y6853D01*
X3563Y6943D01*
X3500Y7006D01*
X3514Y7056D01*
X3701D01*
X4485Y6272D01*
Y5236D01*
X4485Y5236D01*
X4497Y5175D01*
X4532Y5123D01*
X4965Y4690D01*
X5017Y4655D01*
X5079Y4643D01*
X5079Y4643D01*
X5603D01*
X5745Y4500D01*
Y4424D01*
X5696Y4391D01*
X5644Y4313D01*
X5625Y4220D01*
X5644Y4128D01*
X5696Y4050D01*
X5774Y3998D01*
X5866Y3980D01*
X5945D01*
X6037Y3998D01*
X6115Y4050D01*
X6167Y4128D01*
X6186Y4220D01*
X6167Y4313D01*
X6115Y4391D01*
X6066Y4424D01*
Y4567D01*
X6066Y4567D01*
X6054Y4628D01*
X6019Y4680D01*
X6019Y4680D01*
X5819Y4881D01*
X5820Y4949D01*
X5827Y4956D01*
X5866Y4948D01*
X5945D01*
X6037Y4966D01*
X6115Y5019D01*
X6127Y5036D01*
X6339D01*
X6345Y5030D01*
X6418Y5000D01*
X6496D01*
X6568Y5030D01*
X6624Y5085D01*
X6654Y5158D01*
Y5236D01*
X6624Y5308D01*
X6568Y5364D01*
X6496Y5394D01*
X6418D01*
X6345Y5364D01*
X6339Y5357D01*
X6116D01*
X6115Y5359D01*
X6037Y5411D01*
X5945Y5430D01*
X5866D01*
X5774Y5411D01*
X5696Y5359D01*
X5644Y5281D01*
X5625Y5189D01*
X5644Y5097D01*
X5696Y5019D01*
X5716Y5005D01*
X5696Y4958D01*
X5669Y4964D01*
X5669Y4964D01*
X5145D01*
X4806Y5303D01*
Y6339D01*
X4806Y6339D01*
X4794Y6400D01*
X4759Y6452D01*
X4759Y6452D01*
X3881Y7330D01*
X3829Y7365D01*
X3768Y7377D01*
X3768Y7377D01*
X3552D01*
X3531Y7427D01*
X3563Y7459D01*
X3615Y7549D01*
X3642Y7649D01*
Y7661D01*
X3248D01*
X2854D01*
Y7649D01*
X2881Y7549D01*
X2933Y7459D01*
X2965Y7427D01*
X2944Y7377D01*
X2815D01*
X2621Y7571D01*
X2642Y7649D01*
Y7753D01*
X2615Y7853D01*
X2563Y7943D01*
X2490Y8016D01*
X2400Y8068D01*
X2300Y8094D01*
D02*
G37*
G36*
X12272Y5311D02*
Y4911D01*
X12434D01*
Y5118D01*
X12419Y5195D01*
X12375Y5260D01*
X12310Y5304D01*
X12272Y5311D01*
D02*
G37*
G36*
X12194Y5311D02*
X12156Y5304D01*
X12091Y5260D01*
X12048Y5195D01*
X12032Y5118D01*
Y4911D01*
X12194D01*
Y5311D01*
D02*
G37*
G36*
X12434Y4833D02*
X12272D01*
Y4433D01*
X12310Y4441D01*
X12375Y4484D01*
X12419Y4549D01*
X12434Y4626D01*
Y4833D01*
D02*
G37*
G36*
X12194D02*
X12032D01*
Y4626D01*
X12048Y4549D01*
X12091Y4484D01*
X12156Y4441D01*
X12194Y4433D01*
Y4833D01*
D02*
G37*
G36*
X15233Y5319D02*
X15156Y5304D01*
X15091Y5260D01*
X15048Y5195D01*
X15032Y5118D01*
Y4626D01*
X15048Y4549D01*
X15091Y4484D01*
X15156Y4441D01*
X15233Y4425D01*
X15310Y4441D01*
X15375Y4484D01*
X15418Y4549D01*
X15434Y4626D01*
Y5118D01*
X15418Y5195D01*
X15375Y5260D01*
X15310Y5304D01*
X15233Y5319D01*
D02*
G37*
G36*
X14733D02*
X14656Y5304D01*
X14591Y5260D01*
X14548Y5195D01*
X14532Y5118D01*
Y4626D01*
X14548Y4549D01*
X14591Y4484D01*
X14656Y4441D01*
X14733Y4425D01*
X14810Y4441D01*
X14875Y4484D01*
X14919Y4549D01*
X14934Y4626D01*
Y5118D01*
X14919Y5195D01*
X14875Y5260D01*
X14810Y5304D01*
X14733Y5319D01*
D02*
G37*
G36*
X3300Y5094D02*
X3196D01*
X3096Y5068D01*
X3006Y5016D01*
X2933Y4943D01*
X2881Y4853D01*
X2854Y4753D01*
Y4649D01*
X2881Y4549D01*
X2933Y4459D01*
X3006Y4386D01*
X3096Y4334D01*
X3196Y4307D01*
X3300D01*
X3400Y4334D01*
X3490Y4386D01*
X3563Y4459D01*
X3615Y4549D01*
X3642Y4649D01*
Y4753D01*
X3615Y4853D01*
X3563Y4943D01*
X3490Y5016D01*
X3400Y5068D01*
X3300Y5094D01*
D02*
G37*
G36*
X8504Y4461D02*
D01*
Y4260D01*
X8737D01*
X8726Y4313D01*
X8674Y4391D01*
X8596Y4443D01*
X8504Y4461D01*
D02*
G37*
G36*
X8425D02*
X8333Y4443D01*
X8255Y4391D01*
X8203Y4313D01*
X8192Y4260D01*
X8425D01*
Y4461D01*
D02*
G37*
G36*
X3300Y6094D02*
X3196D01*
X3096Y6068D01*
X3006Y6016D01*
X2933Y5943D01*
X2881Y5853D01*
X2854Y5753D01*
Y5649D01*
X2881Y5549D01*
X2933Y5459D01*
X3006Y5386D01*
X3096Y5334D01*
X3196Y5307D01*
X3300D01*
X3400Y5334D01*
X3460Y5368D01*
X4329Y4499D01*
X4325Y4488D01*
Y4410D01*
X4355Y4337D01*
X4410Y4282D01*
X4482Y4252D01*
X4561D01*
X4633Y4282D01*
X4689Y4337D01*
X4719Y4410D01*
Y4488D01*
X4689Y4560D01*
X4659Y4590D01*
X4655Y4610D01*
X4620Y4662D01*
X3640Y5642D01*
X3642Y5649D01*
Y5753D01*
X3615Y5853D01*
X3563Y5943D01*
X3490Y6016D01*
X3400Y6068D01*
X3300Y6094D01*
D02*
G37*
G36*
X8737Y4181D02*
X8504D01*
Y3980D01*
X8596Y3998D01*
X8674Y4050D01*
X8726Y4128D01*
X8737Y4181D01*
D02*
G37*
G36*
X8425D02*
X8192D01*
X8203Y4128D01*
X8255Y4050D01*
X8333Y3998D01*
X8425Y3980D01*
D01*
Y4181D01*
D02*
G37*
G36*
X5236Y4409D02*
X5158D01*
X5085Y4379D01*
X5030Y4324D01*
X5000Y4252D01*
Y4203D01*
X4666Y3869D01*
X3644D01*
X3628Y3950D01*
X3576Y4029D01*
X3498Y4081D01*
X3406Y4099D01*
X3091D01*
X2998Y4081D01*
X2920Y4029D01*
X2868Y3950D01*
X2850Y3858D01*
Y3543D01*
X2868Y3451D01*
X2920Y3373D01*
X2998Y3321D01*
X3091Y3302D01*
X3406D01*
X3498Y3321D01*
X3576Y3373D01*
X3628Y3451D01*
X3646Y3543D01*
Y3548D01*
X4732D01*
X4732Y3548D01*
X4794Y3560D01*
X4846Y3595D01*
X5271Y4020D01*
X5271Y4020D01*
X5280Y4034D01*
X5308Y4046D01*
X5364Y4101D01*
X5394Y4173D01*
Y4252D01*
X5364Y4324D01*
X5308Y4379D01*
X5236Y4409D01*
D02*
G37*
G36*
X27327Y4636D02*
X27220D01*
X27118Y4608D01*
X27026Y4555D01*
X26951Y4480D01*
X26898Y4388D01*
X26870Y4285D01*
Y4179D01*
X26898Y4077D01*
X26951Y3984D01*
X27026Y3909D01*
X27118Y3856D01*
X27220Y3829D01*
X27327D01*
X27429Y3856D01*
X27521Y3909D01*
X27597Y3984D01*
X27650Y4077D01*
X27677Y4179D01*
Y4285D01*
X27650Y4388D01*
X27597Y4480D01*
X27521Y4555D01*
X27429Y4608D01*
X27327Y4636D01*
D02*
G37*
G36*
X12733Y5319D02*
X12656Y5304D01*
X12591Y5260D01*
X12548Y5195D01*
X12532Y5118D01*
Y4626D01*
X12548Y4549D01*
X12557Y4535D01*
Y4135D01*
X12510Y4088D01*
X12480Y4016D01*
Y3937D01*
X12510Y3865D01*
X12566Y3810D01*
X12638Y3780D01*
X12716D01*
X12789Y3810D01*
X12844Y3865D01*
X12874Y3937D01*
Y4016D01*
X12874Y4016D01*
X12879Y4039D01*
X12879Y4039D01*
Y4489D01*
X12918Y4549D01*
X12934Y4626D01*
Y5118D01*
X12918Y5195D01*
X12875Y5260D01*
X12810Y5304D01*
X12733Y5319D01*
D02*
G37*
G36*
X13233D02*
X13156Y5304D01*
X13091Y5260D01*
X13048Y5195D01*
X13032Y5118D01*
Y4626D01*
X13048Y4549D01*
X13073Y4512D01*
Y3902D01*
X13061Y3891D01*
X13032Y3819D01*
Y3740D01*
X13061Y3668D01*
X13117Y3613D01*
X13189Y3583D01*
X13268D01*
X13340Y3613D01*
X13395Y3668D01*
X13425Y3740D01*
Y3819D01*
X13395Y3891D01*
X13394Y3893D01*
Y4512D01*
X13419Y4549D01*
X13434Y4626D01*
Y5118D01*
X13419Y5195D01*
X13375Y5260D01*
X13310Y5304D01*
X13233Y5319D01*
D02*
G37*
G36*
X22323Y6535D02*
X22244D01*
X22172Y6505D01*
X22117Y6450D01*
X22087Y6378D01*
Y6299D01*
X22117Y6227D01*
X22172Y6172D01*
X22244Y6142D01*
X22323D01*
X22367Y6160D01*
X22579D01*
Y5719D01*
X22579Y5689D01*
X22579Y5639D01*
Y5177D01*
X22704D01*
Y4931D01*
X22678Y4905D01*
X22648Y4832D01*
Y4754D01*
X22678Y4682D01*
X22704Y4655D01*
Y4321D01*
X22569D01*
Y3839D01*
X22569Y3809D01*
X22569Y3759D01*
Y3573D01*
X22844D01*
X23120D01*
Y3759D01*
X23120Y3789D01*
X23120Y3839D01*
Y4321D01*
X22985D01*
Y4655D01*
X23011Y4682D01*
X23041Y4754D01*
Y4832D01*
X23011Y4905D01*
X22985Y4931D01*
Y5177D01*
X23110D01*
Y5639D01*
X23110Y5669D01*
X23110Y5719D01*
Y6160D01*
X23366D01*
Y5719D01*
X23366Y5689D01*
X23366Y5639D01*
Y5177D01*
X23491D01*
Y4931D01*
X23465Y4905D01*
X23435Y4832D01*
Y4754D01*
X23465Y4682D01*
X23491Y4655D01*
Y4321D01*
X23356D01*
Y3839D01*
X23356Y3809D01*
X23356Y3759D01*
Y3573D01*
X23632D01*
X23907D01*
Y3759D01*
X23907Y3789D01*
X23907Y3839D01*
Y4321D01*
X23772D01*
Y4655D01*
X23799Y4682D01*
X23829Y4754D01*
Y4832D01*
X23799Y4905D01*
X23772Y4931D01*
Y5177D01*
X23898D01*
Y5639D01*
X23898Y5669D01*
X23898Y5719D01*
Y6160D01*
X24154D01*
Y5719D01*
X24154Y5689D01*
X24154Y5639D01*
Y5177D01*
X24279D01*
Y4931D01*
X24252Y4905D01*
X24222Y4832D01*
Y4754D01*
X24252Y4682D01*
X24279Y4655D01*
Y4321D01*
X24144D01*
Y3839D01*
X24144Y3809D01*
X24144Y3759D01*
Y3573D01*
X24419D01*
X24695D01*
Y3759D01*
X24695Y3789D01*
X24695Y3839D01*
Y4321D01*
X24560D01*
Y4655D01*
X24586Y4682D01*
X24616Y4754D01*
Y4832D01*
X24586Y4905D01*
X24560Y4931D01*
Y5177D01*
X24685D01*
Y5639D01*
X24685Y5669D01*
X24685Y5719D01*
Y6160D01*
X24941D01*
Y5719D01*
X24941Y5689D01*
X24941Y5639D01*
Y5177D01*
X25066D01*
Y4931D01*
X25040Y4905D01*
X25010Y4832D01*
Y4754D01*
X25040Y4682D01*
X25066Y4655D01*
Y4321D01*
X24931D01*
Y3839D01*
X24931Y3809D01*
X24931Y3759D01*
Y3573D01*
X25207D01*
Y3533D01*
D01*
Y3573D01*
X25482D01*
Y3759D01*
X25482Y3789D01*
X25482Y3839D01*
Y4321D01*
X25347D01*
Y4655D01*
X25374Y4682D01*
X25404Y4754D01*
Y4832D01*
X25374Y4905D01*
X25347Y4931D01*
Y5177D01*
X25472D01*
Y5639D01*
X25472Y5669D01*
X25472Y5719D01*
Y6181D01*
X25347D01*
Y6232D01*
X25374Y6272D01*
X25387Y6341D01*
X25374Y6410D01*
X25334Y6469D01*
X25276Y6508D01*
X25207Y6522D01*
X22356D01*
X22323Y6535D01*
D02*
G37*
G36*
X2300Y4094D02*
X2196D01*
X2096Y4068D01*
X2006Y4016D01*
X1933Y3943D01*
X1881Y3853D01*
X1854Y3753D01*
Y3649D01*
X1881Y3549D01*
X1933Y3459D01*
X2006Y3386D01*
X2096Y3334D01*
X2196Y3307D01*
X2300D01*
X2400Y3334D01*
X2490Y3386D01*
X2563Y3459D01*
X2615Y3549D01*
X2642Y3649D01*
Y3753D01*
X2615Y3853D01*
X2563Y3943D01*
X2490Y4016D01*
X2400Y4068D01*
X2300Y4094D01*
D02*
G37*
G36*
X25482Y3494D02*
X25246D01*
Y3278D01*
X25482D01*
Y3494D01*
D02*
G37*
G36*
X25167D02*
X24931D01*
Y3278D01*
X25167D01*
Y3494D01*
D02*
G37*
G36*
X24695D02*
X24459D01*
Y3278D01*
X24695D01*
Y3494D01*
D02*
G37*
G36*
X24380D02*
X24144D01*
Y3278D01*
X24380D01*
Y3494D01*
D02*
G37*
G36*
X23907D02*
X23671D01*
Y3278D01*
X23907D01*
Y3494D01*
D02*
G37*
G36*
X23593D02*
X23356D01*
Y3278D01*
X23593D01*
Y3494D01*
D02*
G37*
G36*
X23120D02*
X22884D01*
Y3278D01*
X23120D01*
Y3494D01*
D02*
G37*
G36*
X22805D02*
X22569D01*
Y3278D01*
X22805D01*
Y3494D01*
D02*
G37*
G36*
X5945Y3461D02*
X5866D01*
X5774Y3443D01*
X5696Y3391D01*
X5644Y3313D01*
X5625Y3220D01*
X5644Y3128D01*
X5696Y3050D01*
X5774Y2998D01*
X5866Y2980D01*
X5945D01*
X6037Y2998D01*
X6115Y3050D01*
X6124Y3064D01*
X6343D01*
X6345Y3061D01*
X6418Y3031D01*
X6496D01*
X6568Y3061D01*
X6624Y3117D01*
X6654Y3189D01*
Y3268D01*
X6624Y3340D01*
X6568Y3395D01*
X6496Y3425D01*
X6418D01*
X6345Y3395D01*
X6335Y3385D01*
X6119D01*
X6115Y3391D01*
X6037Y3443D01*
X5945Y3461D01*
D02*
G37*
G36*
X27436Y3263D02*
X27313D01*
Y2894D01*
X27682D01*
Y3017D01*
X27663Y3111D01*
X27610Y3191D01*
X27530Y3244D01*
X27436Y3263D01*
D02*
G37*
G36*
X27234D02*
X27111D01*
X27017Y3244D01*
X26937Y3191D01*
X26884Y3111D01*
X26865Y3017D01*
Y2894D01*
X27234D01*
Y3263D01*
D02*
G37*
G36*
X2310Y12587D02*
X2201D01*
X2096Y12558D01*
X2002Y12504D01*
X1925Y12427D01*
X1871Y12333D01*
X1843Y12228D01*
Y12119D01*
X1871Y12014D01*
X1925Y11919D01*
X2002Y11842D01*
X2095Y11789D01*
Y11484D01*
X2095Y11484D01*
X2108Y11423D01*
X2142Y11371D01*
X2524Y10989D01*
X2576Y10954D01*
X2638Y10942D01*
X2638Y10942D01*
X4449D01*
X4449Y10942D01*
X4510Y10954D01*
X4562Y10989D01*
X5271Y11697D01*
X5271Y11697D01*
X5271Y11697D01*
X5500Y11926D01*
X5695D01*
X5696Y11924D01*
X5774Y11872D01*
X5866Y11854D01*
X5945D01*
X6037Y11872D01*
X6115Y11924D01*
X6116Y11926D01*
X6626D01*
X7162Y11390D01*
Y3492D01*
X6587Y2916D01*
X5118D01*
X5057Y2904D01*
X5005Y2869D01*
X5005Y2869D01*
X4855Y2720D01*
X3149D01*
X3143Y2726D01*
X3071Y2756D01*
X2992D01*
X2920Y2726D01*
X2865Y2671D01*
X2835Y2598D01*
Y2520D01*
X2865Y2448D01*
X2920Y2392D01*
X2992Y2362D01*
X3071D01*
X3143Y2392D01*
X3149Y2398D01*
X4921D01*
X4921Y2398D01*
X4983Y2411D01*
X5035Y2446D01*
X5185Y2595D01*
X6654D01*
X6654Y2595D01*
X6715Y2608D01*
X6767Y2642D01*
X7436Y3312D01*
X7436Y3312D01*
X7471Y3364D01*
X7483Y3425D01*
Y11457D01*
X7471Y11518D01*
X7436Y11570D01*
X7436Y11570D01*
X6806Y12200D01*
X6754Y12235D01*
X6693Y12247D01*
X6693Y12247D01*
X6127D01*
X6115Y12265D01*
X6037Y12317D01*
X5945Y12335D01*
X5866D01*
X5774Y12317D01*
X5696Y12265D01*
X5684Y12247D01*
X5433D01*
X5433Y12247D01*
X5372Y12235D01*
X5320Y12200D01*
X5320Y12200D01*
X5044Y11925D01*
X5044Y11925D01*
X4382Y11263D01*
X2704D01*
X2416Y11551D01*
Y11789D01*
X2510Y11842D01*
X2587Y11919D01*
X2641Y12014D01*
X2669Y12119D01*
Y12228D01*
X2641Y12333D01*
X2587Y12427D01*
X2510Y12504D01*
X2415Y12558D01*
X2310Y12587D01*
D02*
G37*
G36*
X27682Y2815D02*
X27313D01*
Y2446D01*
X27436D01*
X27530Y2465D01*
X27610Y2518D01*
X27663Y2598D01*
X27682Y2692D01*
Y2815D01*
D02*
G37*
G36*
X27234D02*
X26865D01*
Y2692D01*
X26884Y2598D01*
X26937Y2518D01*
X27017Y2465D01*
X27111Y2446D01*
X27234D01*
Y2815D01*
D02*
G37*
G36*
X8504Y2493D02*
D01*
Y2291D01*
X8737D01*
X8726Y2344D01*
X8674Y2422D01*
X8596Y2474D01*
X8504Y2493D01*
D02*
G37*
G36*
X8425D02*
X8333Y2474D01*
X8255Y2422D01*
X8203Y2344D01*
X8192Y2291D01*
X8425D01*
Y2493D01*
D02*
G37*
G36*
X15233Y3035D02*
X15156Y3020D01*
X15091Y2977D01*
X15048Y2911D01*
X15032Y2835D01*
Y2343D01*
X15048Y2266D01*
X15091Y2201D01*
X15156Y2157D01*
X15233Y2142D01*
X15310Y2157D01*
X15375Y2201D01*
X15418Y2266D01*
X15434Y2343D01*
Y2835D01*
X15418Y2911D01*
X15375Y2977D01*
X15310Y3020D01*
X15233Y3035D01*
D02*
G37*
G36*
X14733D02*
X14656Y3020D01*
X14591Y2977D01*
X14548Y2911D01*
X14532Y2835D01*
Y2343D01*
X14548Y2266D01*
X14591Y2201D01*
X14656Y2157D01*
X14733Y2142D01*
X14810Y2157D01*
X14875Y2201D01*
X14919Y2266D01*
X14934Y2343D01*
Y2835D01*
X14919Y2911D01*
X14875Y2977D01*
X14810Y3020D01*
X14733Y3035D01*
D02*
G37*
G36*
X10833Y3776D02*
X10191D01*
Y2909D01*
X10833D01*
Y3363D01*
X11792D01*
X12093Y3063D01*
Y2978D01*
X12091Y2977D01*
X12048Y2911D01*
X12032Y2835D01*
Y2343D01*
X12048Y2266D01*
X12091Y2201D01*
X12156Y2157D01*
X12233Y2142D01*
X12310Y2157D01*
X12375Y2201D01*
X12419Y2266D01*
X12434Y2343D01*
Y2835D01*
X12419Y2911D01*
X12375Y2977D01*
X12374Y2978D01*
Y3121D01*
X12363Y3175D01*
X12332Y3221D01*
X11950Y3603D01*
X11904Y3634D01*
X11850Y3644D01*
X10833D01*
Y3776D01*
D02*
G37*
G36*
X8737Y2213D02*
X8504D01*
Y2011D01*
X8596Y2029D01*
X8674Y2082D01*
X8726Y2160D01*
X8737Y2213D01*
D02*
G37*
G36*
X8425D02*
X8192D01*
X8203Y2160D01*
X8255Y2082D01*
X8333Y2029D01*
X8425Y2011D01*
D01*
Y2213D01*
D02*
G37*
G36*
X1102Y5315D02*
X1024D01*
X951Y5285D01*
X896Y5230D01*
X866Y5157D01*
Y5079D01*
X896Y5007D01*
X902Y5000D01*
Y2913D01*
X902Y2913D01*
X915Y2852D01*
X949Y2800D01*
X1737Y2012D01*
X1737Y2012D01*
X1789Y1978D01*
X1850Y1965D01*
X1850Y1965D01*
X5157D01*
X5157Y1965D01*
X5219Y1978D01*
X5271Y2012D01*
X5368Y2109D01*
X5677D01*
X5696Y2082D01*
X5774Y2029D01*
X5866Y2011D01*
X5945D01*
X6037Y2029D01*
X6115Y2082D01*
X6167Y2160D01*
X6186Y2252D01*
X6167Y2344D01*
X6115Y2422D01*
X6037Y2474D01*
X5945Y2493D01*
X5866D01*
X5774Y2474D01*
X5754Y2461D01*
X5746Y2459D01*
X5703Y2431D01*
X5301D01*
X5240Y2418D01*
X5188Y2384D01*
X5188Y2384D01*
X5091Y2287D01*
X1917D01*
X1224Y2980D01*
Y5000D01*
X1230Y5007D01*
X1260Y5079D01*
Y5157D01*
X1230Y5230D01*
X1174Y5285D01*
X1102Y5315D01*
D02*
G37*
G36*
X15965Y3487D02*
X14469D01*
X14415Y3476D01*
X14369Y3446D01*
X14134Y3210D01*
X14103Y3165D01*
X14093Y3111D01*
Y2978D01*
X14091Y2977D01*
X14048Y2911D01*
X14032Y2835D01*
Y2343D01*
X14048Y2266D01*
X14091Y2201D01*
X14156Y2157D01*
X14233Y2142D01*
X14310Y2157D01*
X14375Y2201D01*
X14418Y2266D01*
X14434Y2343D01*
Y2835D01*
X14418Y2911D01*
X14375Y2977D01*
X14374Y2978D01*
Y3053D01*
X14527Y3206D01*
X15906D01*
X16330Y2782D01*
X16311Y2736D01*
X16274D01*
Y1870D01*
X16915D01*
Y2736D01*
X16686D01*
Y2765D01*
X16675Y2819D01*
X16645Y2865D01*
X16064Y3446D01*
X16018Y3476D01*
X15965Y3487D01*
D02*
G37*
G36*
X6496Y1732D02*
X6418D01*
X6345Y1702D01*
X6290Y1647D01*
X6260Y1575D01*
Y1496D01*
X6271Y1470D01*
X6239Y1420D01*
X6116D01*
X6115Y1422D01*
X6037Y1474D01*
X5945Y1493D01*
X5866D01*
X5774Y1474D01*
X5696Y1422D01*
X5644Y1344D01*
X5625Y1252D01*
X5644Y1160D01*
X5696Y1082D01*
X5774Y1029D01*
X5866Y1011D01*
X5945D01*
X6037Y1029D01*
X6115Y1082D01*
X6127Y1099D01*
X6339D01*
X6339Y1099D01*
X6400Y1111D01*
X6452Y1146D01*
X6556Y1250D01*
X6556Y1250D01*
X6591Y1302D01*
X6603Y1364D01*
Y1403D01*
X6624Y1424D01*
X6654Y1496D01*
Y1575D01*
X6624Y1647D01*
X6568Y1702D01*
X6496Y1732D01*
D02*
G37*
G36*
X16915Y1705D02*
X16634D01*
Y1311D01*
X16915D01*
Y1705D01*
D02*
G37*
G36*
X16555D02*
X16274D01*
Y1311D01*
X16555D01*
Y1705D01*
D02*
G37*
G36*
X18186Y1654D02*
X18173D01*
Y1299D01*
X18528D01*
Y1312D01*
X18501Y1412D01*
X18449Y1502D01*
X18376Y1575D01*
X18286Y1627D01*
X18186Y1654D01*
D02*
G37*
G36*
X18094D02*
X18082D01*
X17982Y1627D01*
X17892Y1575D01*
X17819Y1502D01*
X17767Y1412D01*
X17740Y1312D01*
Y1299D01*
X18094D01*
Y1654D01*
D02*
G37*
G36*
X13733Y3035D02*
X13656Y3020D01*
X13591Y2977D01*
X13548Y2911D01*
X13532Y2835D01*
Y2343D01*
X13548Y2266D01*
X13591Y2201D01*
X13615Y2185D01*
Y2071D01*
X13626Y2017D01*
X13656Y1972D01*
X13838Y1790D01*
X13883Y1760D01*
X13937Y1749D01*
X14607D01*
X14710Y1647D01*
X14691Y1600D01*
X14551D01*
Y959D01*
X15417D01*
Y1600D01*
X15066D01*
Y1630D01*
X15055Y1683D01*
X15025Y1729D01*
X14765Y1989D01*
X14719Y2020D01*
X14665Y2030D01*
X13995D01*
X13896Y2129D01*
Y2232D01*
X13918Y2266D01*
X13934Y2343D01*
Y2835D01*
X13918Y2911D01*
X13875Y2977D01*
X13810Y3020D01*
X13733Y3035D01*
D02*
G37*
G36*
X13233D02*
X13156Y3020D01*
X13091Y2977D01*
X13048Y2911D01*
X13032Y2835D01*
Y2343D01*
X13048Y2266D01*
X13091Y2201D01*
X13093Y2200D01*
Y1531D01*
X13103Y1477D01*
X13134Y1431D01*
X13385Y1180D01*
X13430Y1150D01*
X13484Y1139D01*
X13520D01*
Y959D01*
X14386D01*
Y1600D01*
X13520D01*
Y1508D01*
X13473Y1489D01*
X13374Y1589D01*
Y2200D01*
X13375Y2201D01*
X13419Y2266D01*
X13434Y2343D01*
Y2835D01*
X13419Y2911D01*
X13375Y2977D01*
X13310Y3020D01*
X13233Y3035D01*
D02*
G37*
G36*
X12733D02*
X12656Y3020D01*
X12591Y2977D01*
X12548Y2911D01*
X12532Y2835D01*
Y2343D01*
X12548Y2266D01*
X12591Y2201D01*
X12593Y2200D01*
Y2083D01*
X12326Y1816D01*
X12295Y1770D01*
X12285Y1717D01*
Y1600D01*
X11992D01*
Y959D01*
X12858D01*
Y1600D01*
X12566D01*
Y1658D01*
X12832Y1925D01*
X12863Y1971D01*
X12874Y2024D01*
Y2200D01*
X12875Y2201D01*
X12918Y2266D01*
X12934Y2343D01*
Y2835D01*
X12918Y2911D01*
X12875Y2977D01*
X12810Y3020D01*
X12733Y3035D01*
D02*
G37*
G36*
X11733D02*
X11656Y3020D01*
X11591Y2977D01*
X11548Y2911D01*
X11532Y2835D01*
Y2343D01*
X11548Y2266D01*
X11591Y2201D01*
X11593Y2200D01*
Y2146D01*
X11294Y1847D01*
X11264Y1802D01*
X11253Y1748D01*
Y1600D01*
X10961D01*
Y959D01*
X11827D01*
Y1600D01*
X11534D01*
Y1690D01*
X11832Y1988D01*
X11863Y2034D01*
X11874Y2087D01*
Y2200D01*
X11875Y2201D01*
X11918Y2266D01*
X11934Y2343D01*
Y2835D01*
X11918Y2911D01*
X11875Y2977D01*
X11810Y3020D01*
X11733Y3035D01*
D02*
G37*
G36*
X18528Y1220D02*
X18173D01*
Y866D01*
X18186D01*
X18286Y893D01*
X18376Y945D01*
X18449Y1018D01*
X18501Y1108D01*
X18528Y1208D01*
Y1220D01*
D02*
G37*
G36*
X18094D02*
X17740D01*
Y1208D01*
X17767Y1108D01*
X17819Y1018D01*
X17892Y945D01*
X17982Y893D01*
X18082Y866D01*
X18094D01*
Y1220D01*
D02*
G37*
G36*
X20291Y1658D02*
X19976D01*
X19884Y1640D01*
X19806Y1588D01*
X19754Y1509D01*
X19736Y1417D01*
Y1102D01*
X19754Y1010D01*
X19806Y932D01*
X19884Y880D01*
X19976Y862D01*
X20291D01*
X20384Y880D01*
X20462Y932D01*
X20514Y1010D01*
X20532Y1102D01*
Y1417D01*
X20514Y1509D01*
X20462Y1588D01*
X20384Y1640D01*
X20291Y1658D01*
D02*
G37*
G36*
X16915Y1232D02*
X16634D01*
Y839D01*
X16915D01*
Y1232D01*
D02*
G37*
G36*
X16555D02*
X16274D01*
Y839D01*
X16555D01*
Y1232D01*
D02*
G37*
G36*
X27225Y1594D02*
X27105D01*
X26987Y1571D01*
X26876Y1525D01*
X26776Y1458D01*
X26691Y1373D01*
X26625Y1273D01*
X26579Y1162D01*
X26555Y1044D01*
Y924D01*
X26579Y806D01*
X26625Y695D01*
X26691Y595D01*
X26776Y510D01*
X26876Y443D01*
X26987Y397D01*
X27105Y374D01*
X27225D01*
X27343Y397D01*
X27454Y443D01*
X27554Y510D01*
X27639Y595D01*
X27706Y695D01*
X27752Y806D01*
X27776Y924D01*
Y1044D01*
X27752Y1162D01*
X27706Y1273D01*
X27639Y1373D01*
X27554Y1458D01*
X27454Y1525D01*
X27343Y1571D01*
X27225Y1594D01*
D02*
G37*
G36*
X2816D02*
X2696D01*
X2578Y1571D01*
X2467Y1525D01*
X2367Y1458D01*
X2282Y1373D01*
X2215Y1273D01*
X2169Y1162D01*
X2146Y1044D01*
Y924D01*
X2169Y806D01*
X2215Y695D01*
X2282Y595D01*
X2367Y510D01*
X2467Y443D01*
X2578Y397D01*
X2696Y374D01*
X2816D01*
X2934Y397D01*
X3045Y443D01*
X3145Y510D01*
X3230Y595D01*
X3297Y695D01*
X3343Y806D01*
X3366Y924D01*
Y1044D01*
X3343Y1162D01*
X3297Y1273D01*
X3230Y1373D01*
X3145Y1458D01*
X3045Y1525D01*
X2934Y1571D01*
X2816Y1594D01*
D02*
G37*
%LPD*%
G36*
X22570Y17096D02*
X22566Y17041D01*
X22518Y17009D01*
X22473Y16941D01*
X22457Y16860D01*
Y16604D01*
X22473Y16524D01*
X22518Y16455D01*
X22587Y16410D01*
X22648Y16397D01*
Y16305D01*
X22662Y16236D01*
X22701Y16177D01*
X22943Y15935D01*
X22958Y15925D01*
X22970Y15857D01*
X22964Y15849D01*
X20906D01*
X20906Y16249D01*
X20292D01*
X20273Y16295D01*
X20379Y16400D01*
X20389Y16398D01*
X20477D01*
X20562Y16420D01*
X20639Y16465D01*
X20701Y16527D01*
X20745Y16603D01*
X20768Y16688D01*
Y16776D01*
X20745Y16861D01*
X20701Y16938D01*
X20639Y17000D01*
X20562Y17044D01*
X20477Y17067D01*
X20389D01*
X20304Y17044D01*
X20228Y17000D01*
X20165Y16938D01*
X20121Y16861D01*
X20098Y16776D01*
Y16688D01*
X20121Y16603D01*
X20144Y16563D01*
X19835Y16254D01*
X19785Y16258D01*
X19764Y16301D01*
X19773Y16315D01*
X19784Y16368D01*
Y16426D01*
X19851Y16465D01*
X19913Y16527D01*
X19958Y16603D01*
X19980Y16688D01*
Y16776D01*
X19958Y16861D01*
X19913Y16938D01*
X19851Y17000D01*
X19775Y17044D01*
X19690Y17067D01*
X19602D01*
X19517Y17044D01*
X19440Y17000D01*
X19378Y16938D01*
X19334Y16861D01*
X19311Y16776D01*
Y16688D01*
X19334Y16603D01*
X19378Y16527D01*
X19440Y16465D01*
X19459Y16454D01*
X19467Y16391D01*
X19325Y16249D01*
X18999D01*
Y16427D01*
X19064Y16465D01*
X19126Y16527D01*
X19170Y16603D01*
X19193Y16688D01*
Y16776D01*
X19170Y16861D01*
X19126Y16938D01*
X19064Y17000D01*
X18987Y17044D01*
X18902Y17067D01*
X18814D01*
X18729Y17044D01*
X18653Y17000D01*
X18590Y16938D01*
X18546Y16861D01*
X18524Y16776D01*
Y16688D01*
X18546Y16603D01*
X18590Y16527D01*
X18653Y16465D01*
X18718Y16427D01*
Y16249D01*
X18081D01*
Y15743D01*
X17699Y15361D01*
X17661Y15366D01*
X17610Y15417D01*
X17547Y15454D01*
X17477Y15472D01*
X17405D01*
X17335Y15454D01*
X17307Y15438D01*
X17149D01*
Y15945D01*
X17135Y16014D01*
X17096Y16073D01*
X16935Y16233D01*
Y16350D01*
X16947Y16352D01*
X17025Y16405D01*
X17077Y16483D01*
X17095Y16575D01*
Y16890D01*
X17077Y16982D01*
X17025Y17060D01*
X16996Y17079D01*
X16991Y17129D01*
X17083Y17221D01*
X22445D01*
X22570Y17096D01*
D02*
G37*
G36*
X20177Y13483D02*
Y12795D01*
X19567D01*
Y12441D01*
Y12126D01*
Y11811D01*
Y11496D01*
Y11181D01*
Y10906D01*
Y10889D01*
X19418D01*
X19413Y10898D01*
X19362Y10949D01*
X19299Y10985D01*
X19229Y11004D01*
X19157D01*
X19087Y10985D01*
X19024Y10949D01*
X18972Y10898D01*
X18936Y10835D01*
X18917Y10765D01*
Y10692D01*
X18936Y10622D01*
X18972Y10559D01*
X19024Y10508D01*
X19087Y10472D01*
X19157Y10453D01*
X19229D01*
X19299Y10472D01*
X19362Y10508D01*
X19413Y10559D01*
X19418Y10568D01*
X19567D01*
Y10551D01*
Y10453D01*
X19882D01*
Y10413D01*
X19921D01*
Y10236D01*
X20177D01*
Y9547D01*
X19510D01*
X19488Y9569D01*
Y10157D01*
X19035D01*
Y9843D01*
X18957D01*
Y10157D01*
X18720D01*
Y9843D01*
X18642D01*
Y10157D01*
X18212D01*
Y10306D01*
X18220Y10311D01*
X18272Y10362D01*
X18308Y10425D01*
X18327Y10495D01*
Y10568D01*
X18308Y10638D01*
X18272Y10701D01*
X18220Y10752D01*
X18158Y10788D01*
X18087Y10807D01*
X18015D01*
X17945Y10788D01*
X17882Y10752D01*
X17831Y10701D01*
X17794Y10638D01*
X17776Y10568D01*
Y10495D01*
X17794Y10425D01*
X17831Y10362D01*
X17882Y10311D01*
X17891Y10306D01*
Y10157D01*
X16929D01*
Y9547D01*
X16241D01*
X16240D01*
Y10175D01*
X16298Y10234D01*
X16496D01*
X16510Y10236D01*
X16850D01*
Y10551D01*
Y10866D01*
Y11181D01*
Y11496D01*
Y11811D01*
Y12126D01*
Y12441D01*
Y12795D01*
X16240D01*
Y13484D01*
X16929D01*
Y12874D01*
X19488D01*
Y13215D01*
X19491Y13228D01*
Y13416D01*
X19559Y13484D01*
X20177D01*
Y13483D01*
D02*
G37*
G36*
X12992Y12874D02*
X11417D01*
Y14173D01*
X12992D01*
Y12874D01*
D02*
G37*
%LPC*%
G36*
X22052Y17067D02*
X22047D01*
Y16772D01*
X22343D01*
Y16776D01*
X22320Y16861D01*
X22276Y16938D01*
X22213Y17000D01*
X22137Y17044D01*
X22052Y17067D01*
D02*
G37*
G36*
X21969D02*
X21964D01*
X21879Y17044D01*
X21802Y17000D01*
X21740Y16938D01*
X21696Y16861D01*
X21673Y16776D01*
Y16772D01*
X21969D01*
Y17067D01*
D02*
G37*
G36*
X22343Y16693D02*
X22047D01*
Y16398D01*
X22052D01*
X22137Y16420D01*
X22213Y16465D01*
X22276Y16527D01*
X22320Y16603D01*
X22343Y16688D01*
Y16693D01*
D02*
G37*
G36*
X21969D02*
X21673D01*
Y16688D01*
X21696Y16603D01*
X21740Y16527D01*
X21802Y16465D01*
X21879Y16420D01*
X21964Y16398D01*
X21969D01*
Y16693D01*
D02*
G37*
G36*
X21265Y17067D02*
X21176D01*
X21091Y17044D01*
X21015Y17000D01*
X20953Y16938D01*
X20909Y16861D01*
X20886Y16776D01*
Y16688D01*
X20909Y16603D01*
X20953Y16527D01*
X21015Y16465D01*
X21091Y16420D01*
X21176Y16398D01*
X21265D01*
X21350Y16420D01*
X21426Y16465D01*
X21488Y16527D01*
X21532Y16603D01*
X21555Y16688D01*
Y16776D01*
X21532Y16861D01*
X21488Y16938D01*
X21426Y17000D01*
X21350Y17044D01*
X21265Y17067D01*
D02*
G37*
G36*
X19843Y10374D02*
X19567D01*
Y10236D01*
X19843D01*
Y10374D01*
D02*
G37*
G36*
X12040Y14026D02*
X11929D01*
Y13583D01*
X12222D01*
Y13843D01*
X12208Y13913D01*
X12169Y13972D01*
X12110Y14012D01*
X12040Y14026D01*
D02*
G37*
G36*
X11850D02*
X11740D01*
X11670Y14012D01*
X11611Y13972D01*
X11571Y13913D01*
X11558Y13843D01*
Y13583D01*
X11850D01*
Y14026D01*
D02*
G37*
G36*
X12222Y13504D02*
X11929D01*
Y13061D01*
X12040D01*
X12110Y13075D01*
X12169Y13114D01*
X12208Y13174D01*
X12222Y13243D01*
Y13504D01*
D02*
G37*
G36*
X11850D02*
X11558D01*
Y13243D01*
X11571Y13174D01*
X11611Y13114D01*
X11670Y13075D01*
X11740Y13061D01*
X11850D01*
Y13504D01*
D02*
G37*
%LPD*%
G36*
X8858Y14528D02*
X9370D01*
Y14173D01*
X10551D01*
X10551Y12874D01*
X9567Y12874D01*
X7559Y12874D01*
X7559Y14528D01*
X5233Y14528D01*
X5198Y14563D01*
X5206Y15984D01*
X8858Y15984D01*
X8858Y14528D01*
D02*
G37*
%LPC*%
G36*
X8612Y15778D02*
X8150D01*
Y15256D01*
X8612D01*
Y15778D01*
D02*
G37*
G36*
X8071D02*
X7608D01*
Y15256D01*
X8071D01*
Y15778D01*
D02*
G37*
G36*
X6486D02*
X6024D01*
Y15256D01*
X6486D01*
Y15778D01*
D02*
G37*
G36*
X5945D02*
X5482D01*
Y15256D01*
X5945D01*
Y15778D01*
D02*
G37*
G36*
X8612Y15177D02*
X8150D01*
Y14656D01*
X8612D01*
Y15177D01*
D02*
G37*
G36*
X8071D02*
X7608D01*
Y14656D01*
X8071D01*
Y15177D01*
D02*
G37*
G36*
X6486D02*
X6024D01*
Y14656D01*
X6486D01*
Y15177D01*
D02*
G37*
G36*
X5945D02*
X5482D01*
Y14656D01*
X5945D01*
Y15177D01*
D02*
G37*
G36*
X8528Y14061D02*
X8134D01*
Y13583D01*
X8528D01*
Y14061D01*
D02*
G37*
G36*
X10240Y14026D02*
X10129D01*
Y13583D01*
X10422D01*
Y13843D01*
X10408Y13913D01*
X10369Y13972D01*
X10309Y14012D01*
X10240Y14026D01*
D02*
G37*
G36*
X10050D02*
X9940D01*
X9870Y14012D01*
X9811Y13972D01*
X9771Y13913D01*
X9758Y13843D01*
Y13583D01*
X10050D01*
Y14026D01*
D02*
G37*
G36*
X8055Y14061D02*
X7661D01*
Y13583D01*
X8055D01*
Y14061D01*
D02*
G37*
G36*
X10422Y13504D02*
X10129D01*
Y13061D01*
X10240D01*
X10309Y13075D01*
X10369Y13114D01*
X10408Y13174D01*
X10422Y13243D01*
Y13504D01*
D02*
G37*
G36*
X10050D02*
X9758D01*
Y13243D01*
X9771Y13174D01*
X9811Y13114D01*
X9870Y13075D01*
X9940Y13061D01*
X10050D01*
Y13504D01*
D02*
G37*
G36*
X8528D02*
X8134D01*
Y13026D01*
X8528D01*
Y13504D01*
D02*
G37*
G36*
X8055D02*
X7661D01*
Y13026D01*
X8055D01*
Y13504D01*
D02*
G37*
%LPD*%
D10*
X21555Y3012D02*
Y8484D01*
X20591Y9449D02*
X21555Y8484D01*
X21240Y2697D02*
X21555Y3012D01*
X21811Y1260D02*
X22295D01*
X21240Y1831D02*
Y2362D01*
Y1831D02*
X21811Y1260D01*
X21240Y2362D02*
Y2697D01*
X20591Y9449D02*
Y10748D01*
X20295Y11043D02*
X20591Y10748D01*
X19882Y11043D02*
X20295D01*
X21742Y3219D02*
X22205Y2756D01*
X20866Y9528D02*
X21742Y8652D01*
Y3219D02*
Y8652D01*
X23287Y2362D02*
X23295Y2354D01*
Y1260D02*
Y2354D01*
X23150Y2756D02*
X23287Y2618D01*
Y2362D02*
Y2618D01*
X22205Y2756D02*
X23150D01*
X20295Y11358D02*
X20866Y10787D01*
Y9528D02*
Y10787D01*
X19882Y11358D02*
X20295D01*
D13*
X10931Y15952D02*
X10990Y15893D01*
X11757Y16661D01*
D17*
X19488Y10394D02*
X19508Y10413D01*
X18780Y10452D02*
Y11069D01*
X18838Y10394D02*
X19488D01*
X18780Y10452D02*
X18838Y10394D01*
X17146Y12598D02*
X17939Y11806D01*
X18043D02*
X18780Y11069D01*
X17939Y11806D02*
X18043D01*
X18996Y8366D02*
X19075Y8287D01*
X18366Y9390D02*
Y9843D01*
X18996Y8366D02*
Y8760D01*
X18366Y9390D02*
X18996Y8760D01*
X16948Y9152D02*
X17106Y9311D01*
X15943Y7634D02*
X15974Y7665D01*
X17106Y9311D02*
Y9843D01*
X16102Y9155D02*
X16105Y9152D01*
X15974Y8990D02*
X16102Y9118D01*
X16105Y9152D02*
X16948D01*
X16102Y9118D02*
Y9155D01*
X15974Y7665D02*
Y8990D01*
X18681Y5413D02*
X19134Y4961D01*
X18681Y5413D02*
X19563D01*
X18012Y6083D02*
X18681Y5413D01*
X19134Y4961D02*
Y4961D01*
X19270Y3968D02*
Y4824D01*
X19134Y4961D02*
X19270Y4824D01*
X18012Y6083D02*
Y8563D01*
X19270Y3968D02*
X19321Y3917D01*
X17736Y8839D02*
X18012Y8563D01*
X17736Y8839D02*
Y9843D01*
X17642Y5069D02*
Y8264D01*
X17642D02*
Y8343D01*
X17642Y5069D02*
X18081Y4630D01*
Y3917D02*
Y4630D01*
X17421Y8563D02*
Y9843D01*
Y8563D02*
X17642Y8343D01*
X19138Y7165D02*
X19370D01*
X19016Y7043D02*
X19138Y7165D01*
X19370D02*
Y7165D01*
X19528Y7323D01*
X19843D01*
X19882Y7362D01*
X20669D01*
X17045Y6909D02*
X17084D01*
X16061D02*
X17045D01*
Y3917D02*
X17549D01*
X17028D02*
X17045D01*
X19852D02*
X20374D01*
X19508Y10413D02*
X19882D01*
X18996Y9529D02*
Y9843D01*
Y9529D02*
X19490Y9035D01*
X19941D02*
X20637Y8339D01*
Y8024D02*
Y8339D01*
Y8024D02*
X20669Y7992D01*
X19843Y8219D02*
Y8386D01*
Y8219D02*
X19862Y8199D01*
X18681Y9547D02*
X19843Y8386D01*
X18681Y9547D02*
Y9843D01*
X19490Y9035D02*
X19941D01*
D25*
X8094Y13543D02*
D03*
X6945D02*
D03*
D26*
X21900Y13484D02*
D03*
Y14114D02*
D03*
X13780Y13268D02*
D03*
Y13898D02*
D03*
X19843Y7953D02*
D03*
Y7323D02*
D03*
X20669D02*
D03*
Y7953D02*
D03*
D27*
X15974Y8524D02*
D03*
X16506D02*
D03*
X17549Y3917D02*
D03*
X18081D02*
D03*
X19852D02*
D03*
X19321D02*
D03*
D28*
X5984Y16909D02*
D03*
Y15217D02*
D03*
X8110D02*
D03*
Y16909D02*
D03*
D29*
X10090Y13543D02*
D03*
X11890D02*
D03*
D30*
X10990Y15893D02*
D03*
D31*
X24921Y16486D02*
D03*
Y17136D02*
D03*
D32*
X17106Y9843D02*
D03*
X17421D02*
D03*
X17736D02*
D03*
X18051D02*
D03*
X18366D02*
D03*
X18681D02*
D03*
X18996D02*
D03*
X19311D02*
D03*
Y13189D02*
D03*
X18996D02*
D03*
X18681D02*
D03*
X18366D02*
D03*
X18051D02*
D03*
X17736D02*
D03*
X17421D02*
D03*
X17106D02*
D03*
D33*
X19882Y10413D02*
D03*
Y10728D02*
D03*
Y11043D02*
D03*
Y11358D02*
D03*
Y11673D02*
D03*
Y11988D02*
D03*
Y12303D02*
D03*
Y12618D02*
D03*
X16535D02*
D03*
Y12303D02*
D03*
Y11988D02*
D03*
Y11673D02*
D03*
Y11358D02*
D03*
Y11043D02*
D03*
Y10728D02*
D03*
Y10413D02*
D03*
D34*
X13878Y11232D02*
D03*
Y10732D02*
D03*
Y10232D02*
D03*
Y9732D02*
D03*
Y9232D02*
D03*
Y8732D02*
D03*
Y8232D02*
D03*
X11555D02*
D03*
Y8732D02*
D03*
Y9232D02*
D03*
Y9732D02*
D03*
Y10232D02*
D03*
Y10732D02*
D03*
Y11232D02*
D03*
D35*
X15233Y4872D02*
D03*
X14733D02*
D03*
X14233D02*
D03*
X13733D02*
D03*
X13233D02*
D03*
X12733D02*
D03*
X12233D02*
D03*
X11733D02*
D03*
X15233Y2589D02*
D03*
X14733D02*
D03*
X14233D02*
D03*
X13733D02*
D03*
X13233D02*
D03*
X12733D02*
D03*
X12233D02*
D03*
X11733D02*
D03*
D36*
X15120Y7264D02*
D03*
X16100Y7634D02*
D03*
Y6894D02*
D03*
D37*
X23278Y9537D02*
D03*
Y8848D02*
D03*
X25049Y9537D02*
D03*
Y8848D02*
D03*
X24163D02*
D03*
Y9537D02*
D03*
X22392Y8848D02*
D03*
Y9537D02*
D03*
D38*
X15906Y14295D02*
D03*
X14874D02*
D03*
X11984Y6181D02*
D03*
X13016D02*
D03*
X14984Y1280D02*
D03*
X13953D02*
D03*
X12425D02*
D03*
X11394D02*
D03*
D39*
X22402Y7146D02*
D03*
Y7736D02*
D03*
X24173Y7146D02*
D03*
Y7736D02*
D03*
D40*
X22746Y11850D02*
D03*
X23002D02*
D03*
X23258D02*
D03*
X23514D02*
D03*
X23770D02*
D03*
X24026D02*
D03*
X24281D02*
D03*
X24537D02*
D03*
X24793D02*
D03*
X25049D02*
D03*
X22746Y14094D02*
D03*
X23002D02*
D03*
X23258D02*
D03*
X23514D02*
D03*
X23770D02*
D03*
X24026D02*
D03*
X24281D02*
D03*
X24537D02*
D03*
X24793D02*
D03*
X25049D02*
D03*
D41*
X8465Y9126D02*
D03*
Y10126D02*
D03*
X5906Y9126D02*
D03*
Y10126D02*
D03*
X8465Y3220D02*
D03*
Y4220D02*
D03*
X5906Y3220D02*
D03*
Y4220D02*
D03*
X8465Y1252D02*
D03*
Y2252D02*
D03*
X5906Y1252D02*
D03*
Y2252D02*
D03*
X8465Y11094D02*
D03*
Y12094D02*
D03*
X5906Y11094D02*
D03*
Y12094D02*
D03*
X5906Y8157D02*
D03*
Y7157D02*
D03*
X8465Y8157D02*
D03*
Y7157D02*
D03*
X8465Y5189D02*
D03*
Y6189D02*
D03*
X5906Y5189D02*
D03*
Y6189D02*
D03*
D42*
X10138Y8425D02*
D03*
X9626D02*
D03*
X10138Y10236D02*
D03*
X9626D02*
D03*
X10138Y5709D02*
D03*
X9626D02*
D03*
X22776Y2362D02*
D03*
X23287D02*
D03*
X9626Y6614D02*
D03*
X10138D02*
D03*
X21240Y2362D02*
D03*
X21752D02*
D03*
X9626Y9331D02*
D03*
X10138D02*
D03*
Y7520D02*
D03*
X9626D02*
D03*
D43*
X4665Y9478D02*
D03*
Y9026D02*
D03*
D44*
X24134Y17106D02*
D03*
Y16594D02*
D03*
X23632Y5935D02*
D03*
Y5423D02*
D03*
X24419D02*
D03*
Y5935D02*
D03*
X25207D02*
D03*
Y5423D02*
D03*
X22844D02*
D03*
Y5935D02*
D03*
D45*
X16594Y2303D02*
D03*
Y1272D02*
D03*
X10512Y4374D02*
D03*
Y3343D02*
D03*
X19016Y7043D02*
D03*
Y8075D02*
D03*
D46*
X22844Y3533D02*
D03*
Y4065D02*
D03*
X25207Y3533D02*
D03*
Y4065D02*
D03*
X23632Y3533D02*
D03*
Y4065D02*
D03*
X24419Y3533D02*
D03*
Y4065D02*
D03*
D47*
X10197Y12283D02*
D03*
X9567D02*
D03*
X10197Y11220D02*
D03*
X9567D02*
D03*
D69*
X2256Y16173D02*
D03*
Y14173D02*
D03*
Y15173D02*
D03*
X3256Y16173D02*
D03*
Y15173D02*
D03*
X2256Y12173D02*
D03*
X3256Y13173D02*
D03*
X2256D02*
D03*
X3256Y14173D02*
D03*
D76*
X17642Y5413D02*
D03*
D77*
X19563D02*
D03*
D80*
X3256Y5709D02*
X3346D01*
X4507Y4549D01*
X2748Y7217D02*
X3768D01*
X4646Y6339D01*
X5669Y4803D02*
X5906Y4567D01*
X5079Y4803D02*
X5669D01*
X4646Y5236D02*
X5079Y4803D01*
X4646Y5236D02*
Y6339D01*
X2161Y4614D02*
X2256Y4709D01*
X1858Y4614D02*
X2161D01*
X1535Y4291D02*
X1858Y4614D01*
X3256Y3709D02*
X4732D01*
X2256Y7709D02*
X2748Y7217D01*
X5197Y4191D02*
Y4213D01*
X5157Y4152D02*
X5197Y4191D01*
X5157Y4134D02*
Y4152D01*
X4732Y3709D02*
X5157Y4134D01*
X1535Y3386D02*
Y4291D01*
Y3386D02*
X1929Y2992D01*
X4646D01*
X5354Y3701D01*
X6260D01*
X6890Y4331D01*
Y7795D01*
X6528Y8157D02*
X6890Y7795D01*
X5906Y4220D02*
Y4567D01*
X4507Y4464D02*
X4522Y4449D01*
X4507Y4464D02*
Y4549D01*
X1329Y11339D02*
X2283Y10384D01*
X4094D02*
X4675Y9803D01*
X2283Y10384D02*
X4094D01*
X1329Y11339D02*
Y12559D01*
X1853Y13084D01*
X2166D02*
X2256Y13173D01*
X1853Y13084D02*
X2166D01*
X4665Y9478D02*
X4675Y9488D01*
Y9803D01*
X4665Y9026D02*
X4675Y9016D01*
Y8711D02*
Y9016D01*
Y8711D02*
X5228Y8157D01*
X5898D01*
X6547Y8177D02*
X6890Y8520D01*
X6614Y10118D02*
X6890Y9843D01*
Y8520D02*
Y9843D01*
X6693Y12087D02*
X7323Y11457D01*
X6654Y2756D02*
X7323Y3425D01*
Y11457D01*
X5157Y11811D02*
Y11811D01*
X2638Y11102D02*
X4449D01*
X5157Y11811D01*
Y11811D02*
X5433Y12087D01*
X5898D01*
X5906Y12094D01*
Y12087D02*
X6693D01*
X5949Y11098D02*
X6453D01*
X6457Y11102D01*
X5945D02*
X5949Y11098D01*
X5913Y10118D02*
X6614D01*
X5906Y10126D02*
X5913Y10118D01*
X6453Y9130D02*
X6457Y9134D01*
X5949Y9130D02*
X6453D01*
X5945Y9134D02*
X5949Y9130D01*
X5906Y8157D02*
X6528D01*
X3268Y8583D02*
Y9220D01*
Y8583D02*
X5661Y6189D01*
X5906D01*
X5197Y5472D02*
Y5709D01*
X5651Y6163D01*
X5909Y6185D02*
X5984Y6260D01*
X5910Y5197D02*
X6457D01*
X6339Y1260D02*
X6442Y1364D01*
Y1521D01*
X5913Y1260D02*
X6339D01*
X6442Y1521D02*
X6457Y1535D01*
X5906Y1252D02*
X5913Y1260D01*
X6453Y3224D02*
X6457Y3228D01*
X5909Y3224D02*
X6453D01*
X5906Y3220D02*
X5909Y3224D01*
X5118Y2756D02*
X6654D01*
X4921Y2559D02*
X5118Y2756D01*
X2256Y11484D02*
X2638Y11102D01*
X2256Y11484D02*
Y12173D01*
X10648Y8425D02*
X10884Y8661D01*
X10906D01*
X10138Y8425D02*
X10648D01*
X10197Y11220D02*
X10906D01*
X24904Y16063D02*
X24921Y16080D01*
X24906Y17121D02*
X24921Y17136D01*
X24134Y17106D02*
X24149Y17121D01*
X4316Y12535D02*
Y12928D01*
X4094Y13150D02*
X4316Y12928D01*
X3280Y13150D02*
X4094D01*
X4316Y12535D02*
X4331Y12520D01*
X1496Y14606D02*
Y15787D01*
X1823Y16114D01*
X2197D01*
X2256Y16173D01*
X3031Y2559D02*
X4921D01*
X1063Y2913D02*
Y5118D01*
Y2913D02*
X1850Y2126D01*
X5157D01*
X11733Y4872D02*
Y5526D01*
X11909Y5703D01*
Y6106D01*
X11984Y6181D01*
X10197Y11220D02*
X10246Y11171D01*
X12718Y4562D02*
X12733Y4577D01*
X12677Y3976D02*
Y3998D01*
X12718Y4039D01*
Y4562D01*
X13228Y3780D02*
X13233Y3784D01*
Y4577D01*
X3256Y12171D02*
X3374Y12052D01*
X5157Y2126D02*
X5301Y2270D01*
X5766D01*
X5807Y2311D01*
X19193Y10728D02*
X19882D01*
X18051Y9843D02*
Y10532D01*
X21909Y14104D02*
X22736D01*
D81*
X2241Y5761D02*
X2256Y5747D01*
X1995Y5761D02*
X2241D01*
X2256Y5709D02*
Y5747D01*
X630Y13701D02*
X945Y14016D01*
X630Y7126D02*
Y13701D01*
Y7126D02*
X1995Y5761D01*
X2181Y14173D02*
X2256D01*
X827Y13898D02*
X1906D01*
X2181Y14173D01*
X630Y14331D02*
X945Y14016D01*
X630Y14331D02*
Y16299D01*
X1339Y17008D02*
X5886D01*
X630Y16299D02*
X1339Y17008D01*
X5886D02*
X5984Y16909D01*
D82*
X16575Y15197D02*
X16968D01*
X17441D01*
X12598Y13898D02*
Y14786D01*
X13010Y15197D01*
X16575D01*
X11890Y13543D02*
X11903Y13557D01*
X10090Y13393D02*
Y13543D01*
D83*
X16968Y15236D02*
Y15945D01*
Y15236D02*
X17008Y15197D01*
X16755Y16159D02*
X16968Y15945D01*
X16755Y16159D02*
Y16674D01*
X16697Y16732D02*
X16755Y16674D01*
X16693Y16650D02*
Y17087D01*
X13878Y11232D02*
X13885Y11240D01*
X14232D02*
X14409Y11417D01*
X13885Y11240D02*
X14232D01*
X9055Y13583D02*
X9449D01*
X9567Y13465D01*
X12598Y13268D02*
X13780D01*
X12598D02*
Y13898D01*
X22283Y6339D02*
X22286Y6341D01*
X22844D01*
X23632D02*
X24419D01*
X22844D02*
X23632D01*
X24419D02*
X25207D01*
X22762Y16766D02*
X22829Y16699D01*
X22762Y16766D02*
Y17160D01*
X22520Y17402D02*
X22762Y17160D01*
X17008Y17402D02*
X22520D01*
X16693Y17087D02*
X17008Y17402D01*
X13780Y13268D02*
X14281D01*
X9567Y12283D02*
Y13465D01*
X26971Y15436D02*
X27274Y15133D01*
X26971Y15436D02*
X26971D01*
X26344Y16063D02*
X26971Y15436D01*
X24904Y16063D02*
X26344D01*
X22829Y16305D02*
Y16699D01*
X23071Y16063D02*
X24904D01*
X22829Y16305D02*
X23071Y16063D01*
X14281Y13268D02*
X14320Y13228D01*
X14331D01*
X11733Y6102D02*
X11906D01*
X21900Y14114D02*
X21909Y14104D01*
X21897Y14111D02*
X21900Y14114D01*
X21444Y14111D02*
X21897D01*
X21093Y13760D02*
X21444Y14111D01*
X11299Y6220D02*
X11319Y6201D01*
X11728D01*
X11733Y6102D02*
Y6196D01*
X11728Y6201D02*
X11733Y6196D01*
D84*
X8937Y10433D02*
Y10866D01*
Y10433D02*
X9134Y10236D01*
X9626D01*
X8725Y11078D02*
X8937Y10866D01*
X8465Y11094D02*
X8481Y11078D01*
X8725D01*
X9094Y9331D02*
X9626D01*
X8898Y9134D02*
X9094Y9331D01*
X8477Y9134D02*
X8898D01*
X8976Y8425D02*
X9626D01*
X8467Y8150D02*
X8491Y8174D01*
X8725D02*
X8976Y8425D01*
X8491Y8174D02*
X8725D01*
X9626Y8425D02*
X9646Y8445D01*
X8465Y5197D02*
X8740D01*
X8898Y5354D01*
Y7028D01*
X8465Y3220D02*
X8850D01*
X9213Y3583D01*
Y6457D01*
X8465Y1260D02*
X9173D01*
X9626Y1713D01*
Y5709D01*
X14331Y15748D02*
X14843D01*
X15697Y16602D01*
Y16732D01*
X9764Y8858D02*
X10512D01*
X10866Y9213D01*
X11535D01*
X10472Y9331D02*
X10874Y9732D01*
X11555D01*
X10138Y9331D02*
X10472D01*
X12205Y11063D02*
X12835Y11693D01*
X15118D01*
X12205Y10433D02*
Y11063D01*
X15118Y11693D02*
X15413Y11988D01*
X24193Y7756D02*
X25354D01*
X26457Y8858D01*
Y10305D01*
X26339Y7480D02*
Y8307D01*
X26811Y8780D02*
Y9449D01*
X26339Y8307D02*
X26811Y8780D01*
X26457Y10305D02*
X27100Y10948D01*
X25521Y8868D02*
X25748Y9094D01*
Y11555D02*
X26673Y12480D01*
X25748Y9094D02*
Y11555D01*
X26102Y11033D02*
X26880Y11811D01*
X25443Y8317D02*
X26102Y8976D01*
Y11033D01*
X14843Y12008D02*
X15453Y12618D01*
X12677Y12008D02*
X14843D01*
X11917Y11248D02*
X12677Y12008D01*
X10669Y6378D02*
X11220Y6929D01*
X12205D02*
X13504Y8228D01*
X11220Y6929D02*
X12205D01*
X12047Y7283D02*
X13268Y8504D01*
X11063Y7283D02*
X12047D01*
X10413Y6634D02*
X11063Y7283D01*
X27913Y12047D02*
Y13346D01*
X27351Y13758D02*
X27501D01*
X27331Y13739D02*
X27351Y13758D01*
X27501D02*
X27913Y13346D01*
X27254Y12480D02*
X27274Y12500D01*
X26673Y12480D02*
X27254D01*
X26880Y11811D02*
X27677D01*
X27913Y12047D01*
X26811Y9449D02*
X26953Y9591D01*
X22392Y7736D02*
Y8848D01*
X27100Y10948D02*
X27250D01*
X26977Y9591D02*
X27130Y9744D01*
X27274D01*
X26953Y9591D02*
X26977D01*
X24163Y8514D02*
Y8848D01*
Y8514D02*
X24366Y8312D01*
X24372Y8317D02*
X25443D01*
X25630Y6772D02*
X26339Y7480D01*
X23268Y6772D02*
X25630D01*
X23105Y6934D02*
X23268Y6772D01*
X23105Y6934D02*
Y7524D01*
X22903Y7727D02*
X23105Y7524D01*
X22411Y7727D02*
X22903D01*
X22402Y7736D02*
X22411Y7727D01*
X25068Y8868D02*
X25521D01*
X25049Y8848D02*
X25068Y8868D01*
X24173Y7736D02*
X24193Y7756D01*
X24154D02*
X24173Y7736D01*
X23701Y7756D02*
X24154D01*
X23268Y8189D02*
X23701Y7756D01*
X23268Y8189D02*
Y8848D01*
X24016Y14764D02*
X24281Y14498D01*
X18996Y13661D02*
X20098Y14764D01*
X24016D01*
X18051Y14055D02*
X19705Y15709D01*
X24291D02*
X25049Y14951D01*
X19705Y15709D02*
X24291D01*
X24085Y15079D02*
X24537Y14626D01*
X19961Y15079D02*
X24085D01*
X18681Y13799D02*
X19961Y15079D01*
X19843Y15394D02*
X24154D01*
X18366Y13917D02*
X19843Y15394D01*
X24154D02*
X24793Y14754D01*
X25049Y14094D02*
Y14951D01*
X24921Y16080D02*
Y16486D01*
X24149Y17121D02*
X24906D01*
X17736Y14114D02*
X19596Y15974D01*
X17736Y13189D02*
Y14114D01*
X19596Y15974D02*
X19754D01*
X19643Y16368D02*
Y16730D01*
X17421Y14146D02*
X19643Y16368D01*
Y16730D02*
X19646Y16732D01*
X19754Y15974D02*
X20433Y16654D01*
Y16732D01*
X17421Y13189D02*
Y14146D01*
X17106Y14179D02*
X18858Y15931D01*
Y16732D01*
X17106Y13189D02*
Y14179D01*
X9646Y8740D02*
X9764Y8858D01*
X12913Y8622D02*
Y9646D01*
X11968Y7677D02*
X12913Y8622D01*
Y9646D02*
X13150Y9882D01*
X13268Y8504D02*
Y9016D01*
X13484Y9232D01*
X13878D01*
X12000Y8732D02*
X12205Y8937D01*
X12004Y10232D02*
X12205Y10031D01*
Y8937D02*
Y10031D01*
X12004Y10232D02*
X12205Y10433D01*
X11571Y11248D02*
X11917D01*
X11555Y11232D02*
X11571Y11248D01*
X9351Y6595D02*
X9607D01*
X9213Y6457D02*
X9351Y6595D01*
X9607D02*
X9626Y6614D01*
X10669Y5945D02*
Y6378D01*
X10433Y5709D02*
X10669Y5945D01*
X10138Y5709D02*
X10433D01*
X10138Y6614D02*
X10157Y6634D01*
X10413D01*
X9646Y8445D02*
Y8740D01*
X11535Y9213D02*
X11555Y9232D01*
Y8732D02*
X12000D01*
X10138Y10256D02*
X10492D01*
X10969Y10732D01*
X15601Y12293D02*
X15611Y12303D01*
X16535D01*
X9419Y7549D02*
X9596D01*
X9626Y7520D01*
X9158Y7288D02*
X9419Y7549D01*
X9158Y7288D02*
X9158D01*
X8898Y7028D02*
X9158Y7288D01*
X10138Y7520D02*
X10157Y7500D01*
X13500Y10232D02*
X13878D01*
X13150Y9882D02*
X13500Y10232D01*
X13150Y9882D02*
Y9882D01*
X10827Y7677D02*
X11968D01*
X10669Y7520D02*
X10827Y7677D01*
X10177Y7520D02*
X10669D01*
X10157Y7500D02*
X10177Y7520D01*
X13874Y8228D02*
X13878Y8232D01*
X13504Y8228D02*
X13874D01*
X15453Y12618D02*
X16535D01*
X15413Y11988D02*
X16535D01*
X10584Y5112D02*
X11001Y5528D01*
X11758D01*
X16535Y12303D02*
X16535Y12303D01*
X24537Y10249D02*
Y11850D01*
X24163Y9875D02*
X24537Y10249D01*
X24163Y9537D02*
Y9875D01*
X24793Y14094D02*
Y14754D01*
X18366Y13189D02*
Y13917D01*
X24793Y10226D02*
Y11850D01*
Y10226D02*
X25069Y9950D01*
Y9537D02*
Y9950D01*
X25049Y9537D02*
X25069D01*
X18051Y13189D02*
Y14055D01*
X14232Y7657D02*
X14902Y8327D01*
X14232Y5256D02*
Y7657D01*
Y5256D02*
X14233Y5255D01*
Y4577D02*
Y5255D01*
X14902Y9902D02*
X16043Y11043D01*
X16535D01*
X14902Y8327D02*
Y9902D01*
X19311Y13189D02*
X19350Y13228D01*
Y13474D02*
X20266Y14390D01*
Y14390D01*
X19350Y13228D02*
Y13474D01*
X16161Y10728D02*
X16535D01*
X13733Y4298D02*
Y4872D01*
Y4298D02*
X13996Y4035D01*
X15512D01*
X15787Y4311D01*
Y5551D01*
X15512Y5827D02*
X15787Y5551D01*
X15079Y5827D02*
X15512D01*
X13733Y4872D02*
Y5197D01*
X14547Y6358D02*
Y7539D01*
X15217Y8209D02*
Y9783D01*
X14547Y7539D02*
X15217Y8209D01*
Y9783D02*
X16161Y10728D01*
X14547Y6358D02*
X15079Y5827D01*
X10138Y10236D02*
Y10256D01*
X10246Y10364D01*
X10969Y10732D02*
X11555D01*
X16535Y12618D02*
X16535Y12618D01*
X16535Y11673D02*
X16535Y11673D01*
X14748Y10732D02*
X15689Y11673D01*
X13878Y10732D02*
X14748D01*
X15689Y11673D02*
X16535D01*
X14233Y3111D02*
X14469Y3346D01*
X14233Y2589D02*
Y3111D01*
X15965Y3346D02*
X16546Y2765D01*
Y2352D02*
Y2765D01*
Y2352D02*
X16594Y2303D01*
X14469Y3346D02*
X15965D01*
X14925Y1338D02*
Y1630D01*
Y1338D02*
X14984Y1280D01*
X13750Y2293D02*
X13756Y2288D01*
Y2071D02*
Y2288D01*
X14665Y1890D02*
X14925Y1630D01*
X13937Y1890D02*
X14665D01*
X13756Y2071D02*
X13937Y1890D01*
X13484Y1280D02*
X13953D01*
X13233Y1531D02*
Y2293D01*
Y1531D02*
X13484Y1280D01*
X12425Y1717D02*
X12733Y2024D01*
X12425Y1402D02*
Y1717D01*
Y1280D02*
Y1402D01*
X12733Y2024D02*
Y2293D01*
X11733Y2087D02*
Y2293D01*
X11394Y1748D02*
X11733Y2087D01*
X11394Y1280D02*
Y1354D01*
Y1748D01*
X10512Y3343D02*
X10673Y3504D01*
X12233Y2293D02*
Y3121D01*
X10673Y3504D02*
X11850D01*
X12233Y3121D01*
X14260Y9732D02*
X15886Y11358D01*
X13878Y9732D02*
X14260D01*
X15886Y11358D02*
X16535D01*
X23484Y9744D02*
X24281Y10541D01*
Y11850D01*
X23484Y9705D02*
Y9744D01*
X23317Y9537D02*
X23484Y9705D01*
X23278Y9537D02*
X23317D01*
X24537Y14094D02*
Y14626D01*
X18681Y13189D02*
Y13799D01*
X24026Y10797D02*
Y11850D01*
X23327Y10098D02*
X24026Y10797D01*
X22589Y10098D02*
X23327D01*
X22402Y9911D02*
X22589Y10098D01*
X22402Y9547D02*
Y9911D01*
X22392Y9537D02*
X22402Y9547D01*
X24281Y14094D02*
Y14498D01*
X18996Y13189D02*
Y13661D01*
X23632Y4080D02*
Y4793D01*
Y5423D01*
X23438Y13388D02*
X23514Y13464D01*
Y14094D01*
X23438Y13356D02*
Y13388D01*
X23632Y4094D02*
X23671Y4055D01*
X23632Y4065D02*
Y4094D01*
X23612Y4114D02*
X23632Y4094D01*
X13878Y8733D02*
X14488D01*
X13878Y8732D02*
X13878Y8733D01*
X14488D02*
X14488Y8733D01*
X15630Y9154D02*
Y9764D01*
X16496Y10374D02*
X16535Y10413D01*
X16240Y10374D02*
X16496D01*
X15630Y9764D02*
X16240Y10374D01*
X11555Y10232D02*
X12004D01*
X22844Y4065D02*
Y4793D01*
Y5404D01*
X22869Y5428D01*
X23093Y13458D02*
X23258Y13622D01*
Y14094D01*
X23093Y13379D02*
Y13458D01*
X23071Y13356D02*
X23093Y13379D01*
X23002Y11417D02*
Y11850D01*
X22835Y11250D02*
X23002Y11417D01*
X22156Y11250D02*
X22835D01*
X20787Y12618D02*
X22156Y11250D01*
X19882Y12618D02*
X20787D01*
X19882Y12618D02*
X19882Y12618D01*
X25207Y4065D02*
Y4793D01*
Y5423D01*
X24026Y13548D02*
X24213Y13360D01*
X24026Y13548D02*
Y14094D01*
X24213Y13356D02*
Y13360D01*
X23179Y10404D02*
X23770Y10994D01*
Y11850D01*
X21781Y10404D02*
X23179D01*
X20512Y11673D02*
X21781Y10404D01*
X19882Y11673D02*
X20512D01*
X24419Y4065D02*
Y4793D01*
Y5423D01*
X23770Y13444D02*
X23825Y13388D01*
X23770Y13444D02*
Y14094D01*
X23825Y13356D02*
Y13388D01*
X23514Y11186D02*
Y11850D01*
X23017Y10689D02*
X23514Y11186D01*
X21929Y10689D02*
X23017D01*
X20630Y11988D02*
X21929Y10689D01*
X19882Y11988D02*
X20630D01*
X22923Y10974D02*
X23258Y11309D01*
Y11850D01*
X22628Y10974D02*
X22923D01*
X22037D02*
X22628D01*
X20709Y12303D02*
X22037Y10974D01*
X19882Y12303D02*
X20709D01*
X21260Y3307D02*
Y8307D01*
X20052Y2100D02*
X21260Y3307D01*
X19462Y2100D02*
X20052D01*
X20256Y9311D02*
X21260Y8307D01*
X19547Y9311D02*
X20256D01*
X19134Y1772D02*
X19462Y2100D01*
X19134Y1260D02*
Y1772D01*
X19311Y9547D02*
X19547Y9311D01*
X19311Y9547D02*
Y9843D01*
X22844Y5935D02*
Y6341D01*
X23632Y5935D02*
Y6341D01*
X24419Y5935D02*
Y6341D01*
X25207Y5935D02*
Y6341D01*
X22165Y2362D02*
X22776D01*
X21752D02*
X22165D01*
X15138Y6895D02*
Y7213D01*
X15079Y6836D02*
X15138Y6895D01*
X15079Y6804D02*
Y6836D01*
X15120Y7230D02*
Y7264D01*
Y7230D02*
X15138Y7213D01*
X10512Y4374D02*
X10584Y4447D01*
Y5112D01*
D85*
X16575Y14331D02*
Y15197D01*
X16575Y15197D01*
X16557Y14313D02*
X16575Y14331D01*
X15906Y14295D02*
X15923Y14313D01*
X16557D01*
D86*
X17028Y3322D02*
X17180Y3169D01*
X20222D01*
X17028Y3322D02*
Y3917D01*
X20222Y3169D02*
X20374Y3322D01*
Y3917D01*
X18504Y8743D02*
Y8780D01*
X18406Y8645D02*
X18504Y8743D01*
X18406Y6555D02*
Y8645D01*
X18681Y6280D02*
X19783D01*
X18406Y6555D02*
X18681Y6280D01*
X17045Y6909D02*
Y7443D01*
Y3917D02*
Y6909D01*
X17045Y7443D02*
Y8353D01*
X16553Y8505D02*
X16893D01*
X16524Y8535D02*
X16553Y8505D01*
X16893D02*
X17045Y8353D01*
X20374Y3917D02*
Y5689D01*
X19783Y6280D02*
X20374Y5689D01*
D87*
X3248Y7701D02*
D03*
Y6701D02*
D03*
X2248Y7701D02*
D03*
Y6701D02*
D03*
X3248Y5701D02*
D03*
X2248D02*
D03*
Y4701D02*
D03*
X3248D02*
D03*
X2248Y3701D02*
D03*
X13697Y16732D02*
D03*
X14697D02*
D03*
X15697D02*
D03*
X19134Y1260D02*
D03*
X18134D02*
D03*
X23295D02*
D03*
D88*
X3248Y3701D02*
D03*
D89*
X3256Y12173D02*
D03*
D90*
X16697Y16732D02*
D03*
X20134Y1260D02*
D03*
X22295D02*
D03*
D91*
X21220Y16732D02*
D03*
X22008D02*
D03*
X20433D02*
D03*
X19646D02*
D03*
X18858D02*
D03*
D92*
X22795D02*
D03*
D93*
X27274Y15256D02*
D03*
Y13878D02*
D03*
Y12500D02*
D03*
Y8366D02*
D03*
Y4232D02*
D03*
Y5610D02*
D03*
Y6988D02*
D03*
Y9744D02*
D03*
Y11122D02*
D03*
X2756Y984D02*
D03*
X27165D02*
D03*
Y17126D02*
D03*
D94*
X27274Y2854D02*
D03*
D95*
X6457Y11102D02*
D03*
Y9134D02*
D03*
Y5197D02*
D03*
Y1535D02*
D03*
Y3228D02*
D03*
X14409Y11417D02*
D03*
X14331Y15748D02*
D03*
X22283Y6339D02*
D03*
X10906Y8661D02*
D03*
Y11220D02*
D03*
X4331Y12520D02*
D03*
X3268Y9220D02*
D03*
X1496Y14606D02*
D03*
X3031Y2559D02*
D03*
X1063Y5118D02*
D03*
X15601Y12293D02*
D03*
X14331Y13228D02*
D03*
X4522Y4449D02*
D03*
X12677Y3976D02*
D03*
X20266Y14390D02*
D03*
X13228Y3780D02*
D03*
X16102Y9155D02*
D03*
X5197Y4213D02*
D03*
X5197Y5472D02*
D03*
X23438Y13356D02*
D03*
X23632Y4793D02*
D03*
X14488Y8733D02*
D03*
X15630Y9154D02*
D03*
X23071Y13356D02*
D03*
X22844Y4793D02*
D03*
X24213Y13356D02*
D03*
X25207Y4793D02*
D03*
X23825Y13356D02*
D03*
X24419Y4793D02*
D03*
X21093Y13760D02*
D03*
X22165Y2362D02*
D03*
X15079Y6804D02*
D03*
D96*
X25748Y16811D02*
D03*
X22362Y4764D02*
D03*
X9055Y7874D02*
D03*
X12874Y15945D02*
D03*
X12598Y13898D02*
D03*
Y13189D02*
D03*
X17441Y15197D02*
D03*
X16575Y14331D02*
D03*
X9055Y13583D02*
D03*
X13346Y14567D02*
D03*
X9252Y15945D02*
D03*
X9055Y14173D02*
D03*
X10984Y13465D02*
D03*
X15512Y13386D02*
D03*
X11811Y12008D02*
D03*
X17146Y12598D02*
D03*
X12677Y10157D02*
D03*
X21978Y12008D02*
D03*
X17589Y15866D02*
D03*
X25394Y15354D02*
D03*
X21969Y10039D02*
D03*
X9252Y17126D02*
D03*
X5512Y13583D02*
D03*
X25315Y10827D02*
D03*
X25197Y7283D02*
D03*
X9055Y2756D02*
D03*
X13543Y7343D02*
D03*
X15748Y6260D02*
D03*
X5118Y10630D02*
D03*
X18504Y8780D02*
D03*
X19193Y10728D02*
D03*
X18051Y10532D02*
D03*
X5118Y7677D02*
D03*
X14646Y5630D02*
D03*
X11299Y6220D02*
D03*
M02*
