G04*
G04 #@! TF.GenerationSoftware,Altium Limited,Altium Designer,21.0.8 (223)*
G04*
G04 Layer_Color=16711935*
%FSLAX24Y24*%
%MOIN*%
G70*
G04*
G04 #@! TF.SameCoordinates,FDC07EFC-1B29-4822-A7E3-1CBBEB92D143*
G04*
G04*
G04 #@! TF.FilePolarity,Negative*
G04*
G01*
G75*
%ADD69C,0.0669*%
G04:AMPARAMS|DCode=70|XSize=66.9mil|YSize=66.9mil|CornerRadius=17.7mil|HoleSize=0mil|Usage=FLASHONLY|Rotation=90.000|XOffset=0mil|YOffset=0mil|HoleType=Round|Shape=RoundedRectangle|*
%AMROUNDEDRECTD70*
21,1,0.0669,0.0315,0,0,90.0*
21,1,0.0315,0.0669,0,0,90.0*
1,1,0.0354,0.0157,0.0157*
1,1,0.0354,0.0157,-0.0157*
1,1,0.0354,-0.0157,-0.0157*
1,1,0.0354,-0.0157,0.0157*
%
%ADD70ROUNDEDRECTD70*%
%ADD71C,0.0709*%
%ADD72P,0.0767X8X112.5*%
G04:AMPARAMS|DCode=73|XSize=66.9mil|YSize=66.9mil|CornerRadius=17.7mil|HoleSize=0mil|Usage=FLASHONLY|Rotation=180.000|XOffset=0mil|YOffset=0mil|HoleType=Round|Shape=RoundedRectangle|*
%AMROUNDEDRECTD73*
21,1,0.0669,0.0315,0,0,180.0*
21,1,0.0315,0.0669,0,0,180.0*
1,1,0.0354,-0.0157,0.0157*
1,1,0.0354,0.0157,0.0157*
1,1,0.0354,0.0157,-0.0157*
1,1,0.0354,-0.0157,-0.0157*
%
%ADD73ROUNDEDRECTD73*%
%ADD74C,0.0551*%
G04:AMPARAMS|DCode=75|XSize=55.1mil|YSize=55.1mil|CornerRadius=14.8mil|HoleSize=0mil|Usage=FLASHONLY|Rotation=180.000|XOffset=0mil|YOffset=0mil|HoleType=Round|Shape=RoundedRectangle|*
%AMROUNDEDRECTD75*
21,1,0.0551,0.0256,0,0,180.0*
21,1,0.0256,0.0551,0,0,180.0*
1,1,0.0295,-0.0128,0.0128*
1,1,0.0295,0.0128,0.0128*
1,1,0.0295,0.0128,-0.0128*
1,1,0.0295,-0.0128,-0.0128*
%
%ADD75ROUNDEDRECTD75*%
%ADD76R,0.0453X0.0453*%
%ADD77C,0.0453*%
%ADD78C,0.0689*%
G04:AMPARAMS|DCode=79|XSize=68.9mil|YSize=68.9mil|CornerRadius=18.2mil|HoleSize=0mil|Usage=FLASHONLY|Rotation=90.000|XOffset=0mil|YOffset=0mil|HoleType=Round|Shape=RoundedRectangle|*
%AMROUNDEDRECTD79*
21,1,0.0689,0.0325,0,0,90.0*
21,1,0.0325,0.0689,0,0,90.0*
1,1,0.0364,0.0162,0.0162*
1,1,0.0364,0.0162,-0.0162*
1,1,0.0364,-0.0162,-0.0162*
1,1,0.0364,-0.0162,0.0162*
%
%ADD79ROUNDEDRECTD79*%
D69*
X3248Y7701D02*
D03*
Y6701D02*
D03*
X2248Y7701D02*
D03*
Y6701D02*
D03*
X3248Y5701D02*
D03*
X2248D02*
D03*
Y4701D02*
D03*
X3248D02*
D03*
X2248Y3701D02*
D03*
X13697Y16732D02*
D03*
X14697D02*
D03*
X15697D02*
D03*
X19134Y1260D02*
D03*
X18134D02*
D03*
X23295D02*
D03*
D70*
X3248Y3701D02*
D03*
D71*
X2256Y16173D02*
D03*
Y14173D02*
D03*
Y15173D02*
D03*
X3256Y16173D02*
D03*
Y15173D02*
D03*
X2256Y12173D02*
D03*
X3256Y13173D02*
D03*
X2256D02*
D03*
X3256Y14173D02*
D03*
D72*
Y12173D02*
D03*
D73*
X16697Y16732D02*
D03*
X20134Y1260D02*
D03*
X22295D02*
D03*
D74*
X21220Y16732D02*
D03*
X22008D02*
D03*
X20433D02*
D03*
X19646D02*
D03*
X18858D02*
D03*
D75*
X22795D02*
D03*
D76*
X17642Y5413D02*
D03*
D77*
X19563D02*
D03*
D78*
X27274Y15256D02*
D03*
Y13878D02*
D03*
Y12500D02*
D03*
Y8366D02*
D03*
Y4232D02*
D03*
Y5610D02*
D03*
Y6988D02*
D03*
Y9744D02*
D03*
Y11122D02*
D03*
X2756Y984D02*
D03*
X27165D02*
D03*
Y17126D02*
D03*
D79*
X27274Y2854D02*
D03*
M02*
