G04*
G04 #@! TF.GenerationSoftware,Altium Limited,Altium Designer,21.0.8 (223)*
G04*
G04 Layer_Color=8388736*
%FSLAX24Y24*%
%MOIN*%
G70*
G04*
G04 #@! TF.SameCoordinates,FDC07EFC-1B29-4822-A7E3-1CBBEB92D143*
G04*
G04*
G04 #@! TF.FilePolarity,Negative*
G04*
G01*
G75*
%ADD32R,0.0197X0.0472*%
%ADD33R,0.0472X0.0197*%
%ADD48R,0.0748X0.0917*%
%ADD49R,0.0591X0.0551*%
%ADD50R,0.0394X0.0433*%
%ADD51R,0.0886X0.1004*%
G04:AMPARAMS|DCode=52|XSize=53.9mil|YSize=83.9mil|CornerRadius=12mil|HoleSize=0mil|Usage=FLASHONLY|Rotation=0.000|XOffset=0mil|YOffset=0mil|HoleType=Round|Shape=RoundedRectangle|*
%AMROUNDEDRECTD52*
21,1,0.0539,0.0600,0,0,0.0*
21,1,0.0300,0.0839,0,0,0.0*
1,1,0.0239,0.0150,-0.0300*
1,1,0.0239,-0.0150,-0.0300*
1,1,0.0239,-0.0150,0.0300*
1,1,0.0239,0.0150,0.0300*
%
%ADD52ROUNDEDRECTD52*%
G04:AMPARAMS|DCode=53|XSize=243.9mil|YSize=273.9mil|CornerRadius=50mil|HoleSize=0mil|Usage=FLASHONLY|Rotation=0.000|XOffset=0mil|YOffset=0mil|HoleType=Round|Shape=RoundedRectangle|*
%AMROUNDEDRECTD53*
21,1,0.2439,0.1740,0,0,0.0*
21,1,0.1440,0.2739,0,0,0.0*
1,1,0.0999,0.0720,-0.0870*
1,1,0.0999,-0.0720,-0.0870*
1,1,0.0999,-0.0720,0.0870*
1,1,0.0999,0.0720,0.0870*
%
%ADD53ROUNDEDRECTD53*%
%ADD54R,0.0354X0.0354*%
G04:AMPARAMS|DCode=55|XSize=66.9mil|YSize=27.6mil|CornerRadius=13.8mil|HoleSize=0mil|Usage=FLASHONLY|Rotation=0.000|XOffset=0mil|YOffset=0mil|HoleType=Round|Shape=RoundedRectangle|*
%AMROUNDEDRECTD55*
21,1,0.0669,0.0000,0,0,0.0*
21,1,0.0394,0.0276,0,0,0.0*
1,1,0.0276,0.0197,0.0000*
1,1,0.0276,-0.0197,0.0000*
1,1,0.0276,-0.0197,0.0000*
1,1,0.0276,0.0197,0.0000*
%
%ADD55ROUNDEDRECTD55*%
%ADD56O,0.0276X0.0768*%
%ADD57R,0.0439X0.0259*%
%ADD58R,0.0571X0.0492*%
%ADD59R,0.0748X0.0524*%
%ADD60R,0.0354X0.0354*%
%ADD61O,0.0177X0.0709*%
%ADD62O,0.0433X0.0354*%
%ADD63R,0.0374X0.0413*%
%ADD64R,0.0276X0.0335*%
%ADD65R,0.0413X0.0374*%
%ADD66R,0.0524X0.0748*%
%ADD67R,0.0433X0.0394*%
%ADD68R,0.0551X0.0591*%
%ADD69C,0.0669*%
G04:AMPARAMS|DCode=70|XSize=66.9mil|YSize=66.9mil|CornerRadius=17.7mil|HoleSize=0mil|Usage=FLASHONLY|Rotation=90.000|XOffset=0mil|YOffset=0mil|HoleType=Round|Shape=RoundedRectangle|*
%AMROUNDEDRECTD70*
21,1,0.0669,0.0315,0,0,90.0*
21,1,0.0315,0.0669,0,0,90.0*
1,1,0.0354,0.0157,0.0157*
1,1,0.0354,0.0157,-0.0157*
1,1,0.0354,-0.0157,-0.0157*
1,1,0.0354,-0.0157,0.0157*
%
%ADD70ROUNDEDRECTD70*%
%ADD71C,0.0709*%
%ADD72P,0.0767X8X112.5*%
G04:AMPARAMS|DCode=73|XSize=66.9mil|YSize=66.9mil|CornerRadius=17.7mil|HoleSize=0mil|Usage=FLASHONLY|Rotation=180.000|XOffset=0mil|YOffset=0mil|HoleType=Round|Shape=RoundedRectangle|*
%AMROUNDEDRECTD73*
21,1,0.0669,0.0315,0,0,180.0*
21,1,0.0315,0.0669,0,0,180.0*
1,1,0.0354,-0.0157,0.0157*
1,1,0.0354,0.0157,0.0157*
1,1,0.0354,0.0157,-0.0157*
1,1,0.0354,-0.0157,-0.0157*
%
%ADD73ROUNDEDRECTD73*%
%ADD74C,0.0551*%
G04:AMPARAMS|DCode=75|XSize=55.1mil|YSize=55.1mil|CornerRadius=14.8mil|HoleSize=0mil|Usage=FLASHONLY|Rotation=180.000|XOffset=0mil|YOffset=0mil|HoleType=Round|Shape=RoundedRectangle|*
%AMROUNDEDRECTD75*
21,1,0.0551,0.0256,0,0,180.0*
21,1,0.0256,0.0551,0,0,180.0*
1,1,0.0295,-0.0128,0.0128*
1,1,0.0295,0.0128,0.0128*
1,1,0.0295,0.0128,-0.0128*
1,1,0.0295,-0.0128,-0.0128*
%
%ADD75ROUNDEDRECTD75*%
%ADD76R,0.0453X0.0453*%
%ADD77C,0.0453*%
%ADD78C,0.0689*%
G04:AMPARAMS|DCode=79|XSize=68.9mil|YSize=68.9mil|CornerRadius=18.2mil|HoleSize=0mil|Usage=FLASHONLY|Rotation=90.000|XOffset=0mil|YOffset=0mil|HoleType=Round|Shape=RoundedRectangle|*
%AMROUNDEDRECTD79*
21,1,0.0689,0.0325,0,0,90.0*
21,1,0.0325,0.0689,0,0,90.0*
1,1,0.0364,0.0162,0.0162*
1,1,0.0364,0.0162,-0.0162*
1,1,0.0364,-0.0162,-0.0162*
1,1,0.0364,-0.0162,0.0162*
%
%ADD79ROUNDEDRECTD79*%
D32*
X17106Y9843D02*
D03*
X17421D02*
D03*
X17736D02*
D03*
X18051D02*
D03*
X18366D02*
D03*
X18681D02*
D03*
X18996D02*
D03*
X19311D02*
D03*
Y13189D02*
D03*
X18996D02*
D03*
X18681D02*
D03*
X18366D02*
D03*
X18051D02*
D03*
X17736D02*
D03*
X17421D02*
D03*
X17106D02*
D03*
D33*
X19882Y10413D02*
D03*
Y10728D02*
D03*
Y11043D02*
D03*
Y11358D02*
D03*
Y11673D02*
D03*
Y11988D02*
D03*
Y12303D02*
D03*
Y12618D02*
D03*
X16535D02*
D03*
Y12303D02*
D03*
Y11988D02*
D03*
Y11673D02*
D03*
Y11358D02*
D03*
Y11043D02*
D03*
Y10728D02*
D03*
Y10413D02*
D03*
D48*
X8094Y13543D02*
D03*
X6945D02*
D03*
D49*
X21900Y13484D02*
D03*
Y14114D02*
D03*
X13780Y13268D02*
D03*
Y13898D02*
D03*
X19843Y7953D02*
D03*
Y7323D02*
D03*
X20669D02*
D03*
Y7953D02*
D03*
D50*
X15974Y8524D02*
D03*
X16506D02*
D03*
X17549Y3917D02*
D03*
X18081D02*
D03*
X19852D02*
D03*
X19321D02*
D03*
D51*
X5984Y16909D02*
D03*
Y15217D02*
D03*
X8110D02*
D03*
Y16909D02*
D03*
D52*
X10090Y13543D02*
D03*
X11890D02*
D03*
D53*
X10990Y15893D02*
D03*
D54*
X24921Y16486D02*
D03*
Y17136D02*
D03*
D55*
X13878Y11232D02*
D03*
Y10732D02*
D03*
Y10232D02*
D03*
Y9732D02*
D03*
Y9232D02*
D03*
Y8732D02*
D03*
Y8232D02*
D03*
X11555D02*
D03*
Y8732D02*
D03*
Y9232D02*
D03*
Y9732D02*
D03*
Y10232D02*
D03*
Y10732D02*
D03*
Y11232D02*
D03*
D56*
X15233Y4872D02*
D03*
X14733D02*
D03*
X14233D02*
D03*
X13733D02*
D03*
X13233D02*
D03*
X12733D02*
D03*
X12233D02*
D03*
X11733D02*
D03*
X15233Y2589D02*
D03*
X14733D02*
D03*
X14233D02*
D03*
X13733D02*
D03*
X13233D02*
D03*
X12733D02*
D03*
X12233D02*
D03*
X11733D02*
D03*
D57*
X15120Y7264D02*
D03*
X16100Y7634D02*
D03*
Y6894D02*
D03*
D58*
X23278Y9537D02*
D03*
Y8848D02*
D03*
X25049Y9537D02*
D03*
Y8848D02*
D03*
X24163D02*
D03*
Y9537D02*
D03*
X22392Y8848D02*
D03*
Y9537D02*
D03*
D59*
X15906Y14295D02*
D03*
X14874D02*
D03*
X11984Y6181D02*
D03*
X13016D02*
D03*
X14984Y1280D02*
D03*
X13953D02*
D03*
X12425D02*
D03*
X11394D02*
D03*
D60*
X22402Y7146D02*
D03*
Y7736D02*
D03*
X24173Y7146D02*
D03*
Y7736D02*
D03*
D61*
X22746Y11850D02*
D03*
X23002D02*
D03*
X23258D02*
D03*
X23514D02*
D03*
X23770D02*
D03*
X24026D02*
D03*
X24281D02*
D03*
X24537D02*
D03*
X24793D02*
D03*
X25049D02*
D03*
X22746Y14094D02*
D03*
X23002D02*
D03*
X23258D02*
D03*
X23514D02*
D03*
X23770D02*
D03*
X24026D02*
D03*
X24281D02*
D03*
X24537D02*
D03*
X24793D02*
D03*
X25049D02*
D03*
D62*
X8465Y9126D02*
D03*
Y10126D02*
D03*
X5906Y9126D02*
D03*
Y10126D02*
D03*
X8465Y3220D02*
D03*
Y4220D02*
D03*
X5906Y3220D02*
D03*
Y4220D02*
D03*
X8465Y1252D02*
D03*
Y2252D02*
D03*
X5906Y1252D02*
D03*
Y2252D02*
D03*
X8465Y11094D02*
D03*
Y12094D02*
D03*
X5906Y11094D02*
D03*
Y12094D02*
D03*
X5906Y8157D02*
D03*
Y7157D02*
D03*
X8465Y8157D02*
D03*
Y7157D02*
D03*
X8465Y5189D02*
D03*
Y6189D02*
D03*
X5906Y5189D02*
D03*
Y6189D02*
D03*
D63*
X10138Y8425D02*
D03*
X9626D02*
D03*
X10138Y10236D02*
D03*
X9626D02*
D03*
X10138Y5709D02*
D03*
X9626D02*
D03*
X22776Y2362D02*
D03*
X23287D02*
D03*
X9626Y6614D02*
D03*
X10138D02*
D03*
X21240Y2362D02*
D03*
X21752D02*
D03*
X9626Y9331D02*
D03*
X10138D02*
D03*
Y7520D02*
D03*
X9626D02*
D03*
D64*
X4665Y9478D02*
D03*
Y9026D02*
D03*
D65*
X24134Y17106D02*
D03*
Y16594D02*
D03*
X23632Y5935D02*
D03*
Y5423D02*
D03*
X24419D02*
D03*
Y5935D02*
D03*
X25207D02*
D03*
Y5423D02*
D03*
X22844D02*
D03*
Y5935D02*
D03*
D66*
X16594Y2303D02*
D03*
Y1272D02*
D03*
X10512Y4374D02*
D03*
Y3343D02*
D03*
X19016Y7043D02*
D03*
Y8075D02*
D03*
D67*
X22844Y3533D02*
D03*
Y4065D02*
D03*
X25207Y3533D02*
D03*
Y4065D02*
D03*
X23632Y3533D02*
D03*
Y4065D02*
D03*
X24419Y3533D02*
D03*
Y4065D02*
D03*
D68*
X10197Y12283D02*
D03*
X9567D02*
D03*
X10197Y11220D02*
D03*
X9567D02*
D03*
D69*
X3248Y7701D02*
D03*
Y6701D02*
D03*
X2248Y7701D02*
D03*
Y6701D02*
D03*
X3248Y5701D02*
D03*
X2248D02*
D03*
Y4701D02*
D03*
X3248D02*
D03*
X2248Y3701D02*
D03*
X13697Y16732D02*
D03*
X14697D02*
D03*
X15697D02*
D03*
X19134Y1260D02*
D03*
X18134D02*
D03*
X23295D02*
D03*
D70*
X3248Y3701D02*
D03*
D71*
X2256Y16173D02*
D03*
Y14173D02*
D03*
Y15173D02*
D03*
X3256Y16173D02*
D03*
Y15173D02*
D03*
X2256Y12173D02*
D03*
X3256Y13173D02*
D03*
X2256D02*
D03*
X3256Y14173D02*
D03*
D72*
Y12173D02*
D03*
D73*
X16697Y16732D02*
D03*
X20134Y1260D02*
D03*
X22295D02*
D03*
D74*
X21220Y16732D02*
D03*
X22008D02*
D03*
X20433D02*
D03*
X19646D02*
D03*
X18858D02*
D03*
D75*
X22795D02*
D03*
D76*
X17642Y5413D02*
D03*
D77*
X19563D02*
D03*
D78*
X27274Y15256D02*
D03*
Y13878D02*
D03*
Y12500D02*
D03*
Y8366D02*
D03*
Y4232D02*
D03*
Y5610D02*
D03*
Y6988D02*
D03*
Y9744D02*
D03*
Y11122D02*
D03*
X2756Y984D02*
D03*
X27165D02*
D03*
Y17126D02*
D03*
D79*
X27274Y2854D02*
D03*
M02*
